<?xml version="1.0" encoding="UTF-8" standalone="no"?>
<svg
   xmlns:dc="http://purl.org/dc/elements/1.1/"
   xmlns:cc="http://creativecommons.org/ns#"
   xmlns:rdf="http://www.w3.org/1999/02/22-rdf-syntax-ns#"
   xmlns:svg="http://www.w3.org/2000/svg"
   xmlns="http://www.w3.org/2000/svg"
   xmlns:sodipodi="http://sodipodi.sourceforge.net/DTD/sodipodi-0.dtd"
   xmlns:inkscape="http://www.inkscape.org/namespaces/inkscape"
   version="1.0"
   width="1280.000000pt"
   height="640.000000pt"
   viewBox="0 0 1280.000000 640.000000"
   preserveAspectRatio="xMidYMid meet"
   id="svg32"
   sodipodi:docname="3rd_party_microsoft.svg"
   inkscape:version="0.92.3 (2405546, 2018-03-11)">
  <defs
     id="defs36" />
  <sodipodi:namedview
     pagecolor="#ffffff"
     bordercolor="#666666"
     borderopacity="1"
     objecttolerance="10"
     gridtolerance="10"
     guidetolerance="10"
     inkscape:pageopacity="0"
     inkscape:pageshadow="2"
     inkscape:window-width="1374"
     inkscape:window-height="741"
     id="namedview34"
     showgrid="false"
     inkscape:zoom="0.16640625"
     inkscape:cx="105.69044"
     inkscape:cy="422.30855"
     inkscape:window-x="263"
     inkscape:window-y="81"
     inkscape:window-maximized="0"
     inkscape:current-layer="svg32" />
  <metadata
     id="metadata2">
Created by potrace 1.15, written by Peter Selinger 2001-2017
<rdf:RDF>
  <cc:Work
     rdf:about="">
    <dc:format>image/svg+xml</dc:format>
    <dc:type
       rdf:resource="http://purl.org/dc/dcmitype/StillImage" />
  </cc:Work>
</rdf:RDF>
</metadata>
  <g
     transform="translate(0.000000,640.000000) scale(0.100000,-0.100000)"
     fill="#000000"
     stroke="none"
     id="g30"
     style="fill:#ffffff">
    <path
       d="M0 3920 l0 -650 650 0 650 0 0 650 0 650 -650 0 -650 0 0 -650z"
       id="path4"
       style="fill:#ffffff" />
    <path
       d="M1437 4563 c-4 -3 -7 -296 -7 -650 l0 -643 650 0 650 0 0 650 0 650 -643 0 c-354 0 -647 -3 -650 -7z"
       id="path6"
       style="fill:#ffffff" />
    <path
       d="M11870 4130 c-105 -23 -216 -101 -263 -187 -41 -76 -57 -154 -57 -275 l0 -107 -97 -3 -98 -3 -3 -112 -3 -113 101 0 100 0 0 -475 0 -475 140 0 140 0 0 475 0 475 205 0 205 0 0 -302 c1 -361 8 -429 52 -518 37 -72 95 -120 171 -141 64 -17 203 -14 275 6 l62 18 0 112 0 112 -57 -19 c-92 -31 -164 -12 -200 55 -16 28 -18 69 -21 355 l-3 322 140 0 141 0 0 115 0 115 -140 0 -140 0 0 171 0 171 -27 -7 c-16 -3 -79 -22 -140 -41 l-113 -35 0 -132 0 -132 -206 3 -206 3 3 117 c4 128 17 165 71 205 37 27 123 34 182 14 l46 -16 0 119 c0 101 -2 119 -17 124 -30 12 -197 15 -243 6z"
       id="path8"
       style="fill:#ffffff" />
    <path
       d="M5644 4031 c-52 -32 -77 -76 -77 -137 0 -98 74 -161 181 -152 91 8 147 66 147 153 0 60 -20 95 -75 133 -43 29 -131 31 -176 3z"
       id="path10"
       style="fill:#ffffff" />
    <path
       d="M3550 3200 l0 -820 135 0 135 0 -2 630 c-2 347 0 630 3 630 3 0 119 -284 259 -630 l254 -631 100 3 100 3 247 623 c136 343 250 626 253 629 3 4 6 -278 6 -625 l0 -632 140 0 140 0 0 820 0 820 -193 0 -193 0 -229 -562 c-126 -310 -238 -583 -248 -607 l-20 -45 -87 220 c-48 120 -156 393 -240 607 l-153 387 -204 0 -203 0 0 -820z"
       id="path12"
       style="fill:#ffffff" />
    <path
       d="M6520 3565 c-203 -46 -362 -191 -430 -395 -31 -90 -39 -287 -16 -384 36 -151 145 -297 271 -363 156 -81 389 -89 562 -21 l58 23 5 128 c3 70 4 127 3 127 -1 0 -31 -16 -67 -35 -167 -93 -354 -77 -463 38 -82 86 -114 210 -93 356 20 139 100 247 216 290 109 41 264 22 364 -46 19 -12 37 -23 40 -23 3 0 4 60 2 134 l-3 134 -67 22 c-87 29 -284 37 -382 15z"
       id="path14"
       style="fill:#ffffff" />
    <path
       d="M7710 3569 c-98 -14 -175 -71 -224 -166 l-25 -48 -1 103 0 103 -137 -3 -138 -3 -3 -587 -2 -588 139 0 140 0 3 363 3 362 28 60 c44 93 95 140 171 154 51 9 134 -2 178 -25 l28 -15 0 135 c0 97 -4 137 -12 143 -21 12 -100 19 -148 12z"
       id="path16"
       style="fill:#ffffff" />
    <path
       d="M8331 3565 c-217 -49 -371 -201 -426 -420 -23 -91 -24 -274 -1 -369 47 -199 197 -350 398 -403 86 -22 261 -22 353 2 179 45 324 171 386 333 36 99 52 206 45 317 -10 181 -58 298 -160 401 -64 63 -110 92 -206 126 -74 27 -296 34 -389 13z m294 -239 c67 -30 127 -100 151 -173 15 -46 19 -87 19 -193 -1 -117 -4 -143 -24 -193 -29 -74 -71 -121 -135 -154 -44 -23 -64 -26 -141 -26 -99 0 -153 17 -213 67 -94 81 -137 274 -97 444 28 116 80 186 170 228 71 34 199 34 270 0z"
       id="path18"
       style="fill:#ffffff" />
    <path
       d="M9513 3565 c-118 -33 -223 -116 -264 -208 -33 -75 -33 -211 1 -282 41 -84 87 -120 264 -205 89 -43 170 -88 180 -99 26 -29 33 -104 12 -136 -57 -87 -269 -78 -428 19 l-58 35 0 -135 0 -134 36 -15 c111 -46 325 -61 442 -31 129 33 224 103 272 201 20 42 24 65 24 145 0 78 -3 102 -21 136 -50 95 -114 143 -294 224 -132 58 -168 89 -176 149 -19 137 188 177 390 75 l48 -25 -3 128 -3 127 -60 19 c-82 26 -289 33 -362 12z"
       id="path20"
       style="fill:#ffffff" />
    <path
       d="M10555 3561 c-141 -35 -264 -120 -336 -232 -104 -163 -127 -429 -54 -626 90 -241 345 -379 634 -343 165 20 255 61 356 164 122 123 169 250 169 456 0 201 -47 333 -157 444 -74 73 -138 109 -243 136 -99 26 -269 26 -369 1z m321 -238 c56 -30 108 -90 135 -159 19 -50 23 -78 23 -189 1 -205 -41 -301 -158 -360 -53 -26 -70 -29 -145 -29 -108 1 -175 27 -231 91 -65 75 -84 137 -85 283 0 200 45 298 167 360 60 30 67 31 158 28 72 -3 105 -9 136 -25z"
       id="path22"
       style="fill:#ffffff" />
    <path
       d="M5590 2970 l0 -590 140 0 140 0 -2 588 -3 587 -137 3 -138 3 0 -591z"
       id="path24"
       style="fill:#ffffff" />
    <path
       d="M0 2480 l0 -650 650 0 650 0 0 650 0 650 -650 0 -650 0 0 -650z"
       id="path26"
       style="fill:#ffffff" />
    <path
       d="M1432 2483 l3 -648 648 -3 647 -2 0 650 0 650 -650 0 -650 0 2 -647z"
       id="path28"
       style="fill:#ffffff" />
  </g>
</svg>
