<?xml version="1.0" encoding="UTF-8" standalone="no"?>
<svg
   xmlns:dc="http://purl.org/dc/elements/1.1/"
   xmlns:cc="http://creativecommons.org/ns#"
   xmlns:rdf="http://www.w3.org/1999/02/22-rdf-syntax-ns#"
   xmlns:svg="http://www.w3.org/2000/svg"
   xmlns="http://www.w3.org/2000/svg"
   xmlns:sodipodi="http://sodipodi.sourceforge.net/DTD/sodipodi-0.dtd"
   xmlns:inkscape="http://www.inkscape.org/namespaces/inkscape"
   version="1.0"
   width="1280.000000pt"
   height="640.000000pt"
   viewBox="0 0 1280.000000 640.000000"
   preserveAspectRatio="xMidYMid meet"
   id="svg32"
   sodipodi:docname="3rd_party_lokad.svg"
   inkscape:version="0.92.3 (2405546, 2018-03-11)">
  <defs
     id="defs36">
    <clipPath
       id="clipPath22"
       clipPathUnits="userSpaceOnUse">
      <path
         inkscape:connector-curvature="0"
         style="clip-rule:evenodd"
         id="path20-1"
         d="M 0,2955.9 H 6043.2 V 5153.1 H 0 Z" />
    </clipPath>
    <linearGradient
       gradientUnits="userSpaceOnUse"
       x2="3.5587799"
       id="linear-gradient"
       gradientTransform="scale(0.98979961,1.0103055)"
       x1="-1.1825481e-006"
       y1="0"
       y2="0">
      <stop
         id="stop865"
         stop-color="#fcb617"
         offset="0" />
      <stop
         id="stop867"
         stop-color="#fcb617"
         offset="0.13" />
      <stop
         id="stop869"
         stop-color="#f96"
         offset="0.36" />
      <stop
         id="stop871"
         stop-color="#e60020"
         offset="0.69" />
      <stop
         id="stop873"
         stop-color="#be0020"
         offset="1" />
    </linearGradient>
  </defs>
  <sodipodi:namedview
     pagecolor="#ffffff"
     bordercolor="#666666"
     borderopacity="1"
     objecttolerance="10"
     gridtolerance="10"
     guidetolerance="10"
     inkscape:pageopacity="0"
     inkscape:pageshadow="2"
     inkscape:window-width="1920"
     inkscape:window-height="1017"
     id="namedview34"
     showgrid="false"
     inkscape:zoom="0.3328125"
     inkscape:cx="859.29376"
     inkscape:cy="477.16644"
     inkscape:window-x="1912"
     inkscape:window-y="-8"
     inkscape:window-maximized="1"
     inkscape:current-layer="svg32"
     borderlayer="true" />
  <metadata
     id="metadata2">
Created by potrace 1.15, written by Peter Selinger 2001-2017
<rdf:RDF>
  <cc:Work
     rdf:about="">
    <dc:format>image/svg+xml</dc:format>
    <dc:type
       rdf:resource="http://purl.org/dc/dcmitype/StillImage" />
    <dc:title></dc:title>
  </cc:Work>
</rdf:RDF>
</metadata>
  <g
     id="logo"
     transform="matrix(1.118978,0,0,1.118978,1.3097476e-6,198.24965)"
     style="fill:#ffffff;stroke-width:0.67025447">
    <path
       style="fill:#ffffff;fill-rule:evenodd;stroke-width:0.67025447"
       inkscape:connector-curvature="0"
       id="Path_1832"
       data-name="Path 1832"
       d="m 95.114,0 h 10.948 a 4.716,4.716 0 0 1 4.713,4.71 v 97.682 h 56.758 a 4.715,4.715 0 0 1 4.713,4.717 v 11.127 a 4.714,4.714 0 0 1 -4.713,4.709 h -73.5 A 3.635,3.635 0 0 1 90.401,119.31 V 4.709 A 4.711,4.711 0 0 1 95.118,0 M 296.076,20.56 A 40.828,40.828 0 0 0 255.155,61.48 40.535,40.535 0 0 0 296.072,102.4 39.707,39.707 0 0 0 324.952,90.531 39.983,39.983 0 0 0 337,61.48 39.413,39.413 0 0 0 324.952,32.6 39.4,39.4 0 0 0 296.075,20.556 m 0,-20.557 q 25.517,0 43.406,18.075 18.244,18.066 18.244,43.406 0,25.678 -18.243,43.4 -17.889,18.066 -43.406,18.068 -25.517,0.002 -43.4,-18.068 -18.072,-17.889 -18.072,-43.406 0,-25.329 18.072,-43.4 Q 270.394,0 296.083,0"
       transform="translate(233.359)" />
    <path
       style="fill:#ffffff;fill-rule:evenodd;stroke-width:0.67025447"
       inkscape:connector-curvature="0"
       id="Path_1833"
       data-name="Path 1833"
       d="m 228.407,61.474 55.411,55.411 a 3.549,3.549 0 0 1 -2.507,6.06 h -18.838 a 3.54,3.54 0 0 1 -2.507,-1.039 l -52.109,-51.75 v 49.237 a 3.544,3.544 0 0 1 -3.546,3.546 h -13.275 a 3.548,3.548 0 0 1 -3.553,-3.546 V 3.546 A 3.553,3.553 0 0 1 191.036,0 h 13.273 a 3.551,3.551 0 0 1 3.553,3.546 V 52.969 L 259.97,1.039 A 3.525,3.525 0 0 1 262.477,0 h 18.243 a 3.134,3.134 0 0 1 2.22,5.347 z m 370.006,40.917 a 40.3,40.3 0 0 0 28.967,-12.04 42.26,42.26 0 0 0 8.774,-13.108 40.6,40.6 0 0 0 0,-31.538 41.694,41.694 0 0 0 -21.972,-21.968 39.647,39.647 0 0 0 -15.769,-3.187 h -20.546 v 81.842 z M 557.493,5.48 A 5.479,5.479 0 0 1 562.972,0 h 35.441 a 58.767,58.767 0 0 1 23.745,4.871 62.946,62.946 0 0 1 32.859,32.863 60.286,60.286 0 0 1 0,47.478 64.072,64.072 0 0 1 -13.2,19.576 61.8,61.8 0 0 1 -19.576,13.287 59.344,59.344 0 0 1 -23.827,4.871 h -35.449 a 5.48,5.48 0 0 1 -5.479,-5.479 V 5.48 Z M 480.454,116.305 423.241,2.536 a 4.592,4.592 0 0 0 -8.212,0 l -57.517,113.77 a 4.589,4.589 0 0 0 4.108,6.64 h 12.614 a 4.581,4.581 0 0 0 4.083,-2.507 l 0.663,-1.3 40.146,-78.939 39.986,78.933 h -0.1 l 0.634,1.268 a 4.574,4.574 0 0 0 4.1,2.543 h 12.592 a 4.59,4.59 0 0 0 4.108,-6.643"
       transform="translate(483.964,0.003)" />
    <path
       style="fill:#ffffff;fill-rule:evenodd;stroke-width:0.67025447"
       inkscape:connector-curvature="0"
       id="Path_1834"
       data-name="Path 1834"
       d="m 110.089,81.584 a 13.092,13.092 0 1 0 -13.3,-13.144 13.243,13.243 0 0 0 13.3,13.144 m 21.7,9.4 a 15.705,15.705 0 0 1 -10.035,4.065 c -4.645,0 -8.81,-2.9 -11.768,-7.865 C 98.961,87.131 90.459,79 90.459,68.444 c 0,-10.612 8.552,-18.634 19.583,-18.634 11.031,0 19.59,8.072 19.59,18.63 a 18.476,18.476 0 0 1 -13.308,17.792 c 2.006,2.16 4.068,3.431 6.178,3.431 1.952,0 4.38,-1.16 6.812,-3.066 l 2.478,4.384 z m 35.66,-4.068 h -6.07 v -5.482 c -1.9,3.9 -5.437,5.648 -10.028,5.7 -6.446,0 -10.3,-4.119 -10.3,-10.823 V 58.835 h 6.07 v 15.787 c 0,4.226 2.482,6.812 6.547,6.812 4.86,-0.107 7.711,-3.854 7.711,-8.764 V 58.846 h 6.07 v 28.078 z m 31.029,-9.87 v -2.589 h -7.6 c -3.961,0 -5.809,1.053 -5.809,3.746 0,2.536 2.059,4.172 5.437,4.172 4.333,0 7.657,-2.271 7.972,-5.336 m 0.054,6.446 c -2.006,2.478 -5.229,3.689 -9.294,3.689 -6.07,0 -9.87,-3.743 -9.87,-8.7 0,-5.121 3.854,-8.395 10.612,-8.452 h 8.495 V 69.18 c 0,-3.538 -2.271,-5.648 -6.7,-5.648 a 14.816,14.816 0 0 0 -8.287,2.851 l -2.482,-4.219 c 3.9,-2.328 6.758,-3.546 12.091,-3.546 7.227,0 11.292,3.7 11.346,9.877 l 0.05,18.426 H 198.53 V 83.493 Z M 244.76,69.442 V 86.92 H 238.7 V 71.133 c 0,-4.226 -2.532,-6.812 -6.758,-6.812 -4.645,0.054 -7.546,3.27 -7.972,7.653 V 86.909 H 217.9 V 58.831 h 6.07 v 5.379 c 2.006,-3.9 5.6,-5.594 10.35,-5.594 6.543,0 10.45,4.119 10.45,10.823"
       transform="translate(233.508,128.581)" />
    <path
       style="fill:#ffffff;fill-rule:evenodd;stroke-width:0.67025447"
       inkscape:connector-curvature="0"
       id="Path_1835"
       data-name="Path 1835"
       d="m 155.228,87.069 a 13.509,13.509 0 0 1 -6.912,2.056 c -4.226,0 -7.868,-2.428 -7.868,-8.18 V 66.376 h -3.958 v -4.542 h 3.957 v -7.707 h 6.017 v 7.707 h 8.287 v 4.541 h -8.291 v 13.459 c 0,2.9 1.11,3.8 3.008,3.8 a 9.766,9.766 0 0 0 4.226,-1.211 l 1.529,4.649 z M 166.09,60.781 h 6.017 v 28.078 h -6.017 z m 6.547,-8.022 a 3.7,3.7 0 1 1 0,-0.007"
       transform="translate(352.332,126.634)" />
    <path
       style="fill:#ffffff;fill-rule:evenodd;stroke-width:0.67025447"
       inkscape:connector-curvature="0"
       id="Path_1836"
       data-name="Path 1836"
       d="m 168.358,87.069 a 13.509,13.509 0 0 1 -6.912,2.056 c -4.226,0 -7.868,-2.428 -7.868,-8.18 V 66.376 h -3.961 v -4.542 h 3.961 v -7.707 h 6.017 v 7.707 h 8.287 v 4.541 h -8.287 v 13.459 c 0,2.9 1.11,3.8 3.008,3.8 a 9.753,9.753 0 0 0 4.226,-1.211 l 1.529,4.649 z m 27.655,-8.08 V 76.4 h -7.607 c -3.957,0 -5.8,1.053 -5.8,3.746 0,2.536 2.056,4.172 5.433,4.172 4.333,0 7.657,-2.271 7.976,-5.336 m 0.054,6.446 c -2.006,2.478 -5.229,3.689 -9.294,3.689 -6.07,0 -9.87,-3.743 -9.87,-8.7 0,-5.121 3.854,-8.395 10.608,-8.452 h 8.5 v -0.842 c 0,-3.538 -2.271,-5.648 -6.708,-5.648 a 14.817,14.817 0 0 0 -8.291,2.851 l -2.478,-4.219 c 3.9,-2.328 6.754,-3.546 12.087,-3.546 7.234,0 11.3,3.7 11.353,9.877 l 0.054,18.426 h -5.967 v -3.425 z m 35.251,1.637 a 13.533,13.533 0 0 1 -6.919,2.056 c -4.226,0 -7.865,-2.428 -7.865,-8.18 V 66.376 h -3.957 v -4.542 h 3.957 v -7.707 h 6.017 v 7.707 h 8.287 v 4.541 h -8.284 v 13.459 c 0,2.9 1.1,3.8 3.008,3.8 a 9.752,9.752 0 0 0 4.219,-1.211 l 1.54,4.649 z m 10.862,-26.287 h 6.018 v 28.081 h -6.017 z m 6.543,-8.022 a 3.7,3.7 0 1 1 0,-0.007"
       transform="translate(386.217,126.634)" />
    <path
       style="fill:#ffffff;fill-rule:evenodd;stroke-width:0.67025447"
       inkscape:connector-curvature="0"
       id="Path_1837"
       data-name="Path 1837"
       d="M 190.762,86.988 179.882,58.91 h 6.332 l 7.815,22.115 7.707,-22.119 h 6.074 l -10.77,28.078 h -6.282 z m 44.91,-16.152 c -0.215,-4.541 -3.223,-7.285 -7.818,-7.285 -4.43,0 -7.546,2.793 -8.23,7.285 h 16.045 z m 5.279,4.434 h -21.223 a 8.542,8.542 0 0 0 8.7,7.019 10.929,10.929 0 0 0 7.926,-3.27 l 3.223,3.431 a 15.28,15.28 0 0 1 -11.608,4.75 c -8.656,0 -14.361,-5.755 -14.361,-14.2 0,-8.5 5.863,-14.254 14.2,-14.308 9.87,0 13.881,6.439 13.144,16.575 m 55.934,-21.689 -2.589,5.49 a 22.081,22.081 0 0 0 -10.816,-3.431 c -3.653,0 -6.024,1.372 -6.024,3.854 0,8.08 19.948,3.753 19.9,17.054 0,6.6 -5.8,10.665 -13.939,10.665 a 22.728,22.728 0 0 1 -15.1,-5.859 l 2.693,-5.386 c 3.8,3.485 8.552,5.386 12.513,5.386 4.326,0 6.912,-1.637 6.912,-4.487 0,-8.237 -19.956,-3.642 -19.956,-16.786 0,-6.332 5.437,-10.293 13.466,-10.293 a 24.053,24.053 0 0 1 12.929,3.8"
       transform="translate(464.343,128.506)" />
    <path
       style="fill:#ffffff;fill-rule:evenodd;stroke-width:0.67025447"
       inkscape:connector-curvature="0"
       id="Path_1838"
       data-name="Path 1838"
       d="m 242.226,80.555 h -6.07 v -5.479 c -1.9,3.9 -5.433,5.648 -10.028,5.7 -6.439,0 -10.289,-4.119 -10.289,-10.823 V 52.477 h 6.061 v 15.787 c 0,4.226 2.485,6.812 6.554,6.812 4.856,-0.107 7.7,-3.854 7.7,-8.764 V 52.488 h 6.074 V 80.566 Z M 279.9,66.409 c 0,-5.229 -3.535,-9.079 -8.552,-9.079 -5.017,0 -8.549,3.8 -8.549,9.082 0,5.444 3.538,9.186 8.552,9.186 5.014,0 8.552,-3.8 8.552,-9.183 m 6.124,0.215 c 0,8.391 -5.283,14.146 -13.3,14.146 -4.477,0 -7.858,-1.791 -9.92,-5.068 v 15.1 h -6.07 v -38.32 h 6.074 v 4.853 c 2.063,-3.27 5.444,-5.068 9.82,-5.068 7.969,0 13.409,5.809 13.409,14.361 m 35.029,-0.226 c 0,-5.229 -3.546,-9.079 -8.559,-9.079 -5.013,0 -8.545,3.8 -8.545,9.082 0,5.444 3.535,9.186 8.549,9.186 5.014,0 8.559,-3.8 8.559,-9.183 m 6.124,0.215 c 0,8.391 -5.286,14.146 -13.308,14.146 -4.487,0 -7.865,-1.791 -9.92,-5.068 v 15.1 h -6.074 V 52.488 h 6.074 v 4.853 c 2.056,-3.27 5.433,-5.068 9.813,-5.068 7.972,0 13.412,5.809 13.412,14.361"
       transform="translate(557.159,134.939)" />
    <path
       style="fill:#ffffff;fill-rule:evenodd;stroke-width:0.67025447"
       inkscape:connector-curvature="0"
       id="Path_1839"
       data-name="Path 1839"
       d="m 250.24,49.233 h 6.074 V 88.4 h -6.071 z m 31.624,43.027 c -1.744,4.43 -4.914,6.647 -9.14,6.647 a 9.492,9.492 0 0 1 -6.489,-2.374 l 2.586,-4.692 a 5.958,5.958 0 0 0 3.642,1.368 c 1.848,0 3.331,-1 4.276,-3.116 L 277.684,87.98 266.07,60.321 h 6.289 l 8.388,21.273 7.815,-21.273 h 6.071 L 281.86,92.256 Z m 71.928,-35.266 -3.642,4.548 a 14.423,14.423 0 0 0 -10.3,-4.7 13.012,13.012 0 1 0 0,26.022 15.25,15.25 0 0 0 10.3,-4.38 l 3.7,4.119 a 21,21 0 0 1 -14.308,6.07 c -10.827,0 -19.218,-8.18 -19.218,-18.791 0,-10.508 8.5,-18.587 19.422,-18.587 A 20.4,20.4 0 0 1 353.781,57 m 38.478,13.935 V 88.41 h -6.07 V 72.623 c 0,-4.226 -2.532,-6.812 -6.758,-6.812 -5.014,0.054 -8.022,3.8 -8.022,8.764 V 88.4 h -6.074 V 49.237 h 6.074 v 16.581 c 2.006,-3.961 5.594,-5.705 10.4,-5.705 6.547,0 10.458,4.119 10.458,10.823"
       transform="translate(645.963,127.091)" />
    <path
       style="fill:#ffffff;fill-rule:evenodd;stroke-width:0.67025447"
       inkscape:connector-curvature="0"
       id="Path_1840"
       data-name="Path 1840"
       d="M 312.1,78.989 V 76.4 h -7.6 c -3.961,0 -5.809,1.053 -5.809,3.746 0,2.536 2.059,4.172 5.437,4.172 4.333,0 7.653,-2.271 7.972,-5.336 m 0.054,6.446 c -2.006,2.478 -5.229,3.689 -9.29,3.689 -6.071,0 -9.874,-3.743 -9.874,-8.7 0,-5.121 3.853,-8.395 10.612,-8.452 h 8.5 v -0.842 c 0,-3.538 -2.271,-5.648 -6.7,-5.648 a 14.835,14.835 0 0 0 -8.291,2.851 l -2.478,-4.219 c 3.9,-2.328 6.758,-3.546 12.091,-3.546 7.227,0 11.292,3.7 11.342,9.877 l 0.057,18.426 h -5.967 v -3.425 z m 19.361,-24.651 h 6.017 v 28.082 h -6.017 z m 6.547,-8.022 a 2.562,2.562 0 1 1 0.007,-0.007 m 40.577,18.637 v 17.482 h -6.067 V 73.08 c 0,-4.226 -2.543,-6.812 -6.762,-6.812 -4.649,0.054 -7.55,3.27 -7.972,7.653 v 14.935 h -6.07 V 60.778 h 6.074 v 5.379 c 2.006,-3.9 5.6,-5.594 10.35,-5.594 6.543,0 10.447,4.119 10.447,10.823"
       transform="translate(756.307,126.634)" />
    <path
       style="fill:#ffffff;fill-rule:evenodd;stroke-width:0.67025447"
       inkscape:connector-curvature="0"
       id="Path_1841"
       data-name="Path 1841"
       d="m 215.814,0 c 2.4,0 4.341,1.5 4.341,3.352 v 126.616 c 0,3.639 -3.807,6.59 -8.506,6.59 H 191.2 c -3.474,0 -6.289,2.177 -6.289,4.871 v 79.921 c 0,1.862 -1.941,3.366 -4.333,3.366 h -35.253 c -2.392,0 -4.333,-1.5 -4.333,-3.366 v -79.922 c 0,-2.693 -2.819,-4.871 -6.292,-4.871 h -13.993 c -3.474,0 -6.289,2.177 -6.289,4.871 v 27.3 c 0,1.855 -1.945,3.356 -4.333,3.356 H 74.833 c -2.392,0 -4.333,-1.5 -4.333,-3.359 v -27.297 c 0,-2.693 -2.819,-4.871 -6.292,-4.871 h -14 c -3.474,0 -6.292,2.177 -6.292,4.871 v 45.483 c 0,1.855 -1.941,3.359 -4.333,3.359 H 4.333 C 1.941,190.27 0,188.77 0,186.911 v -56.406 a 6.847,6.847 0 0 1 6.84,-6.851 h 22.115 c 3.474,0 6.289,-2.185 6.289,-4.871 V 35.778 c 0,-1.862 1.948,-3.359 4.344,-3.359 h 35.241 c 2.4,0 4.344,1.5 4.344,3.359 v 83.016 c 0,2.686 2.811,4.871 6.289,4.871 h 13.993 c 3.474,0 6.285,-2.185 6.285,-4.871 V 74.743 c 0,-1.862 1.941,-3.367 4.341,-3.367 h 35.241 c 2.4,0 4.341,1.5 4.341,3.367 v 44.051 c 0,2.686 2.811,4.871 6.285,4.871 h 13.992 c 3.474,0 6.289,-2.185 6.289,-4.871 V 3.349 C 176.232,1.5 178.173,0 180.573,0 Z"
       transform="translate(0,0.003)" />
  </g>
</svg>
