<?xml version="1.0" encoding="UTF-8"?> <svg xmlns="http://www.w3.org/2000/svg" xmlns:xlink="http://www.w3.org/1999/xlink" width="1395.189" height="689.757" viewBox="0 0 1395.189 689.757"><defs><linearGradient id="linear-gradient" x2="0.016" gradientUnits="objectBoundingBox"><stop offset="0" stop-color="#fcb617"></stop><stop offset="0.13" stop-color="#fcb617"></stop><stop offset="0.36" stop-color="#f96"></stop><stop offset="0.69" stop-color="#e60020"></stop><stop offset="1" stop-color="#be0020"></stop></linearGradient></defs><g id="Lokad_" data-name="Lokad " transform="translate(10729.142 -4200.598)"><rect id="Rectangle_178" data-name="Rectangle 178" width="1395.19" height="689.757" transform="translate(-10729.142 4200.598)" fill="#fff"></rect><g id="logo" transform="translate(-10603 4432.001)"><path id="Path_1832" data-name="Path 1832" d="M95.114,0h10.948a4.716,4.716,0,0,1,4.713,4.71v97.682h56.758a4.715,4.715,0,0,1,4.713,4.717v11.127a4.714,4.714,0,0,1-4.713,4.709h-73.5a3.635,3.635,0,0,1-3.632-3.635V4.709A4.711,4.711,0,0,1,95.118,0M296.076,20.56A40.828,40.828,0,0,0,255.155,61.48,40.535,40.535,0,0,0,296.072,102.4a39.707,39.707,0,0,0,28.88-11.869A39.983,39.983,0,0,0,337,61.48,39.413,39.413,0,0,0,324.952,32.6a39.4,39.4,0,0,0-28.877-12.044m0-20.557q25.517,0,43.406,18.075Q357.725,36.14,357.725,61.48q0,25.678-18.243,43.4-17.889,18.066-43.406,18.068t-43.4-18.068q-18.072-17.889-18.072-43.406,0-25.329,18.072-43.4Q270.394,0,296.083,0" transform="translate(233.359 0)" fill="#2e3133" fill-rule="evenodd"></path><path id="Path_1833" data-name="Path 1833" d="M228.407,61.474l55.411,55.411a3.549,3.549,0,0,1-2.507,6.06H262.473a3.54,3.54,0,0,1-2.507-1.039L207.857,70.156v49.237a3.544,3.544,0,0,1-3.546,3.546H191.036a3.548,3.548,0,0,1-3.553-3.546V3.546A3.553,3.553,0,0,1,191.036,0h13.273a3.551,3.551,0,0,1,3.553,3.546V52.969L259.97,1.039A3.525,3.525,0,0,1,262.477,0H280.72a3.134,3.134,0,0,1,2.22,5.347Zm370.006,40.917A40.3,40.3,0,0,0,627.38,90.351a42.26,42.26,0,0,0,8.774-13.108,40.6,40.6,0,0,0,0-31.538,41.694,41.694,0,0,0-21.972-21.968,39.647,39.647,0,0,0-15.769-3.187H577.867v81.842ZM557.493,5.48A5.479,5.479,0,0,1,562.972,0h35.441a58.767,58.767,0,0,1,23.745,4.871,62.946,62.946,0,0,1,32.859,32.863,60.286,60.286,0,0,1,0,47.478,64.072,64.072,0,0,1-13.2,19.576,61.8,61.8,0,0,1-19.576,13.287,59.344,59.344,0,0,1-23.827,4.871H562.965a5.48,5.48,0,0,1-5.479-5.479V5.48ZM480.454,116.305,423.241,2.536a4.592,4.592,0,0,0-8.212,0l-57.517,113.77a4.589,4.589,0,0,0,4.108,6.64h12.614a4.581,4.581,0,0,0,4.083-2.507l.663-1.3L419.126,40.2l39.986,78.933h-.1l.634,1.268a4.574,4.574,0,0,0,4.1,2.543h12.592a4.59,4.59,0,0,0,4.108-6.643" transform="translate(483.964 0.003)" fill="#2e3133" fill-rule="evenodd"></path><path id="Path_1834" data-name="Path 1834" d="M110.089,81.584a13.092,13.092,0,1,0-13.3-13.144,13.243,13.243,0,0,0,13.3,13.144m21.7,9.4a15.705,15.705,0,0,1-10.035,4.065c-4.645,0-8.81-2.9-11.768-7.865C98.961,87.131,90.459,79,90.459,68.444c0-10.612,8.552-18.634,19.583-18.634s19.59,8.072,19.59,18.63a18.476,18.476,0,0,1-13.308,17.792c2.006,2.16,4.068,3.431,6.178,3.431,1.952,0,4.38-1.16,6.812-3.066l2.478,4.384Zm35.66-4.068h-6.07V81.434c-1.9,3.9-5.437,5.648-10.028,5.7-6.446,0-10.3-4.119-10.3-10.823V58.835h6.07V74.622c0,4.226,2.482,6.812,6.547,6.812,4.86-.107,7.711-3.854,7.711-8.764V58.846h6.07V86.924Zm31.029-9.87V74.457h-7.6c-3.961,0-5.809,1.053-5.809,3.746,0,2.536,2.059,4.172,5.437,4.172,4.333,0,7.657-2.271,7.972-5.336m.054,6.446c-2.006,2.478-5.229,3.689-9.294,3.689-6.07,0-9.87-3.743-9.87-8.7,0-5.121,3.854-8.395,10.612-8.452h8.495v-.842c0-3.538-2.271-5.648-6.7-5.648a14.816,14.816,0,0,0-8.287,2.851l-2.482-4.219c3.9-2.328,6.758-3.546,12.091-3.546,7.227,0,11.292,3.7,11.346,9.877l.05,18.426h-5.963V83.493Zm46.228-14.043V86.92H238.7V71.133c0-4.226-2.532-6.812-6.758-6.812-4.645.054-7.546,3.27-7.972,7.653V86.909H217.9V58.831h6.07v5.379c2.006-3.9,5.6-5.594,10.35-5.594,6.543,0,10.45,4.119,10.45,10.823" transform="translate(233.508 128.581)" fill="#2e3133" fill-rule="evenodd"></path><path id="Path_1835" data-name="Path 1835" d="M155.228,87.069a13.509,13.509,0,0,1-6.912,2.056c-4.226,0-7.868-2.428-7.868-8.18V66.376H136.49V61.834h3.957V54.127h6.017v7.707h8.287v4.541H146.46V79.834c0,2.9,1.11,3.8,3.008,3.8a9.766,9.766,0,0,0,4.226-1.211l1.529,4.649ZM166.09,60.781h6.017V88.859H166.09Zm6.547-8.022a3.7,3.7,0,1,1,0-.007" transform="translate(352.332 126.634)" fill="#2e3133" fill-rule="evenodd"></path><path id="Path_1836" data-name="Path 1836" d="M168.358,87.069a13.509,13.509,0,0,1-6.912,2.056c-4.226,0-7.868-2.428-7.868-8.18V66.376h-3.961V61.834h3.961V54.127h6.017v7.707h8.287v4.541h-8.287V79.834c0,2.9,1.11,3.8,3.008,3.8a9.753,9.753,0,0,0,4.226-1.211l1.529,4.649Zm27.655-8.08V76.4h-7.607c-3.957,0-5.8,1.053-5.8,3.746,0,2.536,2.056,4.172,5.433,4.172,4.333,0,7.657-2.271,7.976-5.336m.054,6.446c-2.006,2.478-5.229,3.689-9.294,3.689-6.07,0-9.87-3.743-9.87-8.7,0-5.121,3.854-8.395,10.608-8.452h8.5v-.842c0-3.538-2.271-5.648-6.708-5.648a14.817,14.817,0,0,0-8.291,2.851l-2.478-4.219c3.9-2.328,6.754-3.546,12.087-3.546,7.234,0,11.3,3.7,11.353,9.877l.054,18.426h-5.967V85.439Zm35.251,1.637a13.533,13.533,0,0,1-6.919,2.056c-4.226,0-7.865-2.428-7.865-8.18V66.376h-3.957V61.834h3.957V54.127h6.017v7.707h8.287v4.541h-8.284V79.834c0,2.9,1.1,3.8,3.008,3.8a9.752,9.752,0,0,0,4.219-1.211l1.54,4.649Zm10.862-26.287H248.2V88.859h-6.017Zm6.543-8.022a3.7,3.7,0,1,1,0-.007" transform="translate(386.217 126.634)" fill="#2e3133" fill-rule="evenodd"></path><path id="Path_1837" data-name="Path 1837" d="M190.762,86.988,179.882,58.91h6.332l7.815,22.115,7.707-22.119h6.074L197.04,86.984h-6.282Zm44.91-16.152c-.215-4.541-3.223-7.285-7.818-7.285-4.43,0-7.546,2.793-8.23,7.285h16.045Zm5.279,4.434H219.728a8.542,8.542,0,0,0,8.7,7.019,10.929,10.929,0,0,0,7.926-3.27l3.223,3.431A15.28,15.28,0,0,1,227.969,87.2c-8.656,0-14.361-5.755-14.361-14.2,0-8.5,5.863-14.254,14.2-14.308,9.87,0,13.881,6.439,13.144,16.575m55.934-21.689-2.589,5.49a22.081,22.081,0,0,0-10.816-3.431c-3.653,0-6.024,1.372-6.024,3.854,0,8.08,19.948,3.753,19.9,17.054,0,6.6-5.8,10.665-13.939,10.665a22.728,22.728,0,0,1-15.1-5.859l2.693-5.386c3.8,3.485,8.552,5.386,12.513,5.386,4.326,0,6.912-1.637,6.912-4.487,0-8.237-19.956-3.642-19.956-16.786,0-6.332,5.437-10.293,13.466-10.293a24.053,24.053,0,0,1,12.929,3.8" transform="translate(464.343 128.506)" fill="#2e3133" fill-rule="evenodd"></path><path id="Path_1838" data-name="Path 1838" d="M242.226,80.555h-6.07V75.076c-1.9,3.9-5.433,5.648-10.028,5.7-6.439,0-10.289-4.119-10.289-10.823V52.477H221.9V68.264c0,4.226,2.485,6.812,6.554,6.812,4.856-.107,7.7-3.854,7.7-8.764V52.488h6.074V80.566ZM279.9,66.409c0-5.229-3.535-9.079-8.552-9.079s-8.549,3.8-8.549,9.082c0,5.444,3.538,9.186,8.552,9.186s8.552-3.8,8.552-9.183m6.124.215c0,8.391-5.283,14.146-13.3,14.146-4.477,0-7.858-1.791-9.92-5.068v15.1h-6.07V52.488h6.074v4.853c2.063-3.27,5.444-5.068,9.82-5.068,7.969,0,13.409,5.809,13.409,14.361m35.029-.226c0-5.229-3.546-9.079-8.559-9.079s-8.545,3.8-8.545,9.082c0,5.444,3.535,9.186,8.549,9.186s8.559-3.8,8.559-9.183m6.124.215c0,8.391-5.286,14.146-13.308,14.146-4.487,0-7.865-1.791-9.92-5.068v15.1h-6.074V52.488h6.074v4.853c2.056-3.27,5.433-5.068,9.813-5.068,7.972,0,13.412,5.809,13.412,14.361" transform="translate(557.159 134.939)" fill="#2e3133" fill-rule="evenodd"></path><path id="Path_1839" data-name="Path 1839" d="M250.24,49.233h6.074V88.4h-6.071ZM281.864,92.26c-1.744,4.43-4.914,6.647-9.14,6.647a9.492,9.492,0,0,1-6.489-2.374l2.586-4.692a5.958,5.958,0,0,0,3.642,1.368c1.848,0,3.331-1,4.276-3.116l.945-2.113L266.07,60.321h6.289l8.388,21.273,7.815-21.273h6.071L281.86,92.256Zm71.928-35.266-3.642,4.548a14.423,14.423,0,0,0-10.3-4.7,13.012,13.012,0,1,0,0,26.022,15.25,15.25,0,0,0,10.3-4.38l3.7,4.119a21,21,0,0,1-14.308,6.07c-10.827,0-19.218-8.18-19.218-18.791,0-10.508,8.5-18.587,19.422-18.587A20.4,20.4,0,0,1,353.781,57m38.478,13.935V88.41h-6.07V72.623c0-4.226-2.532-6.812-6.758-6.812-5.014.054-8.022,3.8-8.022,8.764V88.4h-6.074V49.237h6.074V65.818c2.006-3.961,5.594-5.705,10.4-5.705,6.547,0,10.458,4.119,10.458,10.823" transform="translate(645.963 127.091)" fill="#2e3133" fill-rule="evenodd"></path><path id="Path_1840" data-name="Path 1840" d="M312.1,78.989V76.4h-7.6c-3.961,0-5.809,1.053-5.809,3.746,0,2.536,2.059,4.172,5.437,4.172,4.333,0,7.653-2.271,7.972-5.336m.054,6.446c-2.006,2.478-5.229,3.689-9.29,3.689-6.071,0-9.874-3.743-9.874-8.7,0-5.121,3.853-8.395,10.612-8.452h8.5v-.842c0-3.538-2.271-5.648-6.7-5.648a14.835,14.835,0,0,0-8.291,2.851l-2.478-4.219c3.9-2.328,6.758-3.546,12.091-3.546,7.227,0,11.292,3.7,11.342,9.877l.057,18.426h-5.967V85.439Zm19.361-24.651h6.017V88.859h-6.017Zm6.547-8.022a2.562,2.562,0,1,1,.007-.007m40.577,18.637V88.867h-6.067V73.08c0-4.226-2.543-6.812-6.762-6.812-4.649.054-7.55,3.27-7.972,7.653V88.856h-6.07V60.778h6.074v5.379c2.006-3.9,5.6-5.594,10.35-5.594,6.543,0,10.447,4.119,10.447,10.823" transform="translate(756.307 126.634)" fill="#2e3133" fill-rule="evenodd"></path><path id="Path_1841" data-name="Path 1841" d="M215.814,0c2.4,0,4.341,1.5,4.341,3.352V129.968c0,3.639-3.807,6.59-8.506,6.59H191.2c-3.474,0-6.289,2.177-6.289,4.871V221.35c0,1.862-1.941,3.366-4.333,3.366H145.325c-2.392,0-4.333-1.5-4.333-3.366V141.428c0-2.693-2.819-4.871-6.292-4.871H120.707c-3.474,0-6.289,2.177-6.289,4.871v27.3c0,1.855-1.945,3.356-4.333,3.356H74.833c-2.392,0-4.333-1.5-4.333-3.359V141.428c0-2.693-2.819-4.871-6.292-4.871h-14c-3.474,0-6.292,2.177-6.292,4.871v45.483c0,1.855-1.941,3.359-4.333,3.359H4.333c-2.392,0-4.333-1.5-4.333-3.359V130.505a6.847,6.847,0,0,1,6.84-6.851H28.955c3.474,0,6.289-2.185,6.289-4.871V35.778c0-1.862,1.948-3.359,4.344-3.359H74.829c2.4,0,4.344,1.5,4.344,3.359v83.016c0,2.686,2.811,4.871,6.289,4.871H99.455c3.474,0,6.285-2.185,6.285-4.871V74.743c0-1.862,1.941-3.367,4.341-3.367h35.241c2.4,0,4.341,1.5,4.341,3.367v44.051c0,2.686,2.811,4.871,6.285,4.871H169.94c3.474,0,6.289-2.185,6.289-4.871V3.349C176.232,1.5,178.173,0,180.573,0Z" transform="translate(0 0.003)" fill-rule="evenodd" fill="url(#linear-gradient)"></path></g></g></svg> 