<?xml version="1.0" encoding="UTF-8" standalone="no"?>
<svg
   xmlns:dc="http://purl.org/dc/elements/1.1/"
   xmlns:cc="http://creativecommons.org/ns#"
   xmlns:rdf="http://www.w3.org/1999/02/22-rdf-syntax-ns#"
   xmlns:svg="http://www.w3.org/2000/svg"
   xmlns="http://www.w3.org/2000/svg"
   xmlns:sodipodi="http://sodipodi.sourceforge.net/DTD/sodipodi-0.dtd"
   xmlns:inkscape="http://www.inkscape.org/namespaces/inkscape"
   viewBox="0 0 1122 793"
   height="793"
   width="1122"
   xml:space="preserve"
   id="svg2"
   version="1.1"
   sodipodi:docname="curiosity-3.svg"
   inkscape:version="0.92.4 (5da689c313, 2019-01-14)"><sodipodi:namedview
     pagecolor="#ffffff"
     bordercolor="#666666"
     borderopacity="1"
     objecttolerance="10"
     gridtolerance="10"
     guidetolerance="10"
     inkscape:pageopacity="0"
     inkscape:pageshadow="2"
     inkscape:window-width="3440"
     inkscape:window-height="1377"
     id="namedview4633"
     showgrid="false"
     inkscape:zoom="1.5233291"
     inkscape:cx="561"
     inkscape:cy="396.5"
     inkscape:window-x="-8"
     inkscape:window-y="-8"
     inkscape:window-maximized="1"
     inkscape:current-layer="svg2" /><metadata
     id="metadata8"><rdf:RDF><cc:Work
         rdf:about=""><dc:format>image/svg+xml</dc:format><dc:type
           rdf:resource="http://purl.org/dc/dcmitype/StillImage" /><dc:title></dc:title></cc:Work></rdf:RDF></metadata><defs
     id="defs6"><clipPath
       id="clipPath22"
       clipPathUnits="userSpaceOnUse"><path
         style="clip-rule:evenodd"
         id="path20"
         d="M 0,2955.9 H 549.602 V 5153.1 H 0 Z" /></clipPath><clipPath
       id="clipPath32"
       clipPathUnits="userSpaceOnUse"><path
         style="clip-rule:evenodd"
         id="path30"
         d="m 549.602,2955.9 h 714 v 2197.2 h -714 z" /></clipPath><clipPath
       id="clipPath42"
       clipPathUnits="userSpaceOnUse"><path
         style="clip-rule:evenodd"
         id="path40"
         d="m 1263.6,2955.9 h 480 v 2197.2 h -480 z" /></clipPath><clipPath
       id="clipPath52"
       clipPathUnits="userSpaceOnUse"><path
         style="clip-rule:evenodd"
         id="path50"
         d="m 1743.6,2955.9 h 315.598 V 5153.1 H 1743.6 Z" /></clipPath><clipPath
       id="clipPath62"
       clipPathUnits="userSpaceOnUse"><path
         style="clip-rule:evenodd"
         id="path60"
         d="m 2059.2,2955.9 h 728.402 V 5153.1 H 2059.2 Z" /></clipPath><clipPath
       id="clipPath72"
       clipPathUnits="userSpaceOnUse"><path
         style="clip-rule:evenodd"
         id="path70"
         d="m 2787.6,2955.9 h 516 v 2197.2 h -516 z" /></clipPath><clipPath
       id="clipPath82"
       clipPathUnits="userSpaceOnUse"><path
         style="clip-rule:evenodd"
         id="path80"
         d="m 3303.6,2955.9 h 315.598 V 5153.1 H 3303.6 Z" /></clipPath><clipPath
       id="clipPath92"
       clipPathUnits="userSpaceOnUse"><path
         style="clip-rule:evenodd"
         id="path90"
         d="m 3619.2,2955.9 h 456 v 2197.2 h -456 z" /></clipPath><clipPath
       id="clipPath102"
       clipPathUnits="userSpaceOnUse"><path
         style="clip-rule:evenodd"
         id="path100"
         d="m 4075.2,2955.9 h 637.199 V 5153.1 H 4075.2 Z" /></clipPath><clipPath
       id="clipPath112"
       clipPathUnits="userSpaceOnUse"><path
         style="clip-rule:evenodd"
         id="path110"
         d="M 4712.4,2955.9 H 6043.2 V 5153.1 H 4712.4 Z" /></clipPath></defs><g
     id="g16"
     transform="matrix(0.13333333,0,0,-0.13333333,0,793)"><g
       clip-path="url(#clipPath22)"
       id="g18"><path
         id="path24"
         style="fill:#f85e1a;fill-opacity:1;fill-rule:nonzero;stroke:none"
         d="m 490.875,3463.95 c -25.199,-20.63 -54,-36.52 -86.25,-47.7 -32.25,-11.25 -65.25,-16.8 -98.926,-16.8 -55.199,0 -105,12.3 -149.398,37.12 -44.403,24.75 -79.1994,58.88 -104.4768,102.38 -25.1992,43.5 -37.875,92.4 -37.875,146.7 0,54.15 12.9024,102.98 38.5508,146.48 25.7266,43.5 60.523,77.62 104.477,102.44 43.949,24.75 91.648,37.13 143.097,37.2 75.75,-0.07 139.875,-21.59 192.227,-64.5 l -35.102,-44.92 c -46.722,36.45 -97.722,54.67 -152.926,54.75 -41.097,-0.08 -78.75,-10.35 -112.875,-30.9 -34.125,-20.63 -61.273,-48.68 -81.375,-84.22 -20.0972,-35.55 -30.148,-74.33 -30.148,-116.33 0,-42.15 10.0508,-80.77 30.148,-115.8 20.102,-35.1 47.704,-62.92 82.801,-83.47 35.102,-20.63 74.102,-30.9 117.074,-30.83 52.352,-0.07 100.579,16.27 144.528,49.13 l 36.449,-40.73 v 0"
         inkscape:connector-curvature="0" /></g></g><g
     id="g26"
     transform="matrix(0.13333333,0,0,-0.13333333,0,793)"><g
       clip-path="url(#clipPath32)"
       id="g28"><path
         id="path34"
         style="fill:#ed8f02;fill-opacity:1;fill-rule:nonzero;stroke:none"
         d="M 1138.73,3959.18 V 3410.7 h -58.88 l -4.2,116.4 c -17.77,-38.4 -48.15,-69.97 -91.201,-94.72 -43.051,-24.75 -88.875,-37.13 -137.472,-37.13 -50.477,0 -91.352,15.15 -122.704,45.52 -31.347,30.38 -47.921,69.91 -49.875,118.58 v 399.83 h 65.926 V 3579 c 1.949,-37.5 13.653,-67.43 35.102,-89.85 21.523,-22.5 52.875,-34.58 93.972,-36.38 35.551,-0.07 69,9.23 100.352,27.98 31.35,18.68 56.32,44.4 75,77.18 18.75,32.7 28.05,69.14 28.05,109.42 v 291.83 h 65.93"
         inkscape:connector-curvature="0" /></g></g><g
     id="g36"
     transform="matrix(0.13333333,0,0,-0.13333333,0,793)"><g
       clip-path="url(#clipPath42)"
       id="g38"><path
         id="path44"
         style="fill:#d92f29;fill-opacity:1;fill-rule:nonzero;stroke:none"
         d="m 1451.55,3828.68 c 19.65,43.95 51.97,78.97 96.83,105.22 44.85,26.1 89.77,39.67 134.62,40.73 l -2.77,-64.58 c -41.1,-0.07 -78.98,-9.23 -113.63,-27.37 -34.58,-18.3 -61.95,-43.5 -82.05,-75.75 -20.1,-32.33 -30.23,-67.66 -30.23,-105.91 V 3410.7 h -65.92 v 548.48 h 57.53 l 5.62,-130.5 v 0"
         inkscape:connector-curvature="0" /></g></g><g
     id="g46"
     transform="matrix(0.13333333,0,0,-0.13333333,0,793)"><g
       clip-path="url(#clipPath52)"
       id="g48"><path
         id="path54"
         style="fill:#f14a89;fill-opacity:1;fill-rule:nonzero;stroke:none"
         d="M 1934.32,3959.18 V 3410.7 h -65.92 v 548.48 z m -79.94,202.2 c 0,13.05 4.94,24 14.69,32.92 9.83,8.85 21.31,13.27 34.36,13.35 13.12,-0.08 24.37,-4.5 33.67,-13.35 9.38,-8.92 14.03,-19.87 14.03,-32.92 0,-14.11 -4.65,-25.58 -14.03,-34.43 -9.3,-8.93 -20.55,-13.35 -33.67,-13.27 -13.05,-0.08 -24.53,4.57 -34.36,13.95 -9.75,9.3 -14.69,20.55 -14.69,33.75 v 0"
         inkscape:connector-curvature="0" /></g></g><g
     id="g56"
     transform="matrix(0.13333333,0,0,-0.13333333,0,793)"><g
       clip-path="url(#clipPath62)"
       id="g58"><path
         id="path64"
         style="fill:#cf3975;fill-opacity:1;fill-rule:nonzero;stroke:none"
         d="m 2130.75,3688.43 c 0,52.27 12.9,100.64 38.55,145.12 25.72,44.4 61.05,79.43 105.9,105.22 44.93,25.66 94.5,38.55 148.73,38.63 54.22,-0.08 103.8,-12.97 148.64,-38.63 44.93,-25.79 80.03,-60.82 105.23,-105.22 25.27,-44.48 37.88,-92.85 37.88,-145.12 0,-53.41 -12.83,-102 -38.55,-145.95 -25.73,-43.96 -60.83,-78.83 -105.23,-104.48 -44.4,-25.8 -94.2,-38.55 -149.4,-38.55 -55.2,0 -105,12.3 -149.4,37.12 -44.4,24.75 -79.2,59.11 -104.47,103.06 -25.2,43.94 -37.88,93.52 -37.88,148.8 z m 65.93,-1.43 c 0,-42.15 10.05,-80.93 30.14,-116.48 20.11,-35.54 47.48,-63.59 82.06,-84.14 34.64,-20.63 72.52,-30.9 113.62,-30.83 41.18,-0.07 79.05,10.2 113.63,30.83 34.64,20.55 61.94,48.6 82.05,84.14 20.09,35.55 30.14,74.33 30.14,116.48 0,42 -10.05,81.07 -30.14,117.07 -20.11,36 -47.41,64.28 -82.05,84.91 -34.58,20.54 -72.45,30.82 -113.63,30.9 -42.07,-0.08 -80.4,-11.11 -115.05,-33 -34.57,-22.06 -61.65,-50.78 -81.3,-86.25 -19.65,-35.56 -29.47,-73.43 -29.47,-113.63 v 0"
         inkscape:connector-curvature="0" /></g></g><g
     id="g66"
     transform="matrix(0.13333333,0,0,-0.13333333,0,793)"><g
       clip-path="url(#clipPath72)"
       id="g68"><path
         id="path74"
         style="fill:#1580b8;fill-opacity:1;fill-rule:nonzero;stroke:none"
         d="m 3041.48,3399.45 c -35.55,0 -69.91,6 -103.13,18.15 -33.15,12.15 -60.08,30.83 -80.62,56.17 l 30.82,43.5 c 18.75,-19.72 41.18,-35.39 67.35,-47.02 26.25,-11.7 53.33,-17.55 81.37,-17.48 35.55,-0.07 65.48,8.11 89.78,24.46 24.3,16.34 36.45,41.84 36.45,76.5 0,24.29 -6.52,43.65 -19.57,58.2 -13.05,14.47 -28.05,25.2 -44.93,32.25 -16.8,6.97 -43.95,16.57 -81.37,28.8 -43.95,14.92 -77.86,33.82 -101.7,56.77 -23.86,22.88 -35.78,53.55 -35.78,91.95 0,44.85 15.67,81.07 47.03,108.68 31.34,27.52 71.32,41.32 119.92,41.39 67.35,-0.07 122.1,-20.62 164.1,-61.72 l -29.47,-46.28 c -13.96,18.61 -32.41,32.18 -55.35,40.66 -22.95,8.39 -46.06,13.05 -69.45,14.02 -28.05,-0.07 -53.48,-7.8 -76.43,-23.18 -22.95,-15.45 -34.43,-37.2 -34.43,-65.17 0,-29.1 10.36,-50.85 30.91,-65.33 20.54,-14.54 51.9,-29.25 93.97,-44.09 51.45,-16.88 90.75,-35.86 117.82,-56.86 27.16,-21.07 40.66,-53.09 40.66,-96.07 0,-50.55 -16.13,-91.27 -48.38,-122.1 -32.25,-30.9 -78.75,-46.2 -139.57,-46.2 v 0"
         inkscape:connector-curvature="0" /></g></g><g
     id="g76"
     transform="matrix(0.13333333,0,0,-0.13333333,0,793)"><g
       clip-path="url(#clipPath82)"
       id="g78"><path
         id="path84"
         style="fill:#136598;fill-opacity:1;fill-rule:nonzero;stroke:none"
         d="M 3494.32,3959.18 V 3410.7 h -65.92 v 548.48 z m -79.94,202.2 c 0,13.05 4.94,24 14.69,32.92 9.83,8.85 21.31,13.27 34.36,13.35 13.12,-0.08 24.37,-4.5 33.67,-13.35 9.38,-8.92 14.03,-19.87 14.03,-32.92 0,-14.11 -4.65,-25.58 -14.03,-34.43 -9.3,-8.93 -20.55,-13.35 -33.67,-13.27 -13.05,-0.08 -24.53,4.57 -34.36,13.95 -9.75,9.3 -14.69,20.55 -14.69,33.75 v 0"
         inkscape:connector-curvature="0" /></g></g><g
     id="g86"
     transform="matrix(0.13333333,0,0,-0.13333333,0,793)"><g
       clip-path="url(#clipPath92)"
       id="g88"><path
         id="path94"
         style="fill:#79a656;fill-opacity:1;fill-rule:nonzero;stroke:none"
         d="m 3866.1,4200.45 v -248.32 h 169.72 v -53.25 H 3866.1 V 3410.7 h -67.35 v 488.18 h -116.48 v 53.25 h 116.48 v 248.32 h 67.35"
         inkscape:connector-curvature="0" /></g></g><g
     id="g96"
     transform="matrix(0.13333333,0,0,-0.13333333,0,793)"><g
       clip-path="url(#clipPath102)"
       id="g98"><path
         id="path104"
         style="fill:#2c9593;fill-opacity:1;fill-rule:nonzero;stroke:none"
         d="m 4672.8,3959.18 -353.55,-812.25 h -68.7 l 117.83,269.32 -253.95,542.93 h 74.39 l 213.23,-467.18 206.18,467.18 h 64.57"
         inkscape:connector-curvature="0" /></g></g><g
     id="g106"
     transform="matrix(0.13333333,0,0,-0.13333333,0,793)"><g
       clip-path="url(#clipPath112)"
       id="g108"><path
         id="path114"
         style="fill:#757070;fill-opacity:1;fill-rule:nonzero;stroke:none"
         d="m 4786.73,3458.4 c 0,12.98 4.72,24.15 14.02,33.53 9.38,9.3 20.1,14.02 32.25,14.09 12.15,-0.07 23.18,-4.79 33,-14.09 9.82,-9.38 14.7,-20.55 14.7,-33.53 0,-13.2 -4.88,-24.45 -14.7,-33.75 -9.82,-9.38 -20.85,-13.95 -33,-13.95 -12.15,0 -22.87,4.35 -32.25,13.28 -9.3,8.84 -14.02,20.32 -14.02,34.42 z m 816.59,500.78 V 3410.7 h -66 v 116.4 c -21.44,-35.62 -54.22,-65.78 -98.17,-90.53 -43.95,-24.82 -91.65,-37.12 -143.1,-37.12 -52.35,0 -99.75,11.85 -142.35,35.7 -42.52,23.85 -76.2,57.53 -100.95,101.03 -24.75,43.42 -37.2,93.22 -37.2,149.47 0,59.78 12.9,111.45 38.55,154.95 25.72,43.42 61.28,76.88 106.65,100.28 45.38,23.32 96.52,35.02 153.52,35.1 44.93,-0.08 87.98,-12.75 129.08,-37.96 41.17,-25.27 72.53,-57.97 93.97,-98.09 l 7.06,119.25 z m -293.25,-503.63 c 61.81,-0.07 114.16,19.05 157.2,57.45 43.05,38.32 66.38,87.45 70.05,147.38 v 78.52 c -11.17,51.37 -38.25,94.35 -81.3,129 -43.04,34.58 -92.09,51.9 -147.29,51.98 -42.08,-0.08 -80.41,-9.68 -115.05,-28.81 -34.58,-19.19 -61.95,-46.34 -82.05,-81.37 -20.11,-35.1 -30.15,-75.52 -30.15,-121.27 0,-42.16 10.34,-81 30.9,-116.48 20.55,-35.55 48.37,-63.9 83.39,-84.9 35.11,-21.07 73.21,-31.57 114.3,-31.5 z m 608.25,503.63 V 3410.7 h -65.92 v 548.48 z m -79.94,202.2 c 0,13.05 4.94,24 14.69,32.92 9.83,8.85 21.31,13.27 34.36,13.35 13.12,-0.08 24.37,-4.5 33.67,-13.35 9.38,-8.92 14.03,-19.87 14.03,-32.92 0,-14.11 -4.65,-25.58 -14.03,-34.43 -9.3,-8.93 -20.55,-13.35 -33.67,-13.27 -13.05,-0.08 -24.53,4.57 -34.36,13.95 -9.75,9.3 -14.69,20.55 -14.69,33.75 v 0"
         inkscape:connector-curvature="0" /></g></g><path
     id="path116"
     style="fill:#29b6a7;fill-opacity:1;fill-rule:evenodd;stroke:none;stroke-width:0.13333333"
     d="m 926.71998,248.64001 63.36,-28.32 4.96,69.12"
     inkscape:connector-curvature="0" /><path
     id="path118"
     style="fill:#29b6a7;fill-opacity:1;fill-rule:nonzero;stroke:none;stroke-width:0.13333333"
     d="m 926.55998,248.64001 63.52,-28.32 4.96,69.28 z m 68.48,40.64 -0.16,0.16 -4.96,-69.12 0.16,0.16 -63.36,28.16 v 0 l 68.32,40.64"
     inkscape:connector-curvature="0" /><path
     id="path120"
     style="fill:#e0a907;fill-opacity:1;fill-rule:evenodd;stroke:none;stroke-width:0.13333333"
     d="m 1009.76,168.80002 -19.68002,51.51999 56.64002,17.28 -0.48,-3.04 -19.68,-42.23999"
     inkscape:connector-curvature="0" /><path
     id="path122"
     style="fill:#e0a907;fill-opacity:1;fill-rule:nonzero;stroke:none;stroke-width:0.13333333"
     d="m 1009.76,168.80002 h 0.16 l -19.84002,51.67999 v -0.16 l 56.64002,17.28 v 0 l -0.64,-3.04 v 0 l -19.52,-42.23999 v 0 z m 16.8,23.36 19.68,42.23999 0.64,3.36 -56.96002,-17.28 19.84002,-51.83999 16.8,23.52"
     inkscape:connector-curvature="0" /><path
     id="path124"
     style="fill:#79a656;fill-opacity:1;fill-rule:evenodd;stroke:none;stroke-width:0.13333333"
     d="m 995.03998,289.44001 52.32002,-48.96 -0.64,-2.88 -56.64002,-17.28 z"
     inkscape:connector-curvature="0" /><path
     id="path126"
     style="fill:#79a656;fill-opacity:1;fill-rule:nonzero;stroke:none;stroke-width:0.13333333"
     d="m 995.03998,289.44001 -0.16,-0.16 52.48002,-48.96 v 0.16 l -0.64,-2.88 v 0.16 l -56.64002,-17.28 v -0.16 z m -5.12,-69.12 56.80002,17.28 0.8,2.88 -52.64002,49.12 -4.96,-69.28"
     inkscape:connector-curvature="0" /><path
     id="path128"
     style="fill:#165381;fill-opacity:1;fill-rule:evenodd;stroke:none;stroke-width:0.13333333"
     d="m 1057.92,308.64001 -62.88002,-19.2 52.32002,-48.96 8.64,42.4 z"
     inkscape:connector-curvature="0" /><path
     id="path130"
     style="fill:#165381;fill-opacity:1;fill-rule:nonzero;stroke:none;stroke-width:0.13333333"
     d="m 1058.08,308.80001 -63.20002,-19.36 52.64002,-49.12 8.64,42.56 z m -2.08,-25.92 v 0 l -8.64,-42.4 h 0.16 l -52.48002,48.96 v -0.16 l 62.88002,19.36 v 0.16 l -1.92,-25.92"
     inkscape:connector-curvature="0" /><path
     id="path132"
     style="fill:#136598;fill-opacity:1;fill-rule:evenodd;stroke:none;stroke-width:0.13333333"
     d="m 1039.52,356.80001 18.88,-40.16 -0.48,-8 -62.88002,-19.2 z"
     inkscape:connector-curvature="0" /><path
     id="path134"
     style="fill:#136598;fill-opacity:1;fill-rule:nonzero;stroke:none;stroke-width:0.13333333"
     d="m 1039.52,356.64001 h -0.16 l 18.88,-40 v 0 l -0.32,-7.84 v 0 l -62.88002,-19.36 v -0.16 z m -44.64002,-67.36 63.20002,19.36 0.32,8 -18.88,40.32 -44.64002,-67.68"
     inkscape:connector-curvature="0" /><path
     id="path136"
     style="fill:#d92f29;fill-opacity:1;fill-rule:evenodd;stroke:none;stroke-width:0.13333333"
     d="m 1058.4,316.64001 1.28,19.68 v 32.64 l -20.16,-12.16 z"
     inkscape:connector-curvature="0" /><path
     id="path138"
     style="fill:#d92f29;fill-opacity:1;fill-rule:nonzero;stroke:none;stroke-width:0.13333333"
     d="m 1058.4,316.32001 1.44,20 v 32.8 l -20.48,-12.32 z m -18.88,40.48 v -0.16 l 20.32,12.16 -0.16,0.16 v -32.64 0 l -1.44,-19.68 h 0.16 l -18.88,40.16"
     inkscape:connector-curvature="0" /><path
     id="path140"
     style="fill:#2c9593;fill-opacity:1;fill-rule:evenodd;stroke:none;stroke-width:0.13333333"
     d="m 995.03998,289.44001 44.48002,67.36 -63.36002,4.8"
     inkscape:connector-curvature="0" /><path
     id="path142"
     style="fill:#2c9593;fill-opacity:1;fill-rule:nonzero;stroke:none;stroke-width:0.13333333"
     d="m 995.03998,289.12001 44.48002,67.68 -63.36002,4.96 z m -18.72,72.64 -0.16,-0.16 63.36002,-4.96 -0.16,0.16 -44.48002,-67.36 h 0.16 l -18.72,72.32"
     inkscape:connector-curvature="0" /><path
     id="path144"
     style="fill:#e0a907;fill-opacity:1;fill-rule:evenodd;stroke:none;stroke-width:0.13333333"
     d="m 926.39998,295.36001 68.64,-5.92 -18.88,72.16"
     inkscape:connector-curvature="0" /><path
     id="path146"
     style="fill:#e0a907;fill-opacity:1;fill-rule:nonzero;stroke:none;stroke-width:0.13333333"
     d="m 926.23998,295.36001 68.8,-6.08 -18.72,72.64 z m 50.08,66.24 h -0.16 l 18.72,-72.32 0.16,0.16 -68.64,6.08 0.16,-0.16 49.76,66.24"
     inkscape:connector-curvature="0" /><path
     id="path148"
     style="fill:#f85e1a;fill-opacity:1;fill-rule:evenodd;stroke:none;stroke-width:0.13333333"
     d="m 926.71998,248.64001 68.32,40.8 -68.64,5.92"
     inkscape:connector-curvature="0" /><path
     id="path150"
     style="fill:#f85e1a;fill-opacity:1;fill-rule:nonzero;stroke:none;stroke-width:0.13333333"
     d="m 926.55998,248.48001 68.64,40.96 -68.8,6.08 z m 0,46.88 h -0.16 l 68.64,-6.08 v 0.16 l -68.32,-40.8 v 0 l -0.16,46.72"
     inkscape:connector-curvature="0" /><path
     id="path152"
     style="fill:#1580b8;fill-opacity:1;fill-rule:evenodd;stroke:none;stroke-width:0.13333333"
     d="m 883.19998,277.12001 43.52,-28.48 -0.32,46.72"
     inkscape:connector-curvature="0" /><path
     id="path154"
     style="fill:#1580b8;fill-opacity:1;fill-rule:nonzero;stroke:none;stroke-width:0.13333333"
     d="m 883.03998,277.12001 43.68,-28.64 -0.16,47.04 z m 43.36,18.24 v 0 l 0.16,-46.72 h 0.16 l -43.52,28.64 v -0.16 l 43.2,18.24"
     inkscape:connector-curvature="0" /><path
     id="path156"
     style="fill:#873b65;fill-opacity:1;fill-rule:evenodd;stroke:none;stroke-width:0.13333333"
     d="m 883.19998,277.12001 43.2,18.24 -35.04,47.04"
     inkscape:connector-curvature="0" /><path
     id="path158"
     style="fill:#873b65;fill-opacity:1;fill-rule:nonzero;stroke:none;stroke-width:0.13333333"
     d="m 883.03998,276.96001 43.52,18.4 -35.36,47.36 z m 8.32,65.44 h -0.16 l 35.2,-47.04 v 0.16 l -43.2,-18.24 0.16,-0.16 8,65.28"
     inkscape:connector-curvature="0" /><path
     id="path160"
     style="fill:#d92f29;fill-opacity:1;fill-rule:evenodd;stroke:none;stroke-width:0.13333333"
     d="m 926.39998,295.36001 6.88,52.64 -20.64,-6.08 -21.28,0.48 z"
     inkscape:connector-curvature="0" /><path
     id="path162"
     style="fill:#d92f29;fill-opacity:1;fill-rule:nonzero;stroke:none;stroke-width:0.13333333"
     d="m 926.39998,295.20001 7.04,52.8 -20.8,-6.08 v 0 l -21.44,0.64 z m -35.04,47.36 v -0.16 l 21.28,-0.64 20.64,6.08 -0.16,0.16 -6.72,-52.64 0.16,0.16 -35.2,47.04"
     inkscape:connector-curvature="0" /><path
     id="path164"
     style="fill:#08507a;fill-opacity:1;fill-rule:evenodd;stroke:none;stroke-width:0.13333333"
     d="m 933.27998,348.00001 4.32,4.96 38.56,8.64 -49.76,-66.24 z"
     inkscape:connector-curvature="0" /><path
     id="path166"
     style="fill:#07496f;fill-opacity:1;fill-rule:nonzero;stroke:none;stroke-width:0.13333333"
     d="m 933.27998,348.00001 v -0.16 l 4.32,4.96 v 0 l 38.56,8.8 v 0.16 l -49.76,-66.24 0.16,-0.16 z m -7.04,-52.96 50.24,66.72 -39.04,-8.8 -4.16,-4.96 -7.04,-52.96"
     inkscape:connector-curvature="0" /><path
     id="path168"
     style="fill:#fdd306;fill-opacity:1;fill-rule:evenodd;stroke:none;stroke-width:0.13333333"
     d="m 937.59998,352.96001 -3.84,2.4 9.6,64.64 32.8,-58.4 z"
     inkscape:connector-curvature="0" /><path
     id="path170"
     style="fill:#fdd306;fill-opacity:1;fill-rule:nonzero;stroke:none;stroke-width:0.13333333"
     d="m 937.43998,352.96001 h 0.16 l -3.68,2.4 v 0 l 9.44,64.64 h -0.16 l 32.96,-58.4 v 0.16 z m 38.88,8.64 -33.12,58.56 -9.44,-64.8 3.68,-2.56 38.88,8.8"
     inkscape:connector-curvature="0" /><path
     id="path172"
     style="fill:#79a656;fill-opacity:1;fill-rule:evenodd;stroke:none;stroke-width:0.13333333"
     d="m 976.15998,361.60001 4.64,58.56 -37.44,-0.16"
     inkscape:connector-curvature="0" /><path
     id="path174"
     style="fill:#79a656;fill-opacity:1;fill-rule:nonzero;stroke:none;stroke-width:0.13333333"
     d="m 976.31998,361.44001 4.64,58.72 -37.76,-0.16 z m -32.96,58.56 v -0.16 l 37.44,0.16 v 0.16 l -4.64,-58.56 0.16,0.16 -32.96,58.24"
     inkscape:connector-curvature="0" /><path
     id="path176"
     style="fill:#1580b8;fill-opacity:1;fill-rule:evenodd;stroke:none;stroke-width:0.13333333"
     d="m 976.15998,361.60001 63.36002,-4.8 -58.72002,63.36"
     inkscape:connector-curvature="0" /><path
     id="path178"
     style="fill:#1580b8;fill-opacity:1;fill-rule:nonzero;stroke:none;stroke-width:0.13333333"
     d="m 976.15998,361.60001 63.52002,-4.96 -58.88002,63.68 z m 4.8,58.56 -0.16,-0.16 58.56002,-63.36 0.16,0.16 -63.36002,4.96 0.16,-0.16 4.64,58.56"
     inkscape:connector-curvature="0" /><path
     id="path180"
     style="fill:#b93369;fill-opacity:1;fill-rule:evenodd;stroke:none;stroke-width:0.13333333"
     d="m 1039.52,356.80001 21.12,37.76 v 23.2 l -79.84002,2.4 z"
     inkscape:connector-curvature="0" /><path
     id="path182"
     style="fill:#b93369;fill-opacity:1;fill-rule:nonzero;stroke:none;stroke-width:0.13333333"
     d="m 1039.52,356.64001 21.28,37.92 -0.16,23.36 -80.00002,2.24 z m -58.56002,63.52 -0.16,-0.16 79.84002,-2.24 h -0.16 l 0.16,-23.2 v 0 l -21.28,-37.76 h 0.16 l -58.56002,63.36"
     inkscape:connector-curvature="0" /><path
     id="path184"
     style="fill:#f85e1a;fill-opacity:1;fill-rule:evenodd;stroke:none;stroke-width:0.13333333"
     d="m 1060.64,394.56001 -0.96,-25.6 -20.16,-12.16"
     inkscape:connector-curvature="0" /><path
     id="path186"
     style="fill:#f85e1a;fill-opacity:1;fill-rule:nonzero;stroke:none;stroke-width:0.13333333"
     d="m 1060.8,394.56001 h -0.16 l -0.96,-25.6 v 0 l -20.32,-12.16 0.16,-0.16 z m -21.6,-38.08 20.64,12.48 0.96,25.92 z"
     inkscape:connector-curvature="0" /><path
     id="path188"
     style="fill:#f44c8a;fill-opacity:1;fill-rule:evenodd;stroke:none;stroke-width:0.13333333"
     d="m 980.79998,420.16001 12.48,32.16 40.16002,-0.16 27.2,-24 v -10.4"
     inkscape:connector-curvature="0" /><path
     id="path190"
     style="fill:#f44c8a;fill-opacity:1;fill-rule:nonzero;stroke:none;stroke-width:0.13333333"
     d="m 980.79998,420.16001 0.16,-0.16 12.32,32.32 v 0 l 40.16002,-0.16 v 0 l 27.2,-24 v 0 l -0.16,-10.4 0.16,0.16 z m 79.84002,-2.4 0.16,10.4 -27.36,24.16 -40.32002,0.16 -12.32,-32.48 79.84002,-2.24"
     inkscape:connector-curvature="0" /><path
     id="path192"
     style="fill:#efb104;fill-opacity:1;fill-rule:evenodd;stroke:none;stroke-width:0.13333333"
     d="m 1060.64,428.16001 -0.8,24.64 -26.4,-0.64"
     inkscape:connector-curvature="0" /><path
     id="path194"
     style="fill:#efb104;fill-opacity:1;fill-rule:nonzero;stroke:none;stroke-width:0.13333333"
     d="m 1060.8,428.00001 -0.8,24.8 -26.72,-0.48 z m -27.36,24.32 v -0.16 l 26.4,0.48 v 0.16 l 0.8,-24.64 0.16,0.16 -27.36,24"
     inkscape:connector-curvature="0" /><path
     id="path196"
     style="fill:#165381;fill-opacity:1;fill-rule:evenodd;stroke:none;stroke-width:0.13333333"
     d="m 993.27998,452.32001 -29.76,0.16 17.28,-32.32"
     inkscape:connector-curvature="0" /><path
     id="path198"
     style="fill:#165381;fill-opacity:1;fill-rule:nonzero;stroke:none;stroke-width:0.13333333"
     d="m 993.27998,452.48001 -29.92,0.16 17.6,-32.8 z m -12.48,-32.32 h 0.16 l -17.44,32.32 v 0 l 29.76,-0.16 h -0.16 l -12.32,-32.16"
     inkscape:connector-curvature="0" /><path
     id="path200"
     style="fill:#2679ba;fill-opacity:1;fill-rule:evenodd;stroke:none;stroke-width:0.13333333"
     d="m 946.71998,452.16001 16.8,0.32 17.28,-32.32 -37.44,-0.16 z"
     inkscape:connector-curvature="0" /><path
     id="path202"
     style="fill:#2679ba;fill-opacity:1;fill-rule:nonzero;stroke:none;stroke-width:0.13333333"
     d="m 946.87998,452.16001 h -0.16 l 16.8,0.32 h -0.16 l 17.44,-32.48 v 0.16 l -37.44,-0.16 v 0 z m -3.68,-32.32 37.76,0.16 -17.44,32.64 -16.8,-0.32 -3.52,-32.48"
     inkscape:connector-curvature="0" /><path
     id="path204"
     style="fill:#cd3874;fill-opacity:1;fill-rule:evenodd;stroke:none;stroke-width:0.13333333"
     d="m 946.71998,452.16001 -15.84,0.16 -34.24,-46.88 46.72,14.56 z"
     inkscape:connector-curvature="0" /><path
     id="path206"
     style="fill:#cd3874;fill-opacity:1;fill-rule:nonzero;stroke:none;stroke-width:0.13333333"
     d="m 946.87998,452.32001 -16,0.16 -34.4,-47.2 46.88,14.56 z m -3.68,-32.32 v 0 l -46.56,-14.56 v 0 l 34.4,46.88 h -0.16 l 15.84,-0.16 v 0 l -3.52,-32.16"
     inkscape:connector-curvature="0" /><path
     id="path208"
     style="fill:#f14a89;fill-opacity:1;fill-rule:evenodd;stroke:none;stroke-width:0.13333333"
     d="m 930.87998,452.32001 h -47.04 l -5.6,-5.92 18.4,-40.96 z"
     inkscape:connector-curvature="0" /><path
     id="path210"
     style="fill:#f14a89;fill-opacity:1;fill-rule:nonzero;stroke:none;stroke-width:0.13333333"
     d="m 931.03998,452.48001 h -47.2 l -5.6,-6.08 18.4,-41.12 z m -34.4,-47.04 h 0.16 l -18.4,41.12 v -0.16 l 5.6,5.92 h -0.16 47.04 v 0 l -34.24,-46.88"
     inkscape:connector-curvature="0" /><path
     id="path212"
     style="fill:#1580b8;fill-opacity:1;fill-rule:evenodd;stroke:none;stroke-width:0.13333333"
     d="m 878.23998,446.40001 -23.36,-23.2 14.08,-12.64 27.68,-5.12 z"
     inkscape:connector-curvature="0" /><path
     id="path214"
     style="fill:#1580b8;fill-opacity:1;fill-rule:nonzero;stroke:none;stroke-width:0.13333333"
     d="m 878.23998,446.56001 -23.36,-23.36 14.08,-12.8 27.84,-5.12 z m 18.4,-41.12 v 0 l -27.68,5.12 v 0 l -13.92,12.8 v -0.16 l 23.36,23.2 h -0.16 l 18.4,-40.96"
     inkscape:connector-curvature="0" /><path
     id="path216"
     style="fill:#f44c8a;fill-opacity:1;fill-rule:evenodd;stroke:none;stroke-width:0.13333333"
     d="m 868.95998,410.56001 26.08,-23.68 1.6,18.56"
     inkscape:connector-curvature="0" /><path
     id="path218"
     style="fill:#f44c8a;fill-opacity:1;fill-rule:nonzero;stroke:none;stroke-width:0.13333333"
     d="m 868.63998,410.56001 26.4,-23.84 1.76,18.72 z m 28,-5.28 v 0.16 l -1.76,-18.56 0.16,0.16 -26.08,23.52 v -0.16 l 27.68,-5.12"
     inkscape:connector-curvature="0" /><path
     id="path220"
     style="fill:#f09102;fill-opacity:1;fill-rule:evenodd;stroke:none;stroke-width:0.13333333"
     d="m 933.75998,355.36001 9.6,64.64 -46.72,-14.56 33.92,-47.68 z"
     inkscape:connector-curvature="0" /><path
     id="path222"
     style="fill:#f09102;fill-opacity:1;fill-rule:nonzero;stroke:none;stroke-width:0.13333333"
     d="m 933.91998,355.20001 9.44,64.96 -46.88,-14.72 33.92,-47.68 z m -3.36,2.72 v 0 l -33.92,47.52 v -0.16 l 46.72,14.56 -0.16,0.16 -9.44,-64.64 h 0.16 l -3.36,2.56"
     inkscape:connector-curvature="0" /><path
     id="path224"
     style="fill:#efb104;fill-opacity:1;fill-rule:evenodd;stroke:none;stroke-width:0.13333333"
     d="m 930.55998,357.76001 -15.36,10.72 -20.16,18.4 1.6,18.56 z"
     inkscape:connector-curvature="0" /><path
     id="path226"
     style="fill:#efb104;fill-opacity:1;fill-rule:nonzero;stroke:none;stroke-width:0.13333333"
     d="m 930.39998,357.76001 0.16,0.16 -15.36,10.72 v 0 l -20.16,18.4 v -0.16 l 1.76,18.56 h -0.16 z m -33.76,47.84 -1.76,-18.72 20.32,-18.4 15.68,-11.04 -34.24,48.16"
     inkscape:connector-curvature="0" /><path
     id="path228"
     style="fill:#cd3874;fill-opacity:1;fill-rule:evenodd;stroke:none;stroke-width:0.13333333"
     d="m 1009.76,168.80002 -2.56,-3.36 -66.40002,3.68 -1.44,2.24 50.72,48.95999"
     inkscape:connector-curvature="0" /><path
     id="path230"
     style="fill:#cd3874;fill-opacity:1;fill-rule:nonzero;stroke:none;stroke-width:0.13333333"
     d="m 1009.76,168.80002 v 0 l -2.56,-3.36 v 0 l -66.40002,3.68 h 0.16 l -1.6,2.4 v -0.16 l 50.72,48.95999 h -0.16 z m -19.68002,51.67999 -50.88,-49.11999 1.6,-2.4 66.40002,-3.68 2.72,3.52 -19.84002,51.67999"
     inkscape:connector-curvature="0" /><path
     id="path232"
     style="fill:#f14a89;fill-opacity:1;fill-rule:evenodd;stroke:none;stroke-width:0.13333333"
     d="m 939.35998,171.36002 50.72,48.95999 -63.36,28.32 8.96,-74.55999 1.92,0.96"
     inkscape:connector-curvature="0" /><path
     id="path234"
     style="fill:#f14a89;fill-opacity:1;fill-rule:nonzero;stroke:none;stroke-width:0.13333333"
     d="m 939.35998,171.20002 50.88,49.11999 -63.68,28.48 8.96,-74.71999 2.24,0.96 h -0.16 z m -1.6,4 -2.24,-0.96 0.16,-0.16 -8.96,74.55999 v -0.16 l 63.36,-28.16 v 0.16 l -50.88,-48.95999 0.16,-0.16 -1.6,3.84"
     inkscape:connector-curvature="0" /><path
     id="path236"
     style="fill:#1580b8;fill-opacity:1;fill-rule:evenodd;stroke:none;stroke-width:0.13333333"
     d="m 911.19998,175.04002 17.76,-4 6.72,3.04 -8.96,74.55999 -21.92,-41.92 15.04,-9.6"
     inkscape:connector-curvature="0" /><path
     id="path238"
     style="fill:#1580b8;fill-opacity:1;fill-rule:nonzero;stroke:none;stroke-width:0.13333333"
     d="m 911.03998,174.88002 17.92,-4 6.72,3.2 -8.96,74.87999 -22.08,-42.4 15.2,-9.6 v 0.16 z m 8.96,22.23999 -15.2,9.6 v -0.16 l 21.92,42.08 h -0.16 l 8.96,-74.55999 v 0.16 l -6.56,-3.2 h 0.16 l -17.92,4 v -0.16 l 8.8,22.23999"
     inkscape:connector-curvature="0" /><path
     id="path240"
     style="fill:#f44c8a;fill-opacity:1;fill-rule:evenodd;stroke:none;stroke-width:0.13333333"
     d="m 911.19998,175.04002 -5.28,-14.4 23.04,10.4"
     inkscape:connector-curvature="0" /><path
     id="path242"
     style="fill:#f44c8a;fill-opacity:1;fill-rule:nonzero;stroke:none;stroke-width:0.13333333"
     d="m 911.19998,175.04002 -5.28,-14.56 23.36,10.56 z m 17.76,-4.16 v 0.16 l -23.04,-10.4 0.16,-0.16 5.12,14.4 v 0 l 17.76,-4"
     inkscape:connector-curvature="0" /><path
     id="path244"
     style="fill:#165381;fill-opacity:1;fill-rule:evenodd;stroke:none;stroke-width:0.13333333"
     d="m 904.79998,206.72001 21.92,41.92 -34.08,-8.32 -0.64,-23.04 4.48,-5.6"
     inkscape:connector-curvature="0" /><path
     id="path246"
     style="fill:#165381;fill-opacity:1;fill-rule:nonzero;stroke:none;stroke-width:0.13333333"
     d="m 904.79998,206.56001 22.08,42.24 -34.24,-8.48 -0.8,-23.2 4.64,-5.44 z m -8.32,5.28 h 0.16 l -4.64,5.44 v 0 l 0.8,23.04 -0.16,-0.16 34.08,8.32 -0.16,0.16 -21.92,-41.92 h 0.16 l -8.32,5.12"
     inkscape:connector-curvature="0" /><path
     id="path248"
     style="fill:#2679ba;fill-opacity:1;fill-rule:evenodd;stroke:none;stroke-width:0.13333333"
     d="m 876.95998,235.68001 15.68,4.64 -0.64,-23.04"
     inkscape:connector-curvature="0" /><path
     id="path250"
     style="fill:#2679ba;fill-opacity:1;fill-rule:nonzero;stroke:none;stroke-width:0.13333333"
     d="m 876.95998,235.68001 v -0.16 l 15.68,4.64 v 0.16 l -0.8,-23.04 h 0.16 z m 15.04,-18.72 0.8,23.36 -16,-4.64 z"
     inkscape:connector-curvature="0" /><path
     id="path252"
     style="fill:#b93369;fill-opacity:1;fill-rule:evenodd;stroke:none;stroke-width:0.13333333"
     d="m 892.63998,240.32001 -9.44,36.8 43.52,-28.48"
     inkscape:connector-curvature="0" /><path
     id="path254"
     style="fill:#b93369;fill-opacity:1;fill-rule:nonzero;stroke:none;stroke-width:0.13333333"
     d="m 892.63998,240.32001 h 0.16 l -9.44,36.8 h -0.16 l 43.52,-28.48 v 0 z m 34.24,8.32 -43.84,28.64 9.6,-37.12 z"
     inkscape:connector-curvature="0" /><path
     id="path256"
     style="fill:#fdd306;fill-opacity:1;fill-rule:evenodd;stroke:none;stroke-width:0.13333333"
     d="m 876.95998,235.68001 -13.44,21.44 -0.48,4.48 20.16,15.52 9.44,-36.8"
     inkscape:connector-curvature="0" /><path
     id="path258"
     style="fill:#fdd306;fill-opacity:1;fill-rule:nonzero;stroke:none;stroke-width:0.13333333"
     d="m 876.79998,235.68001 h 0.16 l -13.44,21.44 v 0 l -0.32,4.48 -0.16,-0.16 20.16,15.68 v 0 l 9.44,-36.8 v 0 z m 16,4.48 -9.6,37.12 -20.16,-15.68 0.32,-4.48 13.44,-21.6 16,4.64"
     inkscape:connector-curvature="0" /><path
     id="path260"
     style="fill:#e0a907;fill-opacity:1;fill-rule:evenodd;stroke:none;stroke-width:0.13333333"
     d="m 863.03998,261.60001 20.16,15.52 -40.64,15.04 20.32,-24.48 z"
     inkscape:connector-curvature="0" /><path
     id="path262"
     style="fill:#e0a907;fill-opacity:1;fill-rule:nonzero;stroke:none;stroke-width:0.13333333"
     d="m 863.03998,261.44001 20.32,15.68 -40.96,15.2 20.48,-24.64 v 0 z m 0,6.24 -20.32,24.48 -0.16,-0.16 40.64,-14.88 v 0.16 l -20.16,-15.68 h 0.16 l -0.16,6.08"
     inkscape:connector-curvature="0" /><path
     id="path264"
     style="fill:#2c9593;fill-opacity:1;fill-rule:evenodd;stroke:none;stroke-width:0.13333333"
     d="m 842.55998,292.16001 12,23.52 6.88,7.52 29.92,19.2 -8.16,-65.28"
     inkscape:connector-curvature="0" /><path
     id="path266"
     style="fill:#2c9593;fill-opacity:1;fill-rule:nonzero;stroke:none;stroke-width:0.13333333"
     d="m 842.55998,292.16001 h 0.16 l 11.84,23.52 v 0 l 6.88,7.52 v 0 l 29.92,19.2 h -0.16 l -8,-65.28 v 0.16 z m 40.64,-15.04 8.16,65.44 -30.08,-19.2 -6.88,-7.68 -11.84,-23.68 40.64,-14.88"
     inkscape:connector-curvature="0" /><path
     id="path268"
     style="fill:#79a656;fill-opacity:1;fill-rule:evenodd;stroke:none;stroke-width:0.13333333"
     d="m 891.35998,342.40001 -11.84,0.32 -18.08,-19.52"
     inkscape:connector-curvature="0" /><path
     id="path270"
     style="fill:#79a656;fill-opacity:1;fill-rule:nonzero;stroke:none;stroke-width:0.13333333"
     d="m 891.51998,342.56001 -12,0.32 -18.56,-20 z m -30.24,-19.2 0.16,-0.16 18.08,19.52 v 0 l 11.84,-0.32 -0.16,0.16 -29.92,-19.2"
     inkscape:connector-curvature="0" /><path
     id="path272"
     style="fill:#f09102;fill-opacity:1;fill-rule:evenodd;stroke:none;stroke-width:0.13333333"
     d="m 940.79998,169.12002 2.72,-4.48 -0.48,-1.92 34.56,-34.72 29.60002,37.44"
     inkscape:connector-curvature="0" /><path
     id="path274"
     style="fill:#f09102;fill-opacity:1;fill-rule:nonzero;stroke:none;stroke-width:0.13333333"
     d="m 940.63998,169.12002 2.88,-4.48 v 0 l -0.64,-1.92 34.72,-34.72 29.76002,37.44 z m 66.56002,-3.84 v 0.16 l -29.60002,-37.28 v 0 l -34.56,34.72 v -0.16 l 0.64,1.92 -2.72,4.48 -0.16,-0.16 66.40002,-3.68"
     inkscape:connector-curvature="0" /><path
     id="path276"
     style="fill:#d92f29;fill-opacity:1;fill-rule:evenodd;stroke:none;stroke-width:0.13333333"
     d="m 943.03998,162.72002 -3.84,-43.84 -0.32,-36.480002 38.72,45.600002 z"
     inkscape:connector-curvature="0" /><path
     id="path278"
     style="fill:#d92f29;fill-opacity:1;fill-rule:nonzero;stroke:none;stroke-width:0.13333333"
     d="m 942.87998,162.88002 -3.84,-44 -0.16,-36.800002 38.88,45.920002 z m 34.72,-34.88 v 0.16 l -38.72,-45.760002 h 0.16 l 0.16,36.480002 v 0 l 3.84,43.84 v 0 l 34.56,-34.72"
     inkscape:connector-curvature="0" /></svg>