<?xml version="1.0" encoding="UTF-8" standalone="no"?>
<!-- Created with Inkscape (http://www.inkscape.org/) -->

<svg
   xmlns:dc="http://purl.org/dc/elements/1.1/"
   xmlns:cc="http://creativecommons.org/ns#"
   xmlns:rdf="http://www.w3.org/1999/02/22-rdf-syntax-ns#"
   xmlns:svg="http://www.w3.org/2000/svg"
   xmlns="http://www.w3.org/2000/svg"
   xmlns:sodipodi="http://sodipodi.sourceforge.net/DTD/sodipodi-0.dtd"
   xmlns:inkscape="http://www.inkscape.org/namespaces/inkscape"
   width="48"
   height="48"
   viewBox="0 0 12.7 12.7"
   version="1.1"
   id="svg3948"
   inkscape:version="0.92.3 (2405546, 2018-03-11)"
   sodipodi:docname="icon.svg"
   inkscape:export-filename="icon512.png"
   inkscape:export-xdpi="1024"
   inkscape:export-ydpi="1024">
  <defs
     id="defs3942" />
  <sodipodi:namedview
     id="base"
     pagecolor="#ffffff"
     bordercolor="#666666"
     borderopacity="1.0"
     inkscape:pageopacity="0.0"
     inkscape:pageshadow="2"
     inkscape:zoom="16"
     inkscape:cx="13.453955"
     inkscape:cy="23.817376"
     inkscape:document-units="mm"
     inkscape:current-layer="layer1"
     showgrid="false"
     units="px"
     inkscape:window-width="1920"
     inkscape:window-height="1017"
     inkscape:window-x="-8"
     inkscape:window-y="-8"
     inkscape:window-maximized="1" />
  <metadata
     id="metadata3945">
    <rdf:RDF>
      <cc:Work
         rdf:about="">
        <dc:format>image/svg+xml</dc:format>
        <dc:type
           rdf:resource="http://purl.org/dc/dcmitype/StillImage" />
        <dc:title />
      </cc:Work>
    </rdf:RDF>
  </metadata>
  <g
     inkscape:label="Layer 1"
     inkscape:groupmode="layer"
     id="layer1"
     transform="translate(0,-284.3)">
    <g
       transform="matrix(0.451066,0,0,0.451066,-26.859732,95.289363)"
       id="g3923">
      <rect
         inkscape:export-ydpi="340.96338"
         inkscape:export-xdpi="340.96338"
         inkscape:export-filename=".\scisharp_icon_transparent.png"
         style="opacity:1;vector-effect:none;fill:none;fill-opacity:1;fill-rule:nonzero;stroke:none;stroke-width:0.15074058;stroke-linecap:butt;stroke-linejoin:miter;stroke-miterlimit:4;stroke-dasharray:none;stroke-dashoffset:0;stroke-opacity:1"
         id="rect1787-9-6-2-2-1"
         width="28.155525"
         height="28.155525"
         x="59.547234"
         y="419.03104" />
      <g
         inkscape:export-ydpi="340.96338"
         inkscape:export-xdpi="340.96338"
         inkscape:export-filename=".\scisharp_icon_transparent.png"
         transform="translate(1.6310404,104.21038)"
         id="g2332">
        <path
           style="color:#000000;font-style:normal;font-variant:normal;font-weight:normal;font-stretch:normal;font-size:medium;line-height:normal;font-family:sans-serif;font-variant-ligatures:normal;font-variant-position:normal;font-variant-caps:normal;font-variant-numeric:normal;font-variant-alternates:normal;font-feature-settings:normal;text-indent:0;text-align:start;text-decoration:none;text-decoration-line:none;text-decoration-style:solid;text-decoration-color:#000000;letter-spacing:normal;word-spacing:normal;text-transform:none;writing-mode:lr-tb;direction:ltr;text-orientation:mixed;dominant-baseline:auto;baseline-shift:baseline;text-anchor:start;white-space:normal;shape-padding:0;clip-rule:nonzero;display:inline;overflow:visible;visibility:visible;opacity:1;isolation:auto;mix-blend-mode:normal;color-interpolation:sRGB;color-interpolation-filters:linearRGB;solid-color:#000000;solid-opacity:1;vector-effect:none;fill:#661f76;fill-opacity:1;fill-rule:nonzero;stroke:none;stroke-width:2.70910239;stroke-linecap:butt;stroke-linejoin:miter;stroke-miterlimit:4;stroke-dasharray:none;stroke-dashoffset:0;stroke-opacity:1;color-rendering:auto;image-rendering:auto;shape-rendering:auto;text-rendering:auto;enable-background:accumulate"
           d="M 24 3.765625 C 20.438175 3.7724443 16.897368 4.0637863 13.488281 4.6308594 L 12.996094 4.7148438 L 12.675781 5.0976562 C 10.462962 7.7350413 8.4201559 10.620422 6.609375 13.667969 C 4.7251778 16.844417 3.1115323 20.158056 1.8300781 23.498047 L 1.6445312 23.982422 L 1.8300781 24.466797 C 3.1090552 27.817204 4.718861 31.139863 6.6054688 34.328125 L 6.6054688 34.332031 L 6.609375 34.332031 C 8.4162979 37.374191 10.452366 40.254696 12.660156 42.888672 L 12.982422 43.273438 L 13.474609 43.355469 C 16.886847 43.927861 20.43239 44.223754 24 44.234375 L 24.003906 44.234375 L 24.007812 44.234375 C 27.567365 44.227556 31.102852 43.935856 34.509766 43.369141 L 35.005859 43.285156 L 35.324219 42.902344 C 37.539201 40.265504 39.585338 37.380192 41.398438 34.332031 L 41.398438 34.328125 C 43.280558 31.151131 44.890837 27.839497 46.169922 24.5 L 46.353516 24.017578 L 46.169922 23.533203 C 44.893316 20.183273 43.286877 16.860683 41.402344 13.671875 L 41.398438 13.667969 C 39.589191 10.625247 37.547839 7.7447068 35.337891 5.1113281 L 35.017578 4.7285156 L 34.525391 4.6445312 C 31.115325 4.0725142 27.573146 3.776587 24.007812 3.765625 L 24.003906 3.765625 L 24 3.765625 z "
           transform="matrix(0.58657344,0,0,0.58657344,57.916192,314.82062)"
           id="path926-1-2-6-4-6-5-2-9-6-0-6-4" />
        <g
           id="g2136-2-6"
           transform="translate(53.243956,48.914615)">
          <path
             style="color:#000000;font-style:normal;font-variant:normal;font-weight:normal;font-stretch:normal;font-size:medium;line-height:normal;font-family:sans-serif;font-variant-ligatures:normal;font-variant-position:normal;font-variant-caps:normal;font-variant-numeric:normal;font-variant-alternates:normal;font-feature-settings:normal;text-indent:0;text-align:start;text-decoration:none;text-decoration-line:none;text-decoration-style:solid;text-decoration-color:#000000;letter-spacing:normal;word-spacing:normal;text-transform:none;writing-mode:lr-tb;direction:ltr;text-orientation:mixed;dominant-baseline:auto;baseline-shift:baseline;text-anchor:start;white-space:normal;shape-padding:0;clip-rule:nonzero;display:inline;overflow:visible;visibility:visible;opacity:1;isolation:auto;mix-blend-mode:normal;color-interpolation:sRGB;color-interpolation-filters:linearRGB;solid-color:#000000;solid-opacity:1;vector-effect:none;fill:#865fc5;fill-opacity:1;fill-rule:nonzero;stroke:none;stroke-width:1.4881916;stroke-linecap:butt;stroke-linejoin:miter;stroke-miterlimit:4;stroke-dasharray:none;stroke-dashoffset:0;stroke-opacity:1;color-rendering:auto;image-rendering:auto;shape-rendering:auto;text-rendering:auto;enable-background:accumulate"
             d="m 18.75,268.86914 c -1.956618,0.004 -3.900722,0.1631 -5.773438,0.47461 l -0.271484,0.0449 -0.177734,0.21094 c -1.215569,1.4488 -2.337314,3.03487 -3.3320315,4.70898 -1.0350463,1.74492 -1.9191059,3.56564 -2.6230469,5.40039 l -0.1035156,0.26563 0.1015625,0.26562 c 0.7025799,1.8405 1.5886291,3.66656 2.625,5.41797 v 0.002 c 0.9925975,1.67114 2.1114145,3.25425 3.3242185,4.70117 l 0.177735,0.20898 0.269531,0.0469 c 1.874445,0.31443 3.823407,0.47659 5.783203,0.48242 h 0.002 c 1.95537,-0.004 3.899965,-0.16525 5.771485,-0.47656 l 0.271484,-0.0449 0.175781,-0.20898 c 1.216757,-1.44849 2.339947,-3.03454 3.335938,-4.70898 v -0.002 c 1.033905,-1.74521 1.918454,-3.56395 2.621093,-5.39843 l 0.101563,-0.26563 -0.101563,-0.26562 c -0.701277,-1.84023 -1.583909,-3.66626 -2.61914,-5.41797 l -0.002,-0.002 c -0.993874,-1.67146 -2.114134,-3.25457 -3.328125,-4.70117 l -0.175782,-0.21094 -0.271484,-0.0449 c -1.873252,-0.31422 -3.818799,-0.4764 -5.777344,-0.48242 h -0.002 z m -0.002,1.48828 h 0.0039 c 1.781829,0.006 3.545667,0.16684 5.25,0.4375 1.091995,1.32441 2.120887,2.75228 3.025391,4.27344 0.942083,1.59428 1.728378,3.25733 2.380859,4.92383 -0.653584,1.66112 -1.440121,3.31811 -2.380859,4.90625 -0.906518,1.52402 -1.936673,2.95499 -3.03125,4.28125 -1.702668,0.26804 -3.463391,0.42778 -5.242188,0.43164 -1.784371,-0.005 -3.551068,-0.1684 -5.257812,-0.43945 -1.090582,-1.32428 -2.11837,-2.75116 -3.021485,-4.27149 v -0.002 c -0.9428329,-1.59352 -1.7311936,-3.25563 -2.3847652,-4.92188 0.654994,-1.66195 1.4425871,-3.31984 2.3847652,-4.9082 0.905335,-1.52368 1.942718,-2.94864 3.036207,-4.27516 1.703789,-0.26821 3.457263,-0.4321 5.237231,-0.43578 z"
             id="path926-1-2-6-4-6-5-2-9-6-0-6"
             inkscape:connector-curvature="0"
             sodipodi:nodetypes="ccccccccccccccccccccccccccccccccccccccccccccccc" />
          <g
             aria-label="#"
             style="font-style:normal;font-weight:normal;font-size:19.89817238px;line-height:1.25;font-family:sans-serif;letter-spacing:0px;word-spacing:0px;opacity:1;vector-effect:none;fill:#ffffff;fill-opacity:1;stroke:none;stroke-width:1.97651362;stroke-linecap:butt;stroke-linejoin:miter;stroke-miterlimit:4;stroke-dasharray:none;stroke-dashoffset:0;stroke-opacity:1"
             id="text1024-3-5-6-6-6-5-7-9-9-2-4">
            <path
               d="m 24.996652,278.16206 h -3.235397 l -0.893863,3.65318 h 2.992499 v 1.31165 h -3.332555 l -1.010455,4.0904 H 18.26353 l 1.010454,-4.0904 H 16.65069 l -1.010454,4.0904 h -1.253352 l 1.010454,-4.0904 h -2.89534 v -1.31165 h 3.235397 l 0.893863,-3.65318 h -2.992499 v -1.31164 h 3.332556 l 1.020169,-4.10012 h 1.253352 l -1.02017,4.10012 h 2.623294 l 1.02017,-4.10012 h 1.253352 l -1.02017,4.10012 h 2.89534 z m -4.459601,-0.0194 h -2.662157 l -0.913295,3.69204 h 2.662157 z"
               style="vector-effect:none;fill:#ffffff;fill-opacity:1;stroke:none;stroke-width:1.97651362;stroke-linecap:butt;stroke-linejoin:miter;stroke-miterlimit:4;stroke-dasharray:none;stroke-dashoffset:0;stroke-opacity:1"
               id="path821" />
          </g>
          <path
             inkscape:connector-curvature="0"
             id="path926-1-2-6-4-6-5-2-9-5-2-4-9"
             d="m 18.750997,268.87325 c -1.956618,0.004 -3.900723,0.1631 -5.773438,0.47461 l -0.271484,0.0449 0.804688,1.40039 c 1.702053,-0.26768 3.462214,-0.42796 5.240234,-0.43164 h 0.0039 c 1.782454,0.006 3.545117,0.16665 5.25,0.4375 1.091427,1.32372 2.11929,2.7512 3.023438,4.27149 0.94292,1.59551 1.729961,3.2599 2.382812,4.92773 -0.0013,0.003 -0.0026,0.007 -0.0039,0.01 l 1.615235,0.008 0.0078,-0.0176 -0.101563,-0.26562 c -0.701268,-1.84026 -1.583909,-3.66626 -2.619141,-5.41797 v -0.002 h -0.002 c -0.993823,-1.67146 -2.114083,-3.25458 -3.328075,-4.70118 l -0.175781,-0.21093 -0.271484,-0.0449 c -1.873252,-0.31422 -3.818799,-0.4764 -5.777344,-0.48242 h -0.002 z"
             style="color:#000000;font-style:normal;font-variant:normal;font-weight:normal;font-stretch:normal;font-size:medium;line-height:normal;font-family:sans-serif;font-variant-ligatures:normal;font-variant-position:normal;font-variant-caps:normal;font-variant-numeric:normal;font-variant-alternates:normal;font-feature-settings:normal;text-indent:0;text-align:start;text-decoration:none;text-decoration-line:none;text-decoration-style:solid;text-decoration-color:#000000;letter-spacing:normal;word-spacing:normal;text-transform:none;writing-mode:lr-tb;direction:ltr;text-orientation:mixed;dominant-baseline:auto;baseline-shift:baseline;text-anchor:start;white-space:normal;shape-padding:0;clip-rule:nonzero;display:inline;overflow:visible;visibility:visible;opacity:1;isolation:auto;mix-blend-mode:normal;color-interpolation:sRGB;color-interpolation-filters:linearRGB;solid-color:#000000;solid-opacity:1;vector-effect:none;fill:#3fc6ee;fill-opacity:1;fill-rule:nonzero;stroke:none;stroke-width:1.4881916;stroke-linecap:butt;stroke-linejoin:miter;stroke-miterlimit:4;stroke-dasharray:none;stroke-dashoffset:0;stroke-opacity:1;color-rendering:auto;image-rendering:auto;shape-rendering:auto;text-rendering:auto;enable-background:accumulate" />
        </g>
      </g>
    </g>
  </g>
</svg>
