<?xml version="1.0" encoding="UTF-8" standalone="no"?>
<!-- Created with Inkscape (http://www.inkscape.org/) -->

<svg
   xmlns:dc="http://purl.org/dc/elements/1.1/"
   xmlns:cc="http://creativecommons.org/ns#"
   xmlns:rdf="http://www.w3.org/1999/02/22-rdf-syntax-ns#"
   xmlns:svg="http://www.w3.org/2000/svg"
   xmlns="http://www.w3.org/2000/svg"
   xmlns:sodipodi="http://sodipodi.sourceforge.net/DTD/sodipodi-0.dtd"
   xmlns:inkscape="http://www.inkscape.org/namespaces/inkscape"
   width="339.37881mm"
   height="190.83043mm"
   viewBox="0 0 339.37881 190.83042"
   version="1.1"
   id="svg2755"
   inkscape:version="0.92.3 (2405546, 2018-03-11)"
   sodipodi:docname="scisharp_title.svg"
   inkscape:export-filename="SciSharp1024.png"
   inkscape:export-xdpi="834.69354"
   inkscape:export-ydpi="834.69354">
  <defs
     id="defs2749" />
  <sodipodi:namedview
     id="base"
     pagecolor="#ffffff"
     bordercolor="#666666"
     borderopacity="1.0"
     inkscape:pageopacity="0.0"
     inkscape:pageshadow="2"
     inkscape:zoom="0.70710679"
     inkscape:cx="543.62132"
     inkscape:cy="317.36211"
     inkscape:document-units="mm"
     inkscape:current-layer="layer1"
     showgrid="false"
     fit-margin-top="0"
     fit-margin-left="0"
     fit-margin-right="0"
     fit-margin-bottom="0"
     inkscape:window-width="1920"
     inkscape:window-height="1017"
     inkscape:window-x="-8"
     inkscape:window-y="-8"
     inkscape:window-maximized="1"
     showguides="true"
     inkscape:guide-bbox="true" />
  <metadata
     id="metadata2752">
    <rdf:RDF>
      <cc:Work
         rdf:about="">
        <dc:format>image/svg+xml</dc:format>
        <dc:type
           rdf:resource="http://purl.org/dc/dcmitype/StillImage" />
        <dc:title />
      </cc:Work>
    </rdf:RDF>
  </metadata>
  <g
     inkscape:label="Layer 1"
     inkscape:groupmode="layer"
     id="layer1"
     transform="translate(178.56538,90.652534)">
    <rect
       style="opacity:1;vector-effect:none;fill:#661f76;fill-opacity:1;fill-rule:nonzero;stroke:none;stroke-width:9.46370602;stroke-linecap:butt;stroke-linejoin:miter;stroke-miterlimit:4;stroke-dasharray:none;stroke-dashoffset:0;stroke-opacity:1"
       id="rect1107-9-4-2-0-9-8-1-0"
       width="340.22253"
       height="190.75922"
       x="-178.5654"
       y="-90.591621"
       ry="0" />
    <g
       id="g930"
       transform="translate(-3.4290152,9.3544334)">
      <g
         transform="matrix(2.8896082,0,0,2.8936217,225.43134,-1293.1417)"
         aria-label="SciSharp"
         style="font-style:normal;font-variant:normal;font-weight:300;font-stretch:normal;font-size:19.58213997px;line-height:1.25;font-family:Calibri;-inkscape-font-specification:'Calibri Light';font-variant-ligatures:normal;font-variant-position:normal;font-variant-caps:normal;font-variant-numeric:normal;font-variant-alternates:normal;font-feature-settings:normal;text-indent:0;text-align:start;text-decoration:none;text-decoration-line:none;text-decoration-style:solid;text-decoration-color:#000000;letter-spacing:0px;word-spacing:0px;text-transform:none;writing-mode:lr-tb;direction:ltr;text-orientation:mixed;dominant-baseline:auto;baseline-shift:baseline;text-anchor:start;white-space:normal;shape-padding:0;opacity:1;vector-effect:none;fill:#ffffff;fill-opacity:1;stroke:none;stroke-width:4.54705524;stroke-linecap:butt;stroke-linejoin:miter;stroke-miterlimit:4;stroke-dasharray:none;stroke-dashoffset:0;stroke-opacity:1"
         id="text1082-7-6-0-5-1-6-3-8">
        <path
           d="m -120.09727,437.56955 q 0,0.8223 -0.29641,1.47249 -0.29641,0.65018 -0.83186,1.10914 -0.53545,0.44939 -1.27169,0.68843 -0.73624,0.23904 -1.60635,0.23904 -0.59281,0 -1.1187,-0.11473 -0.52589,-0.10518 -0.93704,-0.25817 -0.41115,-0.15298 -0.69799,-0.30597 -0.27729,-0.16255 -0.38247,-0.26772 -0.10517,-0.11474 -0.15298,-0.25817 -0.0478,-0.15298 -0.0478,-0.3729 0,-0.16255 0.0191,-0.26772 0.0191,-0.10518 0.0478,-0.17211 0.0382,-0.0669 0.0861,-0.0861 0.0574,-0.0287 0.11474,-0.0287 0.13387,0 0.37291,0.17211 0.2486,0.16254 0.63106,0.36334 0.39203,0.19123 0.92748,0.36334 0.54501,0.16255 1.26213,0.16255 0.58325,0 1.07089,-0.15299 0.48765,-0.16255 0.84142,-0.45896 0.35378,-0.29641 0.54501,-0.72668 0.2008,-0.43983 0.2008,-0.9944 0,-0.5737 -0.2486,-0.98485 -0.2486,-0.41114 -0.65975,-0.71712 -0.40159,-0.31553 -0.91792,-0.56413 -0.51632,-0.25816 -1.06133,-0.50676 -0.53545,-0.25817 -1.05178,-0.55458 -0.51632,-0.29641 -0.92747,-0.68843 -0.40159,-0.40159 -0.65019,-0.93704 -0.2486,-0.53545 -0.2486,-1.27169 0,-0.71712 0.25816,-1.28125 0.25816,-0.5737 0.72668,-0.96572 0.46852,-0.40159 1.11871,-0.61194 0.65975,-0.21036 1.4438,-0.21036 0.39202,0 0.79361,0.0765 0.40159,0.0765 0.75537,0.2008 0.36334,0.11474 0.64062,0.26772 0.28685,0.14342 0.37291,0.23904 0.0956,0.0861 0.11473,0.13386 0.0287,0.0383 0.0478,0.10518 0.0191,0.0669 0.0287,0.16255 0.01,0.0861 0.01,0.21991 0,0.12431 -0.0191,0.22948 -0.01,0.0956 -0.0383,0.17211 -0.0287,0.0669 -0.0765,0.10518 -0.0383,0.0383 -0.0956,0.0383 -0.10518,0 -0.32509,-0.13387 -0.21036,-0.14342 -0.53545,-0.31553 -0.3251,-0.17211 -0.77449,-0.30597 -0.4494,-0.14342 -1.02309,-0.14342 -0.56414,0 -0.98485,0.15298 -0.42071,0.15299 -0.69799,0.42071 -0.27729,0.25816 -0.42071,0.61194 -0.13386,0.35378 -0.13386,0.74581 0,0.57369 0.2486,0.98484 0.2486,0.41115 0.65975,0.72668 0.41115,0.31553 0.92747,0.5737 0.52589,0.2486 1.06134,0.50676 0.54501,0.2486 1.06133,0.54501 0.52589,0.28685 0.93704,0.68844 0.41115,0.39202 0.65975,0.92747 0.2486,0.52589 0.2486,1.25257 z"
           style="font-style:normal;font-variant:normal;font-weight:300;font-stretch:normal;font-size:19.58213997px;line-height:1.25;font-family:Calibri;-inkscape-font-specification:'Calibri Light';font-variant-ligatures:normal;font-variant-position:normal;font-variant-caps:normal;font-variant-numeric:normal;font-variant-alternates:normal;font-feature-settings:normal;text-indent:0;text-align:start;text-decoration:none;text-decoration-line:none;text-decoration-style:solid;text-decoration-color:#000000;letter-spacing:0px;word-spacing:0px;text-transform:none;writing-mode:lr-tb;direction:ltr;text-orientation:mixed;dominant-baseline:auto;text-anchor:start;white-space:normal;shape-padding:0;vector-effect:none;fill:#ffffff;fill-opacity:1;stroke:none;stroke-width:4.54705524;stroke-linecap:butt;stroke-linejoin:miter;stroke-miterlimit:4;stroke-dasharray:none;stroke-dashoffset:0;stroke-opacity:1"
           id="path827"
           inkscape:connector-curvature="0" />
        <path
           d="m -111.65438,439.44362 q 0,0.11474 -0.01,0.21036 -0.01,0.0861 -0.0287,0.15298 -0.0191,0.0669 -0.0574,0.1243 -0.0287,0.0478 -0.15298,0.17211 -0.1243,0.1243 -0.42071,0.31553 -0.28685,0.19124 -0.65019,0.33466 -0.36334,0.14342 -0.78405,0.22948 -0.42071,0.0956 -0.87011,0.0956 -0.89879,0 -1.59678,-0.29641 -0.68844,-0.30597 -1.15696,-0.88922 -0.46851,-0.59282 -0.71712,-1.4438 -0.23903,-0.86055 -0.23903,-1.97925 0,-1.26213 0.2964,-2.16092 0.30598,-0.89879 0.83186,-1.47249 0.52589,-0.57369 1.22389,-0.84142 0.70755,-0.27728 1.51073,-0.27728 0.43027,0 0.8223,0.0861 0.39202,0.0765 0.71711,0.21036 0.33466,0.13386 0.59282,0.30597 0.25817,0.1721 0.37291,0.29641 0.1243,0.11473 0.16254,0.18167 0.0478,0.0574 0.0669,0.13386 0.0287,0.0765 0.0383,0.17211 0.01,0.0861 0.01,0.21035 0,0.27729 -0.0861,0.39203 -0.0765,0.10517 -0.17211,0.10517 -0.13386,0 -0.33466,-0.1721 -0.19123,-0.17211 -0.4972,-0.37291 -0.30597,-0.21035 -0.7458,-0.38246 -0.43028,-0.17211 -1.03266,-0.17211 -1.243,0 -1.92188,0.95616 -0.66931,0.95616 -0.66931,2.7633 0,0.90835 0.18167,1.59679 0.18167,0.67887 0.51633,1.13783 0.34422,0.44939 0.83186,0.67887 0.48764,0.21992 1.09958,0.21992 0.5737,0 1.01353,-0.18167 0.43983,-0.18167 0.76493,-0.40159 0.32509,-0.21992 0.53545,-0.40159 0.21991,-0.18167 0.32509,-0.18167 0.0574,0 0.0956,0.0383 0.0478,0.0287 0.0765,0.10518 0.0287,0.0669 0.0382,0.1721 0.0191,0.0956 0.0191,0.22948 z"
           style="font-style:normal;font-variant:normal;font-weight:300;font-stretch:normal;font-size:19.58213997px;line-height:1.25;font-family:Calibri;-inkscape-font-specification:'Calibri Light';font-variant-ligatures:normal;font-variant-position:normal;font-variant-caps:normal;font-variant-numeric:normal;font-variant-alternates:normal;font-feature-settings:normal;text-indent:0;text-align:start;text-decoration:none;text-decoration-line:none;text-decoration-style:solid;text-decoration-color:#000000;letter-spacing:0px;word-spacing:0px;text-transform:none;writing-mode:lr-tb;direction:ltr;text-orientation:mixed;dominant-baseline:auto;text-anchor:start;white-space:normal;shape-padding:0;vector-effect:none;fill:#ffffff;fill-opacity:1;stroke:none;stroke-width:4.54705524;stroke-linecap:butt;stroke-linejoin:miter;stroke-miterlimit:4;stroke-dasharray:none;stroke-dashoffset:0;stroke-opacity:1"
           id="path829"
           inkscape:connector-curvature="0" />
        <path
           d="m -108.22177,440.72488 q 0,0.0574 -0.0287,0.10517 -0.0287,0.0478 -0.0956,0.0765 -0.0574,0.0287 -0.17211,0.0478 -0.10518,0.0191 -0.27729,0.0191 -0.16254,0 -0.27728,-0.0191 -0.10518,-0.0191 -0.17211,-0.0478 -0.0669,-0.0287 -0.0956,-0.0765 -0.0191,-0.0478 -0.0191,-0.10517 v -8.65325 q 0,-0.0574 0.0191,-0.10517 0.0287,-0.0478 0.0956,-0.0765 0.0669,-0.0382 0.17211,-0.0478 0.11474,-0.0191 0.27728,-0.0191 0.17211,0 0.27729,0.0191 0.11474,0.01 0.17211,0.0478 0.0669,0.0287 0.0956,0.0765 0.0287,0.0478 0.0287,0.10517 z m 0.17211,-11.56953 q 0,0.45896 -0.16255,0.6215 -0.16255,0.16255 -0.59282,0.16255 -0.42071,0 -0.58326,-0.15299 -0.15298,-0.16254 -0.15298,-0.6215 0,-0.45896 0.16255,-0.6215 0.16254,-0.16255 0.59281,-0.16255 0.42071,0 0.5737,0.16255 0.16255,0.15298 0.16255,0.61194 z"
           style="font-style:normal;font-variant:normal;font-weight:300;font-stretch:normal;font-size:19.58213997px;line-height:1.25;font-family:Calibri;-inkscape-font-specification:'Calibri Light';font-variant-ligatures:normal;font-variant-position:normal;font-variant-caps:normal;font-variant-numeric:normal;font-variant-alternates:normal;font-feature-settings:normal;text-indent:0;text-align:start;text-decoration:none;text-decoration-line:none;text-decoration-style:solid;text-decoration-color:#000000;letter-spacing:0px;word-spacing:0px;text-transform:none;writing-mode:lr-tb;direction:ltr;text-orientation:mixed;dominant-baseline:auto;text-anchor:start;white-space:normal;shape-padding:0;vector-effect:none;fill:#ffffff;fill-opacity:1;stroke:none;stroke-width:4.54705524;stroke-linecap:butt;stroke-linejoin:miter;stroke-miterlimit:4;stroke-dasharray:none;stroke-dashoffset:0;stroke-opacity:1"
           id="path831"
           inkscape:connector-curvature="0" />
        <path
           d="m -98.564563,437.56955 q 0,0.8223 -0.296409,1.47249 -0.29641,0.65018 -0.831859,1.10914 -0.535449,0.44939 -1.271689,0.68843 -0.73624,0.23904 -1.60635,0.23904 -0.59282,0 -1.11871,-0.11473 -0.52588,-0.10518 -0.93703,-0.25817 -0.41115,-0.15298 -0.698,-0.30597 -0.27728,-0.16255 -0.38246,-0.26772 -0.10518,-0.11474 -0.15299,-0.25817 -0.0478,-0.15298 -0.0478,-0.3729 0,-0.16255 0.0191,-0.26772 0.0191,-0.10518 0.0478,-0.17211 0.0382,-0.0669 0.0861,-0.0861 0.0574,-0.0287 0.11474,-0.0287 0.13386,0 0.3729,0.17211 0.2486,0.16254 0.63107,0.36334 0.39202,0.19123 0.92747,0.36334 0.54501,0.16255 1.26213,0.16255 0.58326,0 1.0709,-0.15299 0.48764,-0.16255 0.84142,-0.45896 0.35378,-0.29641 0.54501,-0.72668 0.200793,-0.43983 0.200793,-0.9944 0,-0.5737 -0.248603,-0.98485 -0.2486,-0.41114 -0.65975,-0.71712 -0.40158,-0.31553 -0.91791,-0.56413 -0.51633,-0.25816 -1.06134,-0.50676 -0.53545,-0.25817 -1.05177,-0.55458 -0.51633,-0.29641 -0.92748,-0.68843 -0.40158,-0.40159 -0.65019,-0.93704 -0.2486,-0.53545 -0.2486,-1.27169 0,-0.71712 0.25817,-1.28125 0.25816,-0.5737 0.72668,-0.96572 0.46852,-0.40159 1.1187,-0.61194 0.65975,-0.21036 1.4438,-0.21036 0.39203,0 0.79362,0.0765 0.40158,0.0765 0.75536,0.2008 0.36334,0.11474 0.640629,0.26772 0.286847,0.14342 0.372902,0.23904 0.09562,0.0861 0.114739,0.13386 0.02869,0.0383 0.04781,0.10518 0.01912,0.0669 0.02869,0.16255 0.0096,0.0861 0.0096,0.21991 0,0.12431 -0.01912,0.22948 -0.0096,0.0956 -0.03825,0.17211 -0.02869,0.0669 -0.07649,0.10518 -0.03825,0.0383 -0.09562,0.0383 -0.105178,0 -0.325094,-0.13387 -0.210356,-0.14342 -0.535456,-0.31553 -0.32509,-0.17211 -0.77449,-0.30597 -0.44939,-0.14342 -1.02309,-0.14342 -0.56413,0 -0.98484,0.15298 -0.42071,0.15299 -0.698,0.42071 -0.27728,0.25816 -0.42071,0.61194 -0.13386,0.35378 -0.13386,0.74581 0,0.57369 0.2486,0.98484 0.2486,0.41115 0.65975,0.72668 0.41115,0.31553 0.92748,0.5737 0.52588,0.2486 1.06133,0.50676 0.54501,0.2486 1.06134,0.54501 0.525892,0.28685 0.93704,0.68844 0.411148,0.39202 0.65975,0.92747 0.248601,0.52589 0.248601,1.25257 z"
           style="font-style:normal;font-variant:normal;font-weight:300;font-stretch:normal;font-size:19.58213997px;line-height:1.25;font-family:Calibri;-inkscape-font-specification:'Calibri Light';font-variant-ligatures:normal;font-variant-position:normal;font-variant-caps:normal;font-variant-numeric:normal;font-variant-alternates:normal;font-feature-settings:normal;text-indent:0;text-align:start;text-decoration:none;text-decoration-line:none;text-decoration-style:solid;text-decoration-color:#000000;letter-spacing:0px;word-spacing:0px;text-transform:none;writing-mode:lr-tb;direction:ltr;text-orientation:mixed;dominant-baseline:auto;text-anchor:start;white-space:normal;shape-padding:0;vector-effect:none;fill:#ffffff;fill-opacity:1;stroke:none;stroke-width:4.54705524;stroke-linecap:butt;stroke-linejoin:miter;stroke-miterlimit:4;stroke-dasharray:none;stroke-dashoffset:0;stroke-opacity:1"
           id="path833"
           inkscape:connector-curvature="0" />
        <path
           d="m -89.146395,440.72488 q 0,0.0574 -0.02868,0.10517 -0.02869,0.0478 -0.09562,0.0765 -0.05737,0.0287 -0.172109,0.0478 -0.105177,0.0191 -0.267724,0.0191 -0.172109,0 -0.286848,-0.0191 -0.105178,-0.0191 -0.172109,-0.0478 -0.05737,-0.0287 -0.08605,-0.0765 -0.02868,-0.0478 -0.02868,-0.10517 v -5.13458 q 0,-0.80317 -0.124301,-1.30038 -0.1243,-0.50676 -0.372902,-0.86054 -0.248601,-0.36334 -0.640626,-0.55457 -0.382464,-0.20079 -0.89879,-0.20079 -0.65975,0 -1.3195,0.46851 -0.65975,0.46852 -1.386431,1.37687 v 6.20548 q 0,0.0574 -0.02868,0.10517 -0.02868,0.0478 -0.09562,0.0765 -0.05737,0.0287 -0.172109,0.0478 -0.105177,0.0191 -0.277286,0.0191 -0.162547,0 -0.277286,-0.0191 -0.105178,-0.0191 -0.172109,-0.0478 -0.06693,-0.0287 -0.09562,-0.0765 -0.01912,-0.0478 -0.01912,-0.10517 v -12.88903 q 0,-0.0574 0.01912,-0.10518 0.02869,-0.0478 0.09562,-0.0765 0.06693,-0.0383 0.172109,-0.0478 0.114739,-0.0191 0.277286,-0.0191 0.172109,0 0.277286,0.0191 0.114739,0.01 0.172109,0.0478 0.06693,0.0287 0.09562,0.0765 0.02868,0.0478 0.02868,0.10518 v 5.4023 q 0.707558,-0.78405 1.415116,-1.14739 0.707558,-0.3729 1.415116,-0.3729 0.850981,0 1.434238,0.28684 0.583258,0.28685 0.937036,0.77449 0.363341,0.48764 0.516326,1.13783 0.162547,0.65019 0.162547,1.5681 z"
           style="font-style:normal;font-variant:normal;font-weight:300;font-stretch:normal;font-size:19.58213997px;line-height:1.25;font-family:Calibri;-inkscape-font-specification:'Calibri Light';font-variant-ligatures:normal;font-variant-position:normal;font-variant-caps:normal;font-variant-numeric:normal;font-variant-alternates:normal;font-feature-settings:normal;text-indent:0;text-align:start;text-decoration:none;text-decoration-line:none;text-decoration-style:solid;text-decoration-color:#000000;letter-spacing:0px;word-spacing:0px;text-transform:none;writing-mode:lr-tb;direction:ltr;text-orientation:mixed;dominant-baseline:auto;text-anchor:start;white-space:normal;shape-padding:0;vector-effect:none;fill:#ffffff;fill-opacity:1;stroke:none;stroke-width:4.54705524;stroke-linecap:butt;stroke-linejoin:miter;stroke-miterlimit:4;stroke-dasharray:none;stroke-dashoffset:0;stroke-opacity:1"
           id="path835"
           inkscape:connector-curvature="0" />
        <path
           d="m -79.929021,440.72488 q 0,0.0956 -0.06693,0.15298 -0.05737,0.0478 -0.162547,0.0669 -0.09562,0.0287 -0.267725,0.0287 -0.162547,0 -0.277286,-0.0287 -0.114739,-0.0191 -0.18167,-0.0669 -0.05737,-0.0574 -0.05737,-0.15298 v -0.96573 q -0.583257,0.63107 -1.290815,0.97529 -0.697996,0.34421 -1.453362,0.34421 -0.678873,0 -1.223884,-0.1721 -0.535449,-0.18167 -0.908351,-0.50677 -0.372902,-0.33465 -0.573695,-0.80317 -0.200794,-0.46852 -0.200794,-1.05178 0,-0.71712 0.29641,-1.243 0.296409,-0.53545 0.84142,-0.88923 0.54501,-0.35378 1.309938,-0.52589 0.764927,-0.18167 1.701963,-0.18167 h 1.376869 v -0.7458 q 0,-0.55458 -0.114739,-0.97529 -0.114739,-0.43027 -0.372902,-0.71712 -0.258163,-0.28684 -0.669311,-0.43027 -0.411149,-0.14342 -1.003967,-0.14342 -0.573696,0 -1.032652,0.14342 -0.458957,0.13386 -0.803174,0.30597 -0.344217,0.17211 -0.573696,0.31554 -0.219916,0.13386 -0.315532,0.13386 -0.05737,0 -0.105178,-0.0191 -0.04781,-0.0191 -0.08605,-0.0669 -0.02868,-0.0574 -0.04781,-0.13386 -0.0096,-0.0861 -0.0096,-0.20079 0,-0.2008 0.02868,-0.31553 0.02868,-0.12431 0.143424,-0.23904 0.124301,-0.12431 0.430272,-0.28685 0.305971,-0.16255 0.697996,-0.29641 0.401587,-0.14343 0.860543,-0.22948 0.458957,-0.0861 0.917913,-0.0861 0.889228,0 1.50117,0.21991 0.611942,0.21036 0.984844,0.61194 0.382464,0.40159 0.545011,0.99441 0.162547,0.58326 0.162547,1.32906 z m -1.13783,-4.0828 h -1.577662 q -0.688435,0 -1.204761,0.1243 -0.516326,0.1243 -0.860543,0.36334 -0.344217,0.23904 -0.516326,0.57369 -0.162547,0.33466 -0.162547,0.76493 0,0.7458 0.468518,1.1952 0.478079,0.43983 1.338623,0.43983 0.678873,0 1.26213,-0.34422 0.592818,-0.35377 1.252568,-1.08046 z"
           style="font-style:normal;font-variant:normal;font-weight:300;font-stretch:normal;font-size:19.58213997px;line-height:1.25;font-family:Calibri;-inkscape-font-specification:'Calibri Light';font-variant-ligatures:normal;font-variant-position:normal;font-variant-caps:normal;font-variant-numeric:normal;font-variant-alternates:normal;font-feature-settings:normal;text-indent:0;text-align:start;text-decoration:none;text-decoration-line:none;text-decoration-style:solid;text-decoration-color:#000000;letter-spacing:0px;word-spacing:0px;text-transform:none;writing-mode:lr-tb;direction:ltr;text-orientation:mixed;dominant-baseline:auto;text-anchor:start;white-space:normal;shape-padding:0;vector-effect:none;fill:#ffffff;fill-opacity:1;stroke:none;stroke-width:4.54705524;stroke-linecap:butt;stroke-linejoin:miter;stroke-miterlimit:4;stroke-dasharray:none;stroke-dashoffset:0;stroke-opacity:1"
           id="path837"
           inkscape:connector-curvature="0" />
        <path
           d="m -71.973775,432.51147 q 0,0.14342 -0.0096,0.2486 -0.0096,0.0956 -0.03825,0.16255 -0.01912,0.0574 -0.05737,0.0956 -0.02868,0.0287 -0.08606,0.0287 -0.08605,0 -0.200793,-0.0383 -0.114739,-0.0478 -0.267725,-0.0956 -0.152985,-0.0478 -0.334655,-0.0861 -0.18167,-0.0478 -0.401587,-0.0478 -0.258163,0 -0.506764,0.11474 -0.248602,0.10518 -0.525888,0.35378 -0.267725,0.23904 -0.573696,0.64063 -0.296409,0.40158 -0.659749,0.98484 v 5.8517 q 0,0.0574 -0.02868,0.10517 -0.02869,0.0478 -0.09562,0.0765 -0.05737,0.0287 -0.172109,0.0478 -0.105177,0.0191 -0.277286,0.0191 -0.162547,0 -0.277286,-0.0191 -0.105178,-0.0191 -0.172109,-0.0478 -0.06693,-0.0287 -0.09562,-0.0765 -0.01912,-0.0478 -0.01912,-0.10517 v -8.65325 q 0,-0.0574 0.01912,-0.10517 0.02868,-0.0478 0.09562,-0.0765 0.06693,-0.0382 0.162547,-0.0478 0.105178,-0.0191 0.267725,-0.0191 0.162547,0 0.267725,0.0191 0.105177,0.01 0.162547,0.0478 0.05737,0.0287 0.07649,0.0765 0.02868,0.0478 0.02868,0.10517 v 1.36731 q 0.372902,-0.54501 0.688435,-0.87966 0.315532,-0.33466 0.60238,-0.51633 0.286848,-0.19123 0.554572,-0.25816 0.277286,-0.0669 0.564134,-0.0669 0.124301,0 0.286848,0.0191 0.162547,0.01 0.344217,0.0478 0.191232,0.0382 0.334656,0.0956 0.152985,0.0478 0.210355,0.0956 0.05737,0.0383 0.07649,0.0765 0.01912,0.0287 0.02868,0.0861 0.01912,0.0478 0.01912,0.14342 0.0096,0.0861 0.0096,0.22948 z"
           style="font-style:normal;font-variant:normal;font-weight:300;font-stretch:normal;font-size:19.58213997px;line-height:1.25;font-family:Calibri;-inkscape-font-specification:'Calibri Light';font-variant-ligatures:normal;font-variant-position:normal;font-variant-caps:normal;font-variant-numeric:normal;font-variant-alternates:normal;font-feature-settings:normal;text-indent:0;text-align:start;text-decoration:none;text-decoration-line:none;text-decoration-style:solid;text-decoration-color:#000000;letter-spacing:0px;word-spacing:0px;text-transform:none;writing-mode:lr-tb;direction:ltr;text-orientation:mixed;dominant-baseline:auto;text-anchor:start;white-space:normal;shape-padding:0;vector-effect:none;fill:#ffffff;fill-opacity:1;stroke:none;stroke-width:4.54705524;stroke-linecap:butt;stroke-linejoin:miter;stroke-miterlimit:4;stroke-dasharray:none;stroke-dashoffset:0;stroke-opacity:1"
           id="path839"
           inkscape:connector-curvature="0" />
        <path
           d="m -62.450429,436.26917 q 0,1.10915 -0.248601,1.99838 -0.23904,0.88922 -0.717119,1.51073 -0.468518,0.6215 -1.166515,0.96572 -0.697996,0.33465 -1.596785,0.33465 -0.382464,0 -0.71712,-0.0861 -0.334656,-0.0765 -0.65975,-0.2486 -0.315532,-0.17211 -0.640626,-0.43027 -0.315533,-0.25817 -0.669312,-0.62151 v 4.46527 q 0,0.0574 -0.02868,0.10517 -0.02868,0.0478 -0.09561,0.0765 -0.05737,0.0382 -0.172109,0.0478 -0.105178,0.0191 -0.277286,0.0191 -0.162547,0 -0.277286,-0.0191 -0.105178,-0.01 -0.172109,-0.0478 -0.06693,-0.0287 -0.09562,-0.0765 -0.01912,-0.0478 -0.01912,-0.10517 v -12.08586 q 0,-0.0669 0.01912,-0.11473 0.02868,-0.0478 0.08605,-0.0765 0.06693,-0.0287 0.162547,-0.0382 0.105178,-0.0191 0.248602,-0.0191 0.143424,0 0.23904,0.0191 0.09562,0.01 0.162547,0.0382 0.06693,0.0287 0.09562,0.0765 0.02868,0.0478 0.02868,0.11473 v 1.25257 q 0.401587,-0.41115 0.764928,-0.70755 0.36334,-0.30598 0.726681,-0.50677 0.36334,-0.20079 0.745804,-0.29641 0.382463,-0.0956 0.812735,-0.0956 0.937036,0 1.596786,0.36334 0.65975,0.35378 1.070898,0.97528 0.42071,0.6215 0.60238,1.45336 0.191232,0.8223 0.191232,1.75933 z m -1.195199,0.18167 q 0,-0.72668 -0.114739,-1.39599 -0.114739,-0.67887 -0.392025,-1.20476 -0.267725,-0.52589 -0.726681,-0.84142 -0.449395,-0.31553 -1.137829,-0.31553 -0.344218,0 -0.678873,0.0956 -0.325095,0.0956 -0.669312,0.31554 -0.344217,0.21991 -0.717119,0.57369 -0.372902,0.34422 -0.784051,0.86055 v 3.76726 q 0.71712,0.87011 1.367308,1.33863 0.65975,0.45895 1.376869,0.45895 0.65975,0 1.128268,-0.31553 0.478079,-0.32509 0.774489,-0.84142 0.296409,-0.52589 0.430271,-1.17608 0.143424,-0.65975 0.143424,-1.3195 z"
           style="font-style:normal;font-variant:normal;font-weight:300;font-stretch:normal;font-size:19.58213997px;line-height:1.25;font-family:Calibri;-inkscape-font-specification:'Calibri Light';font-variant-ligatures:normal;font-variant-position:normal;font-variant-caps:normal;font-variant-numeric:normal;font-variant-alternates:normal;font-feature-settings:normal;text-indent:0;text-align:start;text-decoration:none;text-decoration-line:none;text-decoration-style:solid;text-decoration-color:#000000;letter-spacing:0px;word-spacing:0px;text-transform:none;writing-mode:lr-tb;direction:ltr;text-orientation:mixed;dominant-baseline:auto;text-anchor:start;white-space:normal;shape-padding:0;vector-effect:none;fill:#ffffff;fill-opacity:1;stroke:none;stroke-width:4.54705524;stroke-linecap:butt;stroke-linejoin:miter;stroke-miterlimit:4;stroke-dasharray:none;stroke-dashoffset:0;stroke-opacity:1"
           id="path841"
           inkscape:connector-curvature="0" />
      </g>
      <g
         id="g2390-1-1"
         transform="matrix(2.8896082,0,0,2.8936217,41.353181,-990.00465)">
        <g
           id="g2136-6-7-8"
           transform="translate(2.1606054,49.500006)">
          <path
             style="color:#000000;font-style:normal;font-variant:normal;font-weight:normal;font-stretch:normal;font-size:medium;line-height:normal;font-family:sans-serif;font-variant-ligatures:normal;font-variant-position:normal;font-variant-caps:normal;font-variant-numeric:normal;font-variant-alternates:normal;font-feature-settings:normal;text-indent:0;text-align:start;text-decoration:none;text-decoration-line:none;text-decoration-style:solid;text-decoration-color:#000000;letter-spacing:normal;word-spacing:normal;text-transform:none;writing-mode:lr-tb;direction:ltr;text-orientation:mixed;dominant-baseline:auto;baseline-shift:baseline;text-anchor:start;white-space:normal;shape-padding:0;clip-rule:nonzero;display:inline;overflow:visible;visibility:visible;opacity:1;isolation:auto;mix-blend-mode:normal;color-interpolation:sRGB;color-interpolation-filters:linearRGB;solid-color:#000000;solid-opacity:1;vector-effect:none;fill:#865fc5;fill-opacity:1;fill-rule:nonzero;stroke:none;stroke-width:1.4881916;stroke-linecap:butt;stroke-linejoin:miter;stroke-miterlimit:4;stroke-dasharray:none;stroke-dashoffset:0;stroke-opacity:1;color-rendering:auto;image-rendering:auto;shape-rendering:auto;text-rendering:auto;enable-background:accumulate"
             d="m 18.75,268.86914 c -1.956618,0.004 -3.900722,0.1631 -5.773438,0.47461 l -0.271484,0.0449 -0.177734,0.21094 c -1.215569,1.4488 -2.337314,3.03487 -3.3320315,4.70898 -1.0350463,1.74492 -1.9191059,3.56564 -2.6230469,5.40039 l -0.1035156,0.26563 0.1015625,0.26562 c 0.7025799,1.8405 1.5886291,3.66656 2.625,5.41797 v 0.002 c 0.9925975,1.67114 2.1114145,3.25425 3.3242185,4.70117 l 0.177735,0.20898 0.269531,0.0469 c 1.874445,0.31443 3.823407,0.47659 5.783203,0.48242 h 0.002 c 1.95537,-0.004 3.899965,-0.16525 5.771485,-0.47656 l 0.271484,-0.0449 0.175781,-0.20898 c 1.216757,-1.44849 2.339947,-3.03454 3.335938,-4.70898 v -0.002 c 1.033905,-1.74521 1.918454,-3.56395 2.621093,-5.39843 l 0.101563,-0.26563 -0.101563,-0.26562 c -0.701277,-1.84023 -1.583909,-3.66626 -2.61914,-5.41797 l -0.002,-0.002 c -0.993874,-1.67146 -2.114134,-3.25457 -3.328125,-4.70117 l -0.175782,-0.21094 -0.271484,-0.0449 c -1.873252,-0.31422 -3.818799,-0.4764 -5.777344,-0.48242 h -0.002 z m -0.002,1.48828 h 0.0039 c 1.781829,0.006 3.545667,0.16684 5.25,0.4375 1.091995,1.32441 2.120887,2.75228 3.025391,4.27344 0.942083,1.59428 1.728378,3.25733 2.380859,4.92383 -0.653584,1.66112 -1.440121,3.31811 -2.380859,4.90625 -0.906518,1.52402 -1.936673,2.95499 -3.03125,4.28125 -1.702668,0.26804 -3.463391,0.42778 -5.242188,0.43164 -1.784371,-0.005 -3.551068,-0.1684 -5.257812,-0.43945 -1.090582,-1.32428 -2.11837,-2.75116 -3.021485,-4.27149 v -0.002 c -0.9428329,-1.59352 -1.7311936,-3.25563 -2.3847652,-4.92188 0.654994,-1.66195 1.4425871,-3.31984 2.3847652,-4.9082 0.905335,-1.52368 1.935808,-2.95278 3.029297,-4.2793 1.703789,-0.26821 3.464173,-0.42796 5.244141,-0.43164 z"
             id="path926-1-2-6-4-6-5-2-9-6-3-0-3"
             inkscape:connector-curvature="0" />
          <g
             aria-label="#"
             style="font-style:normal;font-weight:normal;font-size:19.89817238px;line-height:1.25;font-family:sans-serif;letter-spacing:0px;word-spacing:0px;opacity:1;vector-effect:none;fill:#ffffff;fill-opacity:1;stroke:none;stroke-width:1.97651362;stroke-linecap:butt;stroke-linejoin:miter;stroke-miterlimit:4;stroke-dasharray:none;stroke-dashoffset:0;stroke-opacity:1"
             id="text1024-3-5-6-6-6-5-7-9-9-8-8-4">
            <path
               d="m 24.996652,278.16206 h -3.235397 l -0.893863,3.65318 h 2.992499 v 1.31165 h -3.332555 l -1.010455,4.0904 H 18.26353 l 1.010454,-4.0904 H 16.65069 l -1.010454,4.0904 h -1.253352 l 1.010454,-4.0904 h -2.89534 v -1.31165 h 3.235397 l 0.893863,-3.65318 h -2.992499 v -1.31164 h 3.332556 l 1.020169,-4.10012 h 1.253352 l -1.02017,4.10012 h 2.623294 l 1.02017,-4.10012 h 1.253352 l -1.02017,4.10012 h 2.89534 z m -4.459601,-0.0194 h -2.662157 l -0.913295,3.69204 h 2.662157 z"
               style="vector-effect:none;fill:#ffffff;fill-opacity:1;stroke:none;stroke-width:1.97651362;stroke-linecap:butt;stroke-linejoin:miter;stroke-miterlimit:4;stroke-dasharray:none;stroke-dashoffset:0;stroke-opacity:1"
               id="path824"
               inkscape:connector-curvature="0" />
          </g>
          <path
             inkscape:connector-curvature="0"
             id="path926-1-2-6-4-6-5-2-9-5-2-1-1-0"
             d="m 18.750997,268.87325 c -1.956618,0.004 -3.900723,0.1631 -5.773438,0.47461 l -0.271484,0.0449 0.797778,1.39625 c 1.702053,-0.26768 3.469124,-0.42382 5.247144,-0.4275 h 0.0039 c 1.782454,0.006 3.545117,0.16665 5.25,0.4375 1.091427,1.32372 2.11929,2.7512 3.023438,4.27149 0.94292,1.59551 1.729961,3.2599 2.382812,4.92773 -0.0013,0.003 -0.0026,0.007 -0.0039,0.01 l 1.615235,0.008 0.0078,-0.0176 -0.101563,-0.26562 c -0.701268,-1.84026 -1.583909,-3.66626 -2.619141,-5.41797 v -0.002 h -0.002 c -0.993823,-1.67146 -2.114083,-3.25458 -3.328075,-4.70118 l -0.175781,-0.21093 -0.271484,-0.0449 c -1.873252,-0.31422 -3.818799,-0.4764 -5.777344,-0.48242 h -0.002 z"
             style="color:#000000;font-style:normal;font-variant:normal;font-weight:normal;font-stretch:normal;font-size:medium;line-height:normal;font-family:sans-serif;font-variant-ligatures:normal;font-variant-position:normal;font-variant-caps:normal;font-variant-numeric:normal;font-variant-alternates:normal;font-feature-settings:normal;text-indent:0;text-align:start;text-decoration:none;text-decoration-line:none;text-decoration-style:solid;text-decoration-color:#000000;letter-spacing:normal;word-spacing:normal;text-transform:none;writing-mode:lr-tb;direction:ltr;text-orientation:mixed;dominant-baseline:auto;baseline-shift:baseline;text-anchor:start;white-space:normal;shape-padding:0;clip-rule:nonzero;display:inline;overflow:visible;visibility:visible;opacity:1;isolation:auto;mix-blend-mode:normal;color-interpolation:sRGB;color-interpolation-filters:linearRGB;solid-color:#000000;solid-opacity:1;vector-effect:none;fill:#3fc6ee;fill-opacity:1;fill-rule:nonzero;stroke:none;stroke-width:1.4881916;stroke-linecap:butt;stroke-linejoin:miter;stroke-miterlimit:4;stroke-dasharray:none;stroke-dashoffset:0;stroke-opacity:1;color-rendering:auto;image-rendering:auto;shape-rendering:auto;text-rendering:auto;enable-background:accumulate"
             sodipodi:nodetypes="cccccccccccccccccccccc" />
        </g>
      </g>
      <ellipse
         ry="2.6535313"
         rx="2.6498508"
         cy="-51.346439"
         cx="-88.943443"
         id="path1878-4-0"
         style="opacity:1;vector-effect:none;fill:#3fc6ee;fill-opacity:1;fill-rule:nonzero;stroke:#3fc6ee;stroke-width:1.72207212;stroke-linecap:butt;stroke-linejoin:miter;stroke-miterlimit:4;stroke-dasharray:none;stroke-dashoffset:0;stroke-opacity:1" />
    </g>
    <g
       id="g895"
       transform="translate(2.3412839,-7.857724)">
      <g
         aria-label="A              ML Ecosystem for .NET"
         style="font-style:normal;font-variant:normal;font-weight:normal;font-stretch:normal;font-size:23.47167397px;line-height:1.25;font-family:Calibri;-inkscape-font-specification:Calibri;letter-spacing:0px;word-spacing:0px;fill:#ffffff;fill-opacity:1;stroke:none;stroke-width:0.58679181"
         id="text845">
        <path
           d="m -149.22442,66.605441 q 0.0688,0.171911 0.0573,0.286519 0,0.103147 -0.0802,0.160451 -0.0688,0.0573 -0.22921,0.06876 -0.14899,0.02292 -0.38967,0.02292 -0.24068,0 -0.38967,-0.02292 -0.13753,-0.01146 -0.21775,-0.04584 -0.0802,-0.03438 -0.12607,-0.09169 -0.0344,-0.0573 -0.0688,-0.137529 l -1.42114,-3.953968 h -6.50972 l -1.36384,3.931047 q -0.0229,0.08022 -0.0688,0.137529 -0.0458,0.0573 -0.12607,0.103147 -0.0802,0.03438 -0.22921,0.0573 -0.13753,0.02292 -0.35529,0.02292 -0.24067,0 -0.40113,-0.02292 -0.16045,-0.02292 -0.24067,-0.08023 -0.0688,-0.0573 -0.0802,-0.160451 0,-0.103147 0.0688,-0.275058 l 5.19173,-14.108218 q 0.0344,-0.09169 0.10315,-0.14899 0.0688,-0.06876 0.17191,-0.103147 0.11461,-0.03438 0.2636,-0.04584 0.16045,-0.02292 0.35528,-0.02292 0.20629,0 0.35528,0.02292 0.16046,0.01146 0.2636,0.04584 0.11461,0.03438 0.17191,0.103147 0.0688,0.0573 0.10315,0.14899 z m -6.15443,-12.858994 h -0.0115 l -2.79643,7.976702 h 5.67308 z"
           style="font-style:normal;font-variant:normal;font-weight:300;font-stretch:normal;font-family:Calibri;-inkscape-font-specification:'Calibri Light';fill:#ffffff;fill-opacity:1;stroke-width:0.58679181"
           id="path836" />
        <path
           d="m -56.564023,66.846117 q 0,0.06876 -0.03438,0.126069 -0.03438,0.0573 -0.126069,0.09169 -0.08022,0.03438 -0.217755,0.0573 -0.126068,0.02292 -0.332362,0.02292 -0.183373,0 -0.320902,-0.02292 -0.137529,-0.02292 -0.217755,-0.0573 -0.08022,-0.03438 -0.114608,-0.09169 -0.03438,-0.0573 -0.03438,-0.126069 V 53.471389 h -0.02292 l -5.833536,13.454954 q -0.02292,0.04584 -0.06876,0.09169 -0.04584,0.03438 -0.126069,0.0573 -0.08022,0.03438 -0.194833,0.04584 -0.103147,0.02292 -0.252137,0.02292 -0.160451,0 -0.275059,-0.02292 -0.114608,-0.01146 -0.194833,-0.04584 -0.06876,-0.02292 -0.114608,-0.0573 -0.04584,-0.04584 -0.0573,-0.09169 L -70.64932,53.471389 h -0.01146 v 13.374728 q 0,0.06876 -0.03438,0.126069 -0.03438,0.0573 -0.126068,0.09169 -0.08023,0.03438 -0.217755,0.0573 -0.126069,0.02292 -0.343823,0.02292 -0.194834,0 -0.332363,-0.02292 -0.126069,-0.02292 -0.206294,-0.0573 -0.08022,-0.03438 -0.114608,-0.09169 -0.02292,-0.0573 -0.02292,-0.126069 V 52.967115 q 0,-0.412588 0.217754,-0.561579 0.217755,-0.16045 0.424049,-0.16045 h 0.756412 q 0.286519,0 0.504274,0.06876 0.217755,0.0573 0.378206,0.183373 0.171911,0.114607 0.286519,0.286519 0.114608,0.171912 0.206294,0.389667 l 4.893752,11.78168 h 0.0573 l 5.100047,-11.735837 q 0.114607,-0.275059 0.240676,-0.458431 0.137529,-0.194834 0.275059,-0.309441 0.14899,-0.114608 0.309441,-0.160451 0.171911,-0.04584 0.366745,-0.04584 h 0.836636 q 0.103147,0 0.217755,0.03438 0.114608,0.03438 0.206294,0.126068 0.09169,0.08023 0.14899,0.217755 0.06876,0.13753 0.06876,0.343824 z"
           style="font-style:normal;font-variant:normal;font-weight:300;font-stretch:normal;font-family:Calibri;-inkscape-font-specification:'Calibri Light';fill:#ffffff;fill-opacity:1;stroke-width:0.58679181"
           id="path838" />
        <path
           d="m -44.770883,66.433529 q 0,0.160451 -0.02292,0.275059 -0.02292,0.114608 -0.06876,0.206294 -0.04584,0.08022 -0.114608,0.126068 -0.06876,0.03438 -0.160451,0.03438 h -6.429497 q -0.206294,0 -0.424048,-0.14899 -0.217755,-0.160451 -0.217755,-0.573039 V 52.474301 q 0,-0.06876 0.03438,-0.126068 0.03438,-0.0573 0.114608,-0.09169 0.08023,-0.03438 0.217755,-0.0573 0.137529,-0.02292 0.332362,-0.02292 0.206294,0 0.332363,0.02292 0.137529,0.02292 0.217755,0.0573 0.08022,0.03438 0.114607,0.09169 0.03438,0.0573 0.03438,0.126068 v 13.328885 h 5.673085 q 0.09169,0 0.160451,0.04584 0.06876,0.03438 0.114608,0.114608 0.04584,0.06876 0.06876,0.194833 0.02292,0.114608 0.02292,0.275059 z"
           style="font-style:normal;font-variant:normal;font-weight:300;font-stretch:normal;font-family:Calibri;-inkscape-font-specification:'Calibri Light';fill:#ffffff;fill-opacity:1;stroke-width:0.58679181"
           id="path840" />
        <path
           d="m -29.081083,66.456451 q 0,0.14899 -0.02292,0.263598 -0.02292,0.114607 -0.08022,0.194833 -0.04584,0.08022 -0.114608,0.126068 -0.06876,0.03438 -0.14899,0.03438 h -6.945232 q -0.206294,0 -0.424049,-0.14899 -0.217755,-0.160451 -0.217755,-0.573039 V 52.967115 q 0,-0.412588 0.217755,-0.561579 0.217755,-0.16045 0.424049,-0.16045 h 6.842085 q 0.08023,0 0.14899,0.04584 0.06876,0.03438 0.114608,0.114607 0.04584,0.08023 0.06876,0.206294 0.02292,0.114608 0.02292,0.275059 0,0.14899 -0.02292,0.263598 -0.02292,0.114608 -0.06876,0.194833 -0.04584,0.06876 -0.114608,0.114608 -0.06876,0.03438 -0.14899,0.03438 h -6.085674 v 5.214654 h 5.249037 q 0.09169,0 0.160451,0.04584 0.06876,0.03438 0.114608,0.114607 0.04584,0.06877 0.06876,0.194834 0.02292,0.114607 0.02292,0.275058 0,0.14899 -0.02292,0.263598 -0.02292,0.103147 -0.06876,0.171912 -0.04584,0.06876 -0.114608,0.103147 -0.06877,0.03438 -0.160451,0.03438 h -5.249037 v 5.913762 h 6.188821 q 0.08023,0 0.14899,0.04584 0.06876,0.03438 0.114608,0.114608 0.0573,0.06876 0.08022,0.194833 0.02292,0.114608 0.02292,0.275059 z"
           style="font-style:normal;font-variant:normal;font-weight:300;font-stretch:normal;font-family:Calibri;-inkscape-font-specification:'Calibri Light';fill:#ffffff;fill-opacity:1;stroke-width:0.58679181"
           id="path842" />
        <path
           d="m -18.903904,65.310373 q 0,0.137529 -0.01146,0.252137 -0.01146,0.103147 -0.03438,0.183372 -0.02292,0.08023 -0.06877,0.14899 -0.03438,0.0573 -0.183372,0.206294 -0.14899,0.148991 -0.504274,0.378206 -0.343824,0.229216 -0.779333,0.401127 -0.43551,0.171912 -0.939784,0.275059 -0.504274,0.114608 -1.042931,0.114608 -1.077313,0 -1.91395,-0.355284 -0.825176,-0.366745 -1.386754,-1.065853 -0.561578,-0.710568 -0.859558,-1.730577 -0.28652,-1.03147 -0.28652,-2.372381 0,-1.512823 0.355284,-2.590136 0.366745,-1.077313 0.997088,-1.76496 0.630343,-0.687647 1.46698,-1.008549 0.848097,-0.332362 1.810803,-0.332362 0.515735,0 0.985627,0.103147 0.469891,0.09169 0.859558,0.252137 0.401127,0.160451 0.710568,0.366745 0.309441,0.206294 0.446971,0.355284 0.14899,0.137529 0.194833,0.217755 0.0573,0.06876 0.08022,0.160451 0.03438,0.09169 0.04584,0.206294 0.01146,0.103147 0.01146,0.252137 0,0.332362 -0.103147,0.469892 -0.09169,0.126068 -0.206294,0.126068 -0.160451,0 -0.401127,-0.206294 -0.229216,-0.206294 -0.595961,-0.44697 -0.366745,-0.252137 -0.89394,-0.458431 -0.515735,-0.206294 -1.237764,-0.206294 -1.489902,0 -2.303617,1.146078 -0.802254,1.146078 -0.802254,3.312165 0,1.088774 0.217754,1.91395 0.217755,0.813715 0.618882,1.363832 0.412589,0.538657 0.997088,0.813715 0.5845,0.263598 1.31799,0.263598 0.687646,0 1.214842,-0.217754 0.527196,-0.217755 0.916862,-0.481353 0.389667,-0.263598 0.641804,-0.481353 0.263598,-0.217755 0.389667,-0.217755 0.06876,0 0.114607,0.04584 0.0573,0.03438 0.09169,0.126068 0.03438,0.08023 0.04584,0.206294 0.02292,0.114608 0.02292,0.275059 z"
           style="font-style:normal;font-variant:normal;font-weight:300;font-stretch:normal;font-family:Calibri;-inkscape-font-specification:'Calibri Light';fill:#ffffff;fill-opacity:1;stroke-width:0.58679181"
           id="path844" />
        <path
           d="m -7.2024601,61.551237 q 0,1.237765 -0.3209018,2.280695 -0.3209018,1.042931 -0.9627054,1.810803 -0.6303428,0.767873 -1.5815877,1.203382 -0.951244,0.424049 -2.21193,0.424049 -1.214842,0 -2.131705,-0.378206 -0.905401,-0.389666 -1.524283,-1.100235 -0.607421,-0.722029 -0.916862,-1.742038 -0.297981,-1.020009 -0.297981,-2.303616 0,-1.237764 0.309441,-2.280695 0.320902,-1.042931 0.951245,-1.799342 0.641803,-0.767872 1.593048,-1.191921 0.951245,-0.424049 2.223391,-0.424049 1.214843,0 2.1202441,0.378206 0.9168622,0.378205 1.5242835,1.100234 0.6074212,0.710569 0.9168623,1.730578 0.309441,1.020009 0.309441,2.292155 z m -1.4440581,0.126069 q 0,-0.88248 -0.1719117,-1.684734 -0.1719116,-0.802255 -0.5730389,-1.409676 -0.4011272,-0.618882 -1.0773132,-0.974166 -0.676186,-0.366745 -1.684734,-0.366745 -0.928323,0 -1.604509,0.332362 -0.676186,0.332363 -1.111696,0.928323 -0.424049,0.5845 -0.630343,1.386755 -0.206294,0.802254 -0.206294,1.730577 0,0.893941 0.171912,1.707656 0.171912,0.802255 0.573039,1.409676 0.401127,0.607421 1.077313,0.962705 0.676186,0.355284 1.684735,0.355284 0.928323,0 1.604508,-0.332362 0.6761864,-0.332363 1.1002352,-0.916862 0.4355096,-0.5845 0.6418036,-1.386755 0.206294,-0.802254 0.206294,-1.742038 z"
           style="font-style:normal;font-variant:normal;font-weight:300;font-stretch:normal;font-family:Calibri;-inkscape-font-specification:'Calibri Light';fill:#ffffff;fill-opacity:1;stroke-width:0.58679181"
           id="path846" />
        <path
           d="m 1.9547028,64.08407 q 0,0.74495 -0.2750587,1.340911 -0.2750587,0.584499 -0.79079367,0.997087 -0.50427425,0.412588 -1.2148425,0.630343 -0.71056823,0.217755 -1.57012663,0.217755 -0.5386566,0 -1.0200093,-0.09169 -0.4813527,-0.08023 -0.8710191,-0.206294 -0.3896665,-0.13753 -0.6647252,-0.28652 -0.2635979,-0.14899 -0.3896664,-0.263598 -0.1260686,-0.114608 -0.1833725,-0.286519 -0.057304,-0.171912 -0.057304,-0.458431 0,-0.14899 0.022922,-0.263598 0.022921,-0.114608 0.057304,-0.194833 0.034382,-0.08023 0.091686,-0.114608 0.057304,-0.04584 0.1260686,-0.04584 0.1260685,0 0.3667449,0.160451 0.2406763,0.16045 0.5959604,0.355284 0.3667449,0.183372 0.8595584,0.343823 0.5042743,0.160451 1.1575386,0.160451 0.5271958,0 0.9627054,-0.114608 0.43550958,-0.114608 0.75641137,-0.343823 0.32090179,-0.229216 0.49281347,-0.5845 0.18337245,-0.366745 0.18337245,-0.848097 0,-0.481353 -0.22921557,-0.813716 -0.22921556,-0.332362 -0.60742125,-0.573039 -0.3667449,-0.252137 -0.84809757,-0.435509 -0.4698919,-0.194833 -0.9741662,-0.389667 -0.4928134,-0.206294 -0.9741661,-0.44697 -0.4698919,-0.240676 -0.8480976,-0.5845 -0.3667449,-0.343823 -0.5959605,-0.825176 -0.2292156,-0.481352 -0.2292156,-1.157538 0,-0.538657 0.206294,-1.054392 0.2062941,-0.527196 0.6303429,-0.939784 0.4355095,-0.412588 1.1002347,-0.664725 0.6761859,-0.252137 1.5930482,-0.252137 0.38966642,0 0.7678721,0.06876 0.38966646,0.0573 0.69910748,0.16045 0.32090179,0.103147 0.55011735,0.229216 0.22921557,0.114608 0.34382337,0.206294 0.1260685,0.09169 0.1604509,0.160451 0.045843,0.0573 0.057304,0.126069 0.022922,0.06876 0.034382,0.171911 0.011461,0.09169 0.011461,0.229216 0,0.137529 -0.022922,0.252137 -0.011461,0.103147 -0.045843,0.183372 -0.034382,0.08023 -0.091686,0.126069 -0.045843,0.03438 -0.1146078,0.03438 -0.091686,0 -0.27505867,-0.126068 Q 0.70547797,57.746259 0.40749774,57.597269 0.1095175,57.448279 -0.30307052,57.32221 -0.71565854,57.196142 -1.2543151,57.196142 q -0.5386566,0 -0.9512446,0.126068 -0.4011273,0.126069 -0.6647252,0.355284 -0.2635979,0.229216 -0.4011272,0.538657 -0.1260686,0.309441 -0.1260686,0.676186 0,0.504274 0.2292156,0.848098 0.2292156,0.343823 0.6074213,0.59596 0.3782056,0.252137 0.8595583,0.44697 0.4813527,0.194834 0.97416619,0.389667 0.50427424,0.194833 0.98562693,0.435509 0.48135269,0.229216 0.85955838,0.561579 0.3782057,0.332362 0.6074212,0.802254 0.2292156,0.458431 0.2292156,1.111696 z"
           style="font-style:normal;font-variant:normal;font-weight:300;font-stretch:normal;font-family:Calibri;-inkscape-font-specification:'Calibri Light';fill:#ffffff;fill-opacity:1;stroke-width:0.58679181"
           id="path848" />
        <path
           d="m 8.5102777,67.075333 -1.444058,3.885203 q -0.057304,0.126069 -0.2406764,0.206294 -0.1833724,0.09169 -0.5844997,0.09169 -0.206294,0 -0.3438233,-0.02292 -0.1375294,-0.02292 -0.2177548,-0.09169 -0.068765,-0.0573 -0.080226,-0.160451 -0.011461,-0.09169 0.045843,-0.229216 L 7.1120628,67.075333 Q 7.0203765,67.04095 6.9516119,66.960725 6.8828472,66.880499 6.8599257,66.800274 L 3.0893296,56.680407 q -0.057304,-0.160451 -0.057304,-0.252137 0,-0.103147 0.057304,-0.160451 0.068765,-0.0573 0.206294,-0.06877 0.1489901,-0.02292 0.3896665,-0.02292 0.2521371,0 0.4011272,0.02292 0.1489901,0.01146 0.2292156,0.04584 0.091686,0.03438 0.1260685,0.09169 0.045843,0.0573 0.080226,0.13753 l 3.2434002,9.054015 h 0.045843 l 3.1860967,-9.054015 q 0.0573,-0.160451 0.14899,-0.206294 0.103147,-0.0573 0.263598,-0.06877 0.160451,-0.02292 0.389666,-0.02292 0.217755,0 0.355284,0.02292 0.14899,0.02292 0.217755,0.08023 0.06877,0.0573 0.06877,0.160451 0,0.09169 -0.0573,0.240677 z"
           style="font-style:normal;font-variant:normal;font-weight:300;font-stretch:normal;font-family:Calibri;-inkscape-font-specification:'Calibri Light';fill:#ffffff;fill-opacity:1;stroke-width:0.58679181"
           id="path850" />
        <path
           d="m 20.658698,64.08407 q 0,0.74495 -0.275059,1.340911 -0.275059,0.584499 -0.790794,0.997087 -0.504274,0.412588 -1.214842,0.630343 -0.710569,0.217755 -1.570127,0.217755 -0.538657,0 -1.020009,-0.09169 -0.481353,-0.08023 -0.871019,-0.206294 -0.389667,-0.13753 -0.664726,-0.28652 -0.263597,-0.14899 -0.389666,-0.263598 -0.126069,-0.114608 -0.183372,-0.286519 -0.0573,-0.171912 -0.0573,-0.458431 0,-0.14899 0.02292,-0.263598 0.02292,-0.114608 0.0573,-0.194833 0.03438,-0.08023 0.09169,-0.114608 0.0573,-0.04584 0.126069,-0.04584 0.126068,0 0.366745,0.160451 0.240676,0.16045 0.59596,0.355284 0.366745,0.183372 0.859559,0.343823 0.504274,0.160451 1.157538,0.160451 0.527196,0 0.962706,-0.114608 0.435509,-0.114608 0.756411,-0.343823 0.320902,-0.229216 0.492813,-0.5845 0.183373,-0.366745 0.183373,-0.848097 0,-0.481353 -0.229216,-0.813716 -0.229215,-0.332362 -0.607421,-0.573039 -0.366745,-0.252137 -0.848097,-0.435509 -0.469892,-0.194833 -0.974167,-0.389667 -0.492813,-0.206294 -0.974166,-0.44697 -0.469892,-0.240676 -0.848097,-0.5845 -0.366745,-0.343823 -0.595961,-0.825176 -0.229215,-0.481352 -0.229215,-1.157538 0,-0.538657 0.206294,-1.054392 0.206294,-0.527196 0.630342,-0.939784 0.43551,-0.412588 1.100235,-0.664725 0.676186,-0.252137 1.593048,-0.252137 0.389667,0 0.767872,0.06876 0.389667,0.0573 0.699108,0.16045 0.320902,0.103147 0.550117,0.229216 0.229216,0.114608 0.343824,0.206294 0.126068,0.09169 0.160451,0.160451 0.04584,0.0573 0.0573,0.126069 0.02292,0.06876 0.03438,0.171911 0.01146,0.09169 0.01146,0.229216 0,0.137529 -0.02292,0.252137 -0.01146,0.103147 -0.04584,0.183372 -0.03438,0.08023 -0.09169,0.126069 -0.04584,0.03438 -0.114608,0.03438 -0.09169,0 -0.275059,-0.126068 -0.183372,-0.126069 -0.481353,-0.275059 -0.29798,-0.14899 -0.710568,-0.275059 -0.412588,-0.126068 -0.951244,-0.126068 -0.538657,0 -0.951245,0.126068 -0.401127,0.126069 -0.664725,0.355284 -0.263598,0.229216 -0.401127,0.538657 -0.126069,0.309441 -0.126069,0.676186 0,0.504274 0.229216,0.848098 0.229215,0.343823 0.607421,0.59596 0.378206,0.252137 0.859558,0.44697 0.481353,0.194834 0.974166,0.389667 0.504275,0.194833 0.985627,0.435509 0.481353,0.229216 0.859559,0.561579 0.378205,0.332362 0.607421,0.802254 0.229216,0.458431 0.229216,1.111696 z"
           style="font-style:normal;font-variant:normal;font-weight:300;font-stretch:normal;font-family:Calibri;-inkscape-font-specification:'Calibri Light';fill:#ffffff;fill-opacity:1;stroke-width:0.58679181"
           id="path852" />
        <path
           d="m 28.360343,66.227235 q 0,0.240676 -0.04584,0.389667 -0.03438,0.14899 -0.126069,0.240676 -0.08023,0.08022 -0.252137,0.160451 -0.160451,0.06876 -0.378206,0.114608 -0.217755,0.0573 -0.458431,0.08022 -0.240676,0.03438 -0.469892,0.03438 -0.767872,0 -1.306529,-0.206294 -0.538656,-0.206294 -0.882479,-0.618882 -0.343824,-0.424049 -0.504275,-1.065852 -0.14899,-0.641804 -0.14899,-1.512823 v -6.452418 h -1.547205 q -0.160451,0 -0.252137,-0.137529 -0.09169,-0.14899 -0.09169,-0.43551 0,-0.14899 0.02292,-0.252137 0.02292,-0.114608 0.06877,-0.183373 0.04584,-0.08023 0.103147,-0.114607 0.06876,-0.03438 0.14899,-0.03438 h 1.547205 v -2.544292 q 0,-0.06876 0.02292,-0.126069 0.03438,-0.0573 0.114608,-0.09169 0.08023,-0.04584 0.206294,-0.0573 0.137529,-0.02292 0.332362,-0.02292 0.206294,0 0.332363,0.02292 0.137529,0.01146 0.206294,0.0573 0.08023,0.03438 0.114607,0.09169 0.03438,0.0573 0.03438,0.126069 v 2.544292 h 2.865194 q 0.08023,0 0.13753,0.03438 0.06876,0.03438 0.114607,0.114607 0.04584,0.06876 0.06876,0.183373 0.02292,0.103147 0.02292,0.252137 0,0.28652 -0.103147,0.43551 -0.09169,0.137529 -0.240677,0.137529 h -2.865194 v 6.269046 q 0,1.18046 0.332362,1.799342 0.343824,0.618882 1.237764,0.618882 0.275059,0 0.492814,-0.0573 0.229215,-0.0573 0.401127,-0.126069 0.171912,-0.06876 0.28652,-0.126068 0.126068,-0.0573 0.217754,-0.0573 0.0573,0 0.103147,0.02292 0.04584,0.02292 0.06877,0.09169 0.03438,0.0573 0.04584,0.160451 0.02292,0.09169 0.02292,0.240676 z"
           style="font-style:normal;font-variant:normal;font-weight:300;font-stretch:normal;font-family:Calibri;-inkscape-font-specification:'Calibri Light';fill:#ffffff;fill-opacity:1;stroke-width:0.58679181"
           id="path854" />
        <path
           d="m 39.293925,61.127189 q 0,0.412588 -0.217755,0.573039 -0.217754,0.14899 -0.424048,0.14899 h -7.071301 q 0,0.962705 0.183373,1.742038 0.194833,0.779333 0.630343,1.340911 0.435509,0.550117 1.134617,0.848098 0.699107,0.29798 1.719116,0.29798 0.722029,0 1.295068,-0.126069 0.573039,-0.126068 0.985627,-0.275058 0.424049,-0.160451 0.687647,-0.28652 0.275059,-0.126068 0.389666,-0.126068 0.06876,0 0.126069,0.03438 0.0573,0.03438 0.09169,0.114608 0.03438,0.06876 0.04584,0.183372 0.02292,0.114608 0.02292,0.28652 0,0.08022 -0.01146,0.160451 -0.01146,0.06876 -0.03438,0.137529 -0.01146,0.0573 -0.04584,0.114608 -0.03438,0.0573 -0.09169,0.114608 -0.0573,0.0573 -0.355284,0.206294 -0.29798,0.137529 -0.779333,0.286519 -0.481352,0.137529 -1.123156,0.252137 -0.630343,0.114608 -1.363832,0.114608 -1.203382,0 -2.131705,-0.355284 -0.928323,-0.366745 -1.558666,-1.065853 -0.630343,-0.710568 -0.962705,-1.753499 -0.320902,-1.042931 -0.320902,-2.418224 0,-1.317989 0.332362,-2.36092 0.343824,-1.042931 0.974166,-1.76496 0.630343,-0.73349 1.512823,-1.111696 0.893941,-0.389666 1.982715,-0.389666 1.168999,0 1.994175,0.389666 0.825176,0.389667 1.352372,1.054392 0.538657,0.653264 0.779333,1.524283 0.252137,0.87102 0.252137,1.833725 z m -1.409676,-0.401128 q 0.03438,-1.650352 -0.756411,-2.578675 -0.790794,-0.928323 -2.303616,-0.928323 -0.779333,0 -1.375294,0.297981 -0.584499,0.286519 -0.997088,0.767872 -0.401127,0.481352 -0.618882,1.123156 -0.217754,0.630343 -0.252137,1.317989 z"
           style="font-style:normal;font-variant:normal;font-weight:300;font-stretch:normal;font-family:Calibri;-inkscape-font-specification:'Calibri Light';fill:#ffffff;fill-opacity:1;stroke-width:0.58679181"
           id="path856" />
        <path
           d="m 57.218587,66.846117 q 0,0.06876 -0.03438,0.126069 -0.03438,0.0573 -0.114608,0.09169 -0.06876,0.03438 -0.206294,0.0573 -0.126069,0.02292 -0.320902,0.02292 -0.206294,0 -0.343823,-0.02292 -0.126069,-0.02292 -0.206294,-0.0573 -0.08023,-0.03438 -0.114608,-0.09169 -0.02292,-0.0573 -0.02292,-0.126069 v -6.383653 q 0,-0.73349 -0.13753,-1.329451 -0.126068,-0.607421 -0.412588,-1.03147 -0.275059,-0.435509 -0.710568,-0.664725 -0.424049,-0.240676 -1.008549,-0.240676 -0.722029,0 -1.466979,0.561578 -0.73349,0.561578 -1.61597,1.650352 v 7.438045 q 0,0.06876 -0.03438,0.126069 -0.03438,0.0573 -0.114608,0.09169 -0.06876,0.03438 -0.206294,0.0573 -0.126069,0.02292 -0.320902,0.02292 -0.194833,0 -0.332362,-0.02292 -0.126069,-0.02292 -0.206294,-0.0573 -0.08023,-0.03438 -0.114608,-0.09169 -0.02292,-0.0573 -0.02292,-0.126069 v -6.383653 q 0,-0.73349 -0.137529,-1.329451 -0.137529,-0.607421 -0.424049,-1.03147 -0.275059,-0.435509 -0.710568,-0.664725 -0.424049,-0.240676 -1.008549,-0.240676 -0.722029,0 -1.466979,0.561578 -0.73349,0.561578 -1.604509,1.650352 v 7.438045 q 0,0.06876 -0.03438,0.126069 -0.03438,0.0573 -0.114607,0.09169 -0.06876,0.03438 -0.206294,0.0573 -0.126069,0.02292 -0.332363,0.02292 -0.194833,0 -0.332363,-0.02292 -0.126068,-0.02292 -0.206294,-0.0573 -0.08022,-0.03438 -0.114607,-0.09169 -0.02292,-0.0573 -0.02292,-0.126069 V 56.474113 q 0,-0.06877 0.02292,-0.126069 0.03438,-0.0573 0.114607,-0.09169 0.08023,-0.04584 0.194834,-0.0573 0.126068,-0.02292 0.320901,-0.02292 0.194834,0 0.320902,0.02292 0.126069,0.01146 0.194834,0.0573 0.06876,0.03438 0.09169,0.09169 0.03438,0.0573 0.03438,0.126069 v 1.466979 q 0.893941,-0.997087 1.696195,-1.444058 0.802255,-0.44697 1.593048,-0.44697 0.653265,0 1.157539,0.160451 0.515735,0.14899 0.905402,0.435509 0.389666,0.275059 0.664725,0.664726 0.275058,0.389666 0.44697,0.859558 0.538657,-0.595961 1.008549,-0.997088 0.481352,-0.412588 0.905401,-0.653264 0.43551,-0.252137 0.836637,-0.355284 0.401127,-0.114608 0.790794,-0.114608 0.974166,0 1.638891,0.343823 0.676186,0.343824 1.077313,0.928323 0.412588,0.5845 0.5845,1.363833 0.183372,0.779333 0.183372,1.650352 z"
           style="font-style:normal;font-variant:normal;font-weight:300;font-stretch:normal;font-family:Calibri;-inkscape-font-specification:'Calibri Light';fill:#ffffff;fill-opacity:1;stroke-width:0.58679181"
           id="path858" />
        <path
           d="m 71.69355,52.050252 q 0,0.160451 -0.02292,0.263598 -0.01146,0.09169 -0.04584,0.14899 -0.02292,0.0573 -0.06876,0.08023 -0.03438,0.02292 -0.09169,0.02292 -0.09169,0 -0.217755,-0.0573 -0.126069,-0.0573 -0.320902,-0.126068 -0.183372,-0.06876 -0.44697,-0.126069 -0.252137,-0.0573 -0.595961,-0.0573 -0.481352,0 -0.813715,0.160451 -0.332363,0.14899 -0.538657,0.492814 -0.206294,0.332362 -0.29798,0.871019 -0.08022,0.527196 -0.08022,1.283607 v 1.226303 h 2.544293 q 0.08022,0 0.137529,0.03438 0.0573,0.03438 0.103147,0.114607 0.04584,0.06876 0.06876,0.183373 0.02292,0.103147 0.02292,0.252137 0,0.28652 -0.09169,0.43551 -0.09169,0.137529 -0.240676,0.137529 H 68.15217 v 9.455142 q 0,0.06876 -0.03438,0.126069 -0.03438,0.0573 -0.114607,0.09169 -0.06876,0.03438 -0.206294,0.0573 -0.13753,0.02292 -0.332363,0.02292 -0.194833,0 -0.332363,-0.02292 -0.126068,-0.02292 -0.206294,-0.0573 -0.08022,-0.03438 -0.114607,-0.09169 -0.02292,-0.0573 -0.02292,-0.126069 v -9.455142 h -1.558666 q -0.160451,0 -0.252137,-0.137529 -0.08022,-0.14899 -0.08022,-0.43551 0,-0.14899 0.02292,-0.252137 0.02292,-0.114608 0.0573,-0.183373 0.04584,-0.08023 0.103147,-0.114607 0.06876,-0.03438 0.14899,-0.03438 h 1.558666 v -1.18046 q 0,-1.088774 0.194833,-1.856646 0.194834,-0.767872 0.5845,-1.249225 0.401127,-0.481352 0.997088,-0.699107 0.59596,-0.217755 1.386754,-0.217755 0.389666,0 0.756411,0.08022 0.366745,0.06877 0.550118,0.160451 0.194833,0.08023 0.252137,0.14899 0.06876,0.0573 0.103147,0.148991 0.04584,0.09169 0.0573,0.217754 0.02292,0.114608 0.02292,0.263598 z"
           style="font-style:normal;font-variant:normal;font-weight:300;font-stretch:normal;font-family:Calibri;-inkscape-font-specification:'Calibri Light';fill:#ffffff;fill-opacity:1;stroke-width:0.58679181"
           id="path860" />
        <path
           d="m 81.962396,61.551237 q 0,1.237765 -0.320902,2.280695 -0.320902,1.042931 -0.962705,1.810803 -0.630343,0.767873 -1.581588,1.203382 -0.951244,0.424049 -2.21193,0.424049 -1.214842,0 -2.131705,-0.378206 -0.905401,-0.389666 -1.524283,-1.100235 -0.607421,-0.722029 -0.916863,-1.742038 -0.29798,-1.020009 -0.29798,-2.303616 0,-1.237764 0.309441,-2.280695 0.320902,-1.042931 0.951245,-1.799342 0.641803,-0.767872 1.593048,-1.191921 0.951245,-0.424049 2.223391,-0.424049 1.214843,0 2.120244,0.378206 0.916862,0.378205 1.524284,1.100234 0.607421,0.710569 0.916862,1.730578 0.309441,1.020009 0.309441,2.292155 z m -1.444058,0.126069 q 0,-0.88248 -0.171912,-1.684734 -0.171912,-0.802255 -0.573039,-1.409676 -0.401127,-0.618882 -1.077313,-0.974166 -0.676186,-0.366745 -1.684734,-0.366745 -0.928323,0 -1.604509,0.332362 -0.676186,0.332363 -1.111696,0.928323 -0.424049,0.5845 -0.630343,1.386755 -0.206294,0.802254 -0.206294,1.730577 0,0.893941 0.171912,1.707656 0.171912,0.802255 0.573039,1.409676 0.401127,0.607421 1.077313,0.962705 0.676186,0.355284 1.684734,0.355284 0.928324,0 1.604509,-0.332362 0.676186,-0.332363 1.100235,-0.916862 0.43551,-0.5845 0.641804,-1.386755 0.206294,-0.802254 0.206294,-1.742038 z"
           style="font-style:normal;font-variant:normal;font-weight:300;font-stretch:normal;font-family:Calibri;-inkscape-font-specification:'Calibri Light';fill:#ffffff;fill-opacity:1;stroke-width:0.58679181"
           id="path862" />
        <path
           d="m 90.775735,57.001309 q 0,0.171911 -0.01146,0.29798 -0.01146,0.114608 -0.04584,0.194833 -0.02292,0.06877 -0.06877,0.114608 -0.03438,0.03438 -0.103147,0.03438 -0.103147,0 -0.240676,-0.04584 -0.13753,-0.0573 -0.320902,-0.114608 -0.183373,-0.0573 -0.401128,-0.103147 -0.217754,-0.0573 -0.481352,-0.0573 -0.309441,0 -0.607421,0.13753 -0.297981,0.126068 -0.630343,0.424048 -0.320902,0.28652 -0.687647,0.767873 -0.355284,0.481352 -0.790794,1.18046 v 7.013996 q 0,0.06876 -0.03438,0.126069 -0.03438,0.0573 -0.114608,0.09169 -0.06876,0.03438 -0.206294,0.0573 -0.126068,0.02292 -0.332362,0.02292 -0.194834,0 -0.332363,-0.02292 -0.126069,-0.02292 -0.206294,-0.0573 -0.08022,-0.03438 -0.114608,-0.09169 -0.02292,-0.0573 -0.02292,-0.126069 V 56.474113 q 0,-0.06877 0.02292,-0.126069 0.03438,-0.0573 0.114608,-0.09169 0.08022,-0.04584 0.194833,-0.0573 0.126069,-0.02292 0.320902,-0.02292 0.194833,0 0.320902,0.02292 0.126068,0.01146 0.194833,0.0573 0.06876,0.03438 0.09169,0.09169 0.03438,0.0573 0.03438,0.126069 v 1.638891 q 0.44697,-0.653264 0.825176,-1.054392 0.378205,-0.401127 0.722029,-0.618882 0.343823,-0.229215 0.664725,-0.309441 0.332362,-0.08022 0.676186,-0.08022 0.14899,0 0.343823,0.02292 0.194833,0.01146 0.412588,0.0573 0.229216,0.04584 0.401127,0.114608 0.183373,0.0573 0.252138,0.114608 0.06876,0.04584 0.09169,0.09169 0.02292,0.03438 0.03438,0.103147 0.02292,0.0573 0.02292,0.171912 0.01146,0.103147 0.01146,0.275059 z"
           style="font-style:normal;font-variant:normal;font-weight:300;font-stretch:normal;font-family:Calibri;-inkscape-font-specification:'Calibri Light';fill:#ffffff;fill-opacity:1;stroke-width:0.58679181"
           id="path864" />
        <path
           d="m 100.39133,66.043863 q 0,0.676186 -0.21775,0.89394 -0.217756,0.217755 -0.779334,0.217755 -0.538657,0 -0.756411,-0.206294 -0.206294,-0.217755 -0.206294,-0.88248 0,-0.676186 0.217754,-0.893941 0.217755,-0.217754 0.779333,-0.217754 0.538657,0 0.744952,0.217754 0.21775,0.206294 0.21775,0.87102 z"
           style="font-style:normal;font-variant:normal;font-weight:300;font-stretch:normal;font-family:Calibri;-inkscape-font-specification:'Calibri Light';fill:#ffffff;fill-opacity:1;stroke-width:0.58679181"
           id="path866" />
        <path
           d="m 115.08404,66.399147 q 0,0.206294 -0.0688,0.343823 -0.0573,0.137529 -0.16045,0.229216 -0.0917,0.08023 -0.21775,0.114607 -0.11461,0.03438 -0.21776,0.03438 h -0.28652 q -0.22921,0 -0.42404,-0.0573 -0.18338,-0.0573 -0.36675,-0.194833 -0.17191,-0.14899 -0.35528,-0.389667 -0.17191,-0.240676 -0.38967,-0.618882 l -5.22611,-9.260309 q -0.38967,-0.676186 -0.7908,-1.386754 -0.38966,-0.722029 -0.74495,-1.398215 h -0.0115 q 0.0115,0.836637 0.0115,1.719117 0,0.871019 0,1.707656 v 9.604132 q 0,0.06876 -0.0344,0.126069 -0.0344,0.0573 -0.11461,0.09169 -0.0802,0.03438 -0.21775,0.0573 -0.12607,0.02292 -0.33237,0.02292 -0.19483,0 -0.33236,-0.02292 -0.13753,-0.02292 -0.21775,-0.0573 -0.0802,-0.03438 -0.11461,-0.09169 -0.0344,-0.0573 -0.0344,-0.126069 V 52.967115 q 0,-0.412588 0.21775,-0.561579 0.21776,-0.16045 0.42405,-0.16045 h 0.57304 q 0.27506,0 0.45843,0.04584 0.18337,0.04584 0.33236,0.160451 0.14899,0.103147 0.28652,0.309441 0.14899,0.194833 0.3209,0.504274 l 3.99982,7.094222 q 0.3782,0.664725 0.71056,1.283607 0.34383,0.607421 0.66473,1.203381 0.3209,0.5845 0.63034,1.157539 0.3209,0.573039 0.63034,1.157539 h 0.0115 q -0.0115,-0.962706 -0.0115,-2.005637 0,-1.04293 0,-2.005636 v -8.629966 q 0,-0.06876 0.0344,-0.126068 0.0344,-0.0573 0.1146,-0.09169 0.0802,-0.04584 0.2063,-0.0573 0.13753,-0.02292 0.34382,-0.02292 0.18337,0 0.3209,0.02292 0.13753,0.01146 0.21776,0.0573 0.0802,0.03438 0.11461,0.09169 0.0458,0.0573 0.0458,0.126068 z"
           style="font-style:normal;font-variant:normal;font-weight:300;font-stretch:normal;font-family:Calibri;-inkscape-font-specification:'Calibri Light';fill:#ffffff;fill-opacity:1;stroke-width:0.58679181"
           id="path868" />
        <path
           d="m 127.38148,66.456451 q 0,0.14899 -0.0229,0.263598 -0.0229,0.114607 -0.0802,0.194833 -0.0458,0.08022 -0.11461,0.126068 -0.0688,0.03438 -0.14899,0.03438 h -6.94523 q -0.20629,0 -0.42405,-0.14899 -0.21775,-0.160451 -0.21775,-0.573039 V 52.967115 q 0,-0.412588 0.21775,-0.561579 0.21776,-0.16045 0.42405,-0.16045 h 6.84209 q 0.0802,0 0.14899,0.04584 0.0688,0.03438 0.11461,0.114607 0.0458,0.08023 0.0688,0.206294 0.0229,0.114608 0.0229,0.275059 0,0.14899 -0.0229,0.263598 -0.0229,0.114608 -0.0688,0.194833 -0.0459,0.06876 -0.11461,0.114608 -0.0688,0.03438 -0.14899,0.03438 h -6.08568 v 5.214654 h 5.24904 q 0.0917,0 0.16045,0.04584 0.0688,0.03438 0.11461,0.114607 0.0458,0.06877 0.0688,0.194834 0.0229,0.114607 0.0229,0.275058 0,0.14899 -0.0229,0.263598 -0.0229,0.103147 -0.0688,0.171912 -0.0458,0.06876 -0.11461,0.103147 -0.0688,0.03438 -0.16045,0.03438 h -5.24904 v 5.913762 h 6.18882 q 0.0802,0 0.14899,0.04584 0.0688,0.03438 0.11461,0.114608 0.0573,0.06876 0.0802,0.194833 0.0229,0.114608 0.0229,0.275059 z"
           style="font-style:normal;font-variant:normal;font-weight:300;font-stretch:normal;font-family:Calibri;-inkscape-font-specification:'Calibri Light';fill:#ffffff;fill-opacity:1;stroke-width:0.58679181"
           id="path870" />
        <path
           d="m 139.8737,52.886889 q 0,0.14899 -0.0229,0.263598 -0.0229,0.114608 -0.0688,0.194833 -0.0459,0.06876 -0.11461,0.114608 -0.0688,0.03438 -0.14899,0.03438 h -4.42386 v 13.351807 q 0,0.06876 -0.0344,0.126069 -0.0344,0.0573 -0.11461,0.09169 -0.0802,0.03438 -0.21776,0.0573 -0.13753,0.02292 -0.33236,0.02292 -0.19483,0 -0.33236,-0.02292 -0.13753,-0.02292 -0.21776,-0.0573 -0.0802,-0.03438 -0.1146,-0.09169 -0.0344,-0.0573 -0.0344,-0.126069 V 53.49431 h -4.42386 q -0.0917,0 -0.16045,-0.03438 -0.0573,-0.04584 -0.10314,-0.114608 -0.0459,-0.08022 -0.0688,-0.194833 -0.0229,-0.114608 -0.0229,-0.263598 0,-0.160451 0.0229,-0.275059 0.0229,-0.126068 0.0688,-0.206294 0.0458,-0.08022 0.10314,-0.114607 0.0688,-0.04584 0.16045,-0.04584 h 10.24594 q 0.0802,0 0.14899,0.04584 0.0688,0.03438 0.11461,0.114607 0.0458,0.08023 0.0688,0.206294 0.0229,0.114608 0.0229,0.275059 z"
           style="font-style:normal;font-variant:normal;font-weight:300;font-stretch:normal;font-family:Calibri;-inkscape-font-specification:'Calibri Light';fill:#ffffff;fill-opacity:1;stroke-width:0.58679181"
           id="path872" />
      </g>
      <g
         aria-label="competitive"
         transform="rotate(-0.07479466)"
         style="font-style:normal;font-variant:normal;font-weight:300;font-stretch:normal;font-size:14.25453377px;line-height:1.25;font-family:Calibri;-inkscape-font-specification:'Calibri Light';font-variant-ligatures:normal;font-variant-position:normal;font-variant-caps:normal;font-variant-numeric:normal;font-variant-alternates:normal;font-feature-settings:normal;text-indent:0;text-align:start;text-decoration:none;text-decoration-line:none;text-decoration-style:solid;text-decoration-color:#000000;letter-spacing:0px;word-spacing:0px;text-transform:none;writing-mode:lr-tb;direction:ltr;text-orientation:mixed;dominant-baseline:auto;baseline-shift:baseline;text-anchor:start;white-space:normal;shape-padding:0;opacity:1;vector-effect:none;fill:#3fc6ee;fill-opacity:1;stroke:none;stroke-width:0.35636333;stroke-linecap:butt;stroke-linejoin:miter;stroke-miterlimit:4;stroke-dasharray:none;stroke-dashoffset:0;stroke-opacity:1"
         id="text849">
        <path
           d="m -139.51827,65.838961 q 0,0.08352 -0.007,0.153125 -0.007,0.06264 -0.0209,0.111364 -0.0139,0.04872 -0.0418,0.09048 -0.0209,0.0348 -0.11136,0.125284 -0.0905,0.09048 -0.30625,0.229688 -0.20881,0.139204 -0.4733,0.243607 -0.26448,0.104404 -0.57073,0.167046 -0.30625,0.0696 -0.63338,0.0696 -0.65427,0 -1.16236,-0.215767 -0.50114,-0.222727 -0.84219,-0.6473 -0.34105,-0.431534 -0.52202,-1.050994 -0.174,-0.62642 -0.174,-1.440766 0,-0.918749 0.21577,-1.57301 0.22272,-0.654261 0.60554,-1.071874 0.38281,-0.417613 0.8909,-0.612499 0.51506,-0.201847 1.09972,-0.201847 0.31321,0 0.59858,0.06264 0.28537,0.05568 0.52201,0.153125 0.24361,0.09744 0.43154,0.222727 0.18792,0.125284 0.27145,0.215767 0.0905,0.08352 0.11832,0.132244 0.0348,0.04176 0.0487,0.09744 0.0209,0.05568 0.0278,0.125284 0.007,0.06264 0.007,0.153125 0,0.201847 -0.0626,0.285369 -0.0557,0.07656 -0.12528,0.07656 -0.0975,0 -0.24361,-0.125284 -0.13921,-0.125284 -0.36193,-0.271449 -0.22273,-0.153125 -0.5429,-0.278409 -0.31321,-0.125284 -0.7517,-0.125284 -0.90483,0 -1.39901,0.696022 -0.48721,0.696022 -0.48721,2.011504 0,0.661221 0.13224,1.162357 0.13225,0.494176 0.37585,0.828267 0.25057,0.32713 0.60554,0.494175 0.35497,0.160086 0.80043,0.160086 0.41761,0 0.73778,-0.132245 0.32017,-0.132244 0.55682,-0.292329 0.23665,-0.160085 0.38977,-0.292329 0.16009,-0.132244 0.23665,-0.132244 0.0418,0 0.0696,0.02784 0.0348,0.02088 0.0557,0.07656 0.0209,0.04872 0.0278,0.125284 0.0139,0.0696 0.0139,0.167045 z"
           style="font-style:normal;font-variant:normal;font-weight:300;font-stretch:normal;font-size:14.25453377px;line-height:1.25;font-family:Calibri;-inkscape-font-specification:'Calibri Light';font-variant-ligatures:normal;font-variant-position:normal;font-variant-caps:normal;font-variant-numeric:normal;font-variant-alternates:normal;font-feature-settings:normal;text-indent:0;text-align:start;text-decoration-line:none;text-decoration-style:solid;text-decoration-color:#000000;letter-spacing:0px;word-spacing:0px;text-transform:none;writing-mode:lr-tb;direction:ltr;text-orientation:mixed;dominant-baseline:auto;text-anchor:start;white-space:normal;shape-padding:0;vector-effect:none;fill:#3fc6ee;fill-opacity:1;stroke:none;stroke-width:0.35636333;stroke-linecap:butt;stroke-linejoin:miter;stroke-miterlimit:4;stroke-dasharray:none;stroke-dashoffset:0;stroke-opacity:1"
           id="path875" />
        <path
           d="m -132.41188,63.556008 q 0,0.751704 -0.19489,1.385085 -0.19488,0.63338 -0.58465,1.099715 -0.38282,0.466334 -0.96052,0.730823 -0.57769,0.257528 -1.34332,0.257528 -0.73778,0 -1.2946,-0.229687 -0.54986,-0.236648 -0.92571,-0.668182 -0.36889,-0.438494 -0.55682,-1.057953 -0.18096,-0.61946 -0.18096,-1.399005 0,-0.751704 0.18792,-1.385084 0.19489,-0.63338 0.5777,-1.092755 0.38977,-0.466334 0.96747,-0.723863 0.5777,-0.257528 1.35029,-0.257528 0.73778,0 1.28764,0.229687 0.55681,0.229688 0.92571,0.668182 0.36889,0.431533 0.55681,1.050993 0.18793,0.61946 0.18793,1.392044 z m -0.87699,0.07656 q 0,-0.535937 -0.1044,-1.023153 -0.1044,-0.487215 -0.34801,-0.856107 -0.24361,-0.375852 -0.65426,-0.591619 -0.41066,-0.222727 -1.02316,-0.222727 -0.56377,0 -0.97443,0.201847 -0.41065,0.201846 -0.67514,0.563778 -0.25753,0.354971 -0.38281,0.842186 -0.12528,0.487216 -0.12528,1.050994 0,0.542897 0.1044,1.037073 0.1044,0.487215 0.34801,0.856107 0.24361,0.368892 0.65426,0.584659 0.41065,0.215767 1.02315,0.215767 0.56378,0 0.97443,-0.201847 0.41066,-0.201846 0.66819,-0.556818 0.26448,-0.354971 0.38977,-0.842186 0.12528,-0.487216 0.12528,-1.057954 z"
           style="font-style:normal;font-variant:normal;font-weight:300;font-stretch:normal;font-size:14.25453377px;line-height:1.25;font-family:Calibri;-inkscape-font-specification:'Calibri Light';font-variant-ligatures:normal;font-variant-position:normal;font-variant-caps:normal;font-variant-numeric:normal;font-variant-alternates:normal;font-feature-settings:normal;text-indent:0;text-align:start;text-decoration-line:none;text-decoration-style:solid;text-decoration-color:#000000;letter-spacing:0px;word-spacing:0px;text-transform:none;writing-mode:lr-tb;direction:ltr;text-orientation:mixed;dominant-baseline:auto;text-anchor:start;white-space:normal;shape-padding:0;vector-effect:none;fill:#3fc6ee;fill-opacity:1;stroke:none;stroke-width:0.35636333;stroke-linecap:butt;stroke-linejoin:miter;stroke-miterlimit:4;stroke-dasharray:none;stroke-dashoffset:0;stroke-opacity:1"
           id="path877" />
        <path
           d="m -121.57482,66.771631 q 0,0.04176 -0.0209,0.07656 -0.0209,0.0348 -0.0696,0.05568 -0.0418,0.02088 -0.12528,0.0348 -0.0766,0.01392 -0.19489,0.01392 -0.12528,0 -0.20881,-0.01392 -0.0766,-0.01392 -0.12528,-0.0348 -0.0487,-0.02088 -0.0696,-0.05568 -0.0139,-0.0348 -0.0139,-0.07656 v -3.876844 q 0,-0.445454 -0.0835,-0.807385 -0.0766,-0.368892 -0.25057,-0.62642 -0.16705,-0.264489 -0.43154,-0.403693 -0.25752,-0.146165 -0.6125,-0.146165 -0.43849,0 -0.8909,0.341051 -0.44546,0.341051 -0.9814,1.002272 v 4.517184 q 0,0.04176 -0.0209,0.07656 -0.0209,0.0348 -0.0696,0.05568 -0.0418,0.02088 -0.12528,0.0348 -0.0766,0.01392 -0.19489,0.01392 -0.11832,0 -0.20184,-0.01392 -0.0766,-0.01392 -0.12529,-0.0348 -0.0487,-0.02088 -0.0696,-0.05568 -0.0139,-0.0348 -0.0139,-0.07656 v -3.876844 q 0,-0.445454 -0.0835,-0.807385 -0.0835,-0.368892 -0.25753,-0.62642 -0.16705,-0.264489 -0.43154,-0.403693 -0.25752,-0.146165 -0.6125,-0.146165 -0.43849,0 -0.8909,0.341051 -0.44546,0.341051 -0.97444,1.002272 v 4.517184 q 0,0.04176 -0.0209,0.07656 -0.0209,0.0348 -0.0696,0.05568 -0.0418,0.02088 -0.12528,0.0348 -0.0766,0.01392 -0.20185,0.01392 -0.11832,0 -0.20184,-0.01392 -0.0766,-0.01392 -0.12529,-0.0348 -0.0487,-0.02088 -0.0696,-0.05568 -0.0139,-0.0348 -0.0139,-0.07656 V 60.47263 q 0,-0.04176 0.0139,-0.07656 0.0209,-0.0348 0.0696,-0.05568 0.0487,-0.02784 0.11832,-0.0348 0.0766,-0.01392 0.19489,-0.01392 0.11832,0 0.19489,0.01392 0.0766,0.007 0.11832,0.0348 0.0418,0.02088 0.0557,0.05568 0.0209,0.0348 0.0209,0.07656 v 0.890909 q 0.5429,-0.60554 1.03012,-0.876988 0.48721,-0.271449 0.96747,-0.271449 0.39673,0 0.70298,0.09744 0.31321,0.09048 0.54986,0.264489 0.23664,0.167045 0.40369,0.403692 0.16705,0.236648 0.27145,0.522017 0.32713,-0.361931 0.6125,-0.605539 0.29233,-0.250568 0.54986,-0.396733 0.26448,-0.153125 0.50809,-0.215767 0.24361,-0.0696 0.48026,-0.0696 0.59162,0 0.99531,0.208807 0.41065,0.208806 0.65426,0.563778 0.25057,0.354971 0.35497,0.828266 0.11136,0.473295 0.11136,1.002272 z"
           style="font-style:normal;font-variant:normal;font-weight:300;font-stretch:normal;font-size:14.25453377px;line-height:1.25;font-family:Calibri;-inkscape-font-specification:'Calibri Light';font-variant-ligatures:normal;font-variant-position:normal;font-variant-caps:normal;font-variant-numeric:normal;font-variant-alternates:normal;font-feature-settings:normal;text-indent:0;text-align:start;text-decoration-line:none;text-decoration-style:solid;text-decoration-color:#000000;letter-spacing:0px;word-spacing:0px;text-transform:none;writing-mode:lr-tb;direction:ltr;text-orientation:mixed;dominant-baseline:auto;text-anchor:start;white-space:normal;shape-padding:0;vector-effect:none;fill:#3fc6ee;fill-opacity:1;stroke:none;stroke-width:0.35636333;stroke-linecap:butt;stroke-linejoin:miter;stroke-miterlimit:4;stroke-dasharray:none;stroke-dashoffset:0;stroke-opacity:1"
           id="path879" />
        <path
           d="m -113.77937,63.528168 q 0,0.807385 -0.18096,1.454686 -0.17401,0.6473 -0.52202,1.099715 -0.34105,0.452414 -0.84915,0.702982 -0.50809,0.243608 -1.16235,0.243608 -0.27841,0 -0.52202,-0.06264 -0.24361,-0.05568 -0.48026,-0.180966 -0.22968,-0.125284 -0.46633,-0.31321 -0.22969,-0.187926 -0.48722,-0.452414 v 3.250423 q 0,0.04176 -0.0209,0.07656 -0.0209,0.0348 -0.0696,0.05568 -0.0418,0.02784 -0.12528,0.0348 -0.0766,0.01392 -0.20185,0.01392 -0.11832,0 -0.20185,-0.01392 -0.0766,-0.007 -0.12528,-0.0348 -0.0487,-0.02088 -0.0696,-0.05568 -0.0139,-0.0348 -0.0139,-0.07656 v -8.79772 q 0,-0.04872 0.0139,-0.08352 0.0209,-0.0348 0.0626,-0.05568 0.0487,-0.02088 0.11832,-0.02784 0.0766,-0.01392 0.18097,-0.01392 0.1044,0 0.174,0.01392 0.0696,0.007 0.11833,0.02784 0.0487,0.02088 0.0696,0.05568 0.0209,0.0348 0.0209,0.08352 v 0.911789 q 0.29233,-0.299289 0.55682,-0.515056 0.26449,-0.222727 0.52898,-0.368892 0.26448,-0.146164 0.54289,-0.215767 0.27841,-0.0696 0.59162,-0.0696 0.6821,0 1.16236,0.264489 0.48025,0.257528 0.77954,0.709942 0.30625,0.452415 0.4385,1.057954 0.1392,0.598579 0.1392,1.280681 z m -0.87003,0.132244 q 0,-0.528977 -0.0835,-1.016193 -0.0835,-0.494175 -0.28537,-0.876987 -0.19488,-0.382813 -0.52897,-0.6125 -0.32713,-0.229687 -0.82827,-0.229687 -0.25057,0 -0.49418,0.0696 -0.23664,0.0696 -0.48721,0.229687 -0.25057,0.160085 -0.52202,0.417614 -0.27145,0.250568 -0.57074,0.626419 v 2.742328 q 0.52202,0.63338 0.99532,0.974431 0.48025,0.33409 1.00227,0.33409 0.48025,0 0.8213,-0.229687 0.34801,-0.236647 0.56378,-0.612499 0.21577,-0.382813 0.31321,-0.856108 0.1044,-0.480255 0.1044,-0.96051 z"
           style="font-style:normal;font-variant:normal;font-weight:300;font-stretch:normal;font-size:14.25453377px;line-height:1.25;font-family:Calibri;-inkscape-font-specification:'Calibri Light';font-variant-ligatures:normal;font-variant-position:normal;font-variant-caps:normal;font-variant-numeric:normal;font-variant-alternates:normal;font-feature-settings:normal;text-indent:0;text-align:start;text-decoration-line:none;text-decoration-style:solid;text-decoration-color:#000000;letter-spacing:0px;word-spacing:0px;text-transform:none;writing-mode:lr-tb;direction:ltr;text-orientation:mixed;dominant-baseline:auto;text-anchor:start;white-space:normal;shape-padding:0;vector-effect:none;fill:#3fc6ee;fill-opacity:1;stroke:none;stroke-width:0.35636333;stroke-linecap:butt;stroke-linejoin:miter;stroke-miterlimit:4;stroke-dasharray:none;stroke-dashoffset:0;stroke-opacity:1"
           id="path881" />
        <path
           d="m -106.73562,63.29848 q 0,0.250568 -0.13225,0.348011 -0.13224,0.09048 -0.25752,0.09048 h -4.29446 q 0,0.584659 0.11136,1.057954 0.11833,0.473295 0.38281,0.814346 0.26449,0.33409 0.68907,0.515056 0.42457,0.180966 1.04403,0.180966 0.43849,0 0.78651,-0.07656 0.34801,-0.07656 0.59857,-0.167046 0.25753,-0.09744 0.41762,-0.174005 0.16704,-0.07656 0.23665,-0.07656 0.0418,0 0.0766,0.02088 0.0348,0.02088 0.0557,0.0696 0.0209,0.04176 0.0278,0.111364 0.0139,0.0696 0.0139,0.174005 0,0.04872 -0.007,0.09744 -0.007,0.04176 -0.0209,0.08352 -0.007,0.0348 -0.0278,0.0696 -0.0209,0.0348 -0.0557,0.0696 -0.0348,0.0348 -0.21577,0.125284 -0.18097,0.08352 -0.47329,0.174006 -0.29233,0.08352 -0.68211,0.153125 -0.38281,0.0696 -0.82826,0.0696 -0.73083,0 -1.2946,-0.215767 -0.56378,-0.222727 -0.94659,-0.6473 -0.38282,-0.431534 -0.58466,-1.064914 -0.19489,-0.633381 -0.19489,-1.468607 0,-0.800426 0.20185,-1.433806 0.2088,-0.63338 0.59162,-1.071874 0.38281,-0.445454 0.91875,-0.675141 0.54289,-0.236648 1.20411,-0.236648 0.70995,0 1.21108,0.236648 0.50114,0.236647 0.82131,0.64034 0.32713,0.396733 0.47329,0.92571 0.15313,0.528976 0.15313,1.113635 z m -0.85611,-0.243607 q 0.0209,-1.002272 -0.45937,-1.56605 -0.48026,-0.563778 -1.39901,-0.563778 -0.47329,0 -0.83522,0.180965 -0.35498,0.174006 -0.60554,0.466335 -0.24361,0.29233 -0.37586,0.682102 -0.13224,0.382812 -0.15312,0.800426 z"
           style="font-style:normal;font-variant:normal;font-weight:300;font-stretch:normal;font-size:14.25453377px;line-height:1.25;font-family:Calibri;-inkscape-font-specification:'Calibri Light';font-variant-ligatures:normal;font-variant-position:normal;font-variant-caps:normal;font-variant-numeric:normal;font-variant-alternates:normal;font-feature-settings:normal;text-indent:0;text-align:start;text-decoration-line:none;text-decoration-style:solid;text-decoration-color:#000000;letter-spacing:0px;word-spacing:0px;text-transform:none;writing-mode:lr-tb;direction:ltr;text-orientation:mixed;dominant-baseline:auto;text-anchor:start;white-space:normal;shape-padding:0;vector-effect:none;fill:#3fc6ee;fill-opacity:1;stroke:none;stroke-width:0.35636333;stroke-linecap:butt;stroke-linejoin:miter;stroke-miterlimit:4;stroke-dasharray:none;stroke-dashoffset:0;stroke-opacity:1"
           id="path883" />
        <path
           d="m -99.761482,60.326466 q 0.160085,0 0.215767,0.08352 0.05568,0.07656 0.05568,0.215767 v 6.145876 q 0,0.04176 -0.02088,0.07656 -0.02088,0.0348 -0.0696,0.05568 -0.04176,0.02088 -0.125284,0.0348 -0.07656,0.01392 -0.194887,0.01392 -0.125283,0 -0.208803,-0.01392 -0.0766,-0.01392 -0.12529,-0.0348 -0.0418,-0.02088 -0.0626,-0.05568 -0.0209,-0.0348 -0.0209,-0.07656 v -5.742183 h -3.48011 v 3.807241 q 0,0.716903 0.20185,1.092755 0.2088,0.375852 0.7517,0.375852 0.16705,0 0.29929,-0.0348 0.1392,-0.0348 0.24361,-0.07656 0.1044,-0.04176 0.174,-0.07656 0.0766,-0.0348 0.13225,-0.0348 0.0348,0 0.0626,0.01392 0.0278,0.01392 0.0418,0.05568 0.0209,0.0348 0.0278,0.09744 0.0139,0.05568 0.0139,0.146165 0,0.146165 -0.0278,0.236647 -0.0209,0.09048 -0.0766,0.146165 -0.0487,0.04872 -0.15313,0.09744 -0.0974,0.04176 -0.22968,0.0696 -0.13225,0.0348 -0.27841,0.04872 -0.14617,0.02088 -0.28537,0.02088 -0.46634,0 -0.79347,-0.125284 -0.32713,-0.125284 -0.53593,-0.375852 -0.20881,-0.257529 -0.30625,-0.647301 -0.0905,-0.389772 -0.0905,-0.918749 v -3.918605 h -0.93963 q -0.0974,0 -0.15312,-0.08352 -0.0557,-0.09048 -0.0557,-0.264488 0,-0.09048 0.0139,-0.153125 0.0139,-0.0696 0.0418,-0.111363 0.0278,-0.04872 0.0626,-0.0696 0.0418,-0.02088 0.0905,-0.02088 h 0.93963 v -1.54517 q 0,-0.04176 0.0139,-0.07656 0.0209,-0.0348 0.0696,-0.05568 0.0487,-0.02784 0.12528,-0.0348 0.0835,-0.01392 0.20185,-0.01392 0.12528,0 0.20184,0.01392 0.0835,0.007 0.12529,0.0348 0.0487,0.02088 0.0696,0.05568 0.0209,0.0348 0.0209,0.07656 v 1.54517 z m 0.396733,-1.976703 q 0,0.33409 -0.118324,0.452414 -0.118324,0.118324 -0.431534,0.118324 -0.306253,0 -0.424573,-0.111364 -0.11136,-0.118323 -0.11136,-0.452414 0,-0.334091 0.11832,-0.452414 0.11832,-0.118324 0.431533,-0.118324 0.30625,0 0.417614,0.118324 0.118324,0.111363 0.118324,0.445454 z m -2.115911,1.976703 z"
           style="font-style:normal;font-variant:normal;font-weight:300;font-stretch:normal;font-size:14.25453377px;line-height:1.25;font-family:Calibri;-inkscape-font-specification:'Calibri Light';font-variant-ligatures:normal;font-variant-position:normal;font-variant-caps:normal;font-variant-numeric:normal;font-variant-alternates:normal;font-feature-settings:normal;text-indent:0;text-align:start;text-decoration-line:none;text-decoration-style:solid;text-decoration-color:#000000;letter-spacing:0px;word-spacing:0px;text-transform:none;writing-mode:lr-tb;direction:ltr;text-orientation:mixed;dominant-baseline:auto;text-anchor:start;white-space:normal;shape-padding:0;vector-effect:none;fill:#3fc6ee;fill-opacity:1;stroke:none;stroke-width:0.35636333;stroke-linecap:butt;stroke-linejoin:miter;stroke-miterlimit:4;stroke-dasharray:none;stroke-dashoffset:0;stroke-opacity:1"
           id="path885" />
        <path
           d="m -92.049557,60.326466 q 0.160085,0 0.215767,0.08352 0.05568,0.07656 0.05568,0.215767 v 6.145876 q 0,0.04176 -0.02088,0.07656 -0.02088,0.0348 -0.0696,0.05568 -0.04176,0.02088 -0.125284,0.0348 -0.07656,0.01392 -0.194886,0.01392 -0.125284,0 -0.208807,-0.01392 -0.07656,-0.01392 -0.125284,-0.0348 -0.04176,-0.02088 -0.06264,-0.05568 -0.02088,-0.0348 -0.02088,-0.07656 v -5.742183 h -3.480111 v 3.807241 q 0,0.716903 0.201846,1.092755 0.208807,0.375852 0.751704,0.375852 0.167046,0 0.29929,-0.0348 0.139204,-0.0348 0.243608,-0.07656 0.104403,-0.04176 0.174005,-0.07656 0.07656,-0.0348 0.132244,-0.0348 0.0348,0 0.06264,0.01392 0.02784,0.01392 0.04176,0.05568 0.02088,0.0348 0.02784,0.09744 0.01392,0.05568 0.01392,0.146165 0,0.146165 -0.02784,0.236647 -0.02088,0.09048 -0.07656,0.146165 -0.04872,0.04872 -0.153125,0.09744 -0.09744,0.04176 -0.229688,0.0696 -0.132244,0.0348 -0.278408,0.04872 -0.146165,0.02088 -0.28537,0.02088 -0.466334,0 -0.793465,-0.125284 -0.32713,-0.125284 -0.535937,-0.375852 -0.208807,-0.257529 -0.30625,-0.647301 -0.09048,-0.389772 -0.09048,-0.918749 v -3.918605 h -0.93963 q -0.09744,0 -0.153125,-0.08352 -0.05568,-0.09048 -0.05568,-0.264488 0,-0.09048 0.01392,-0.153125 0.01392,-0.0696 0.04176,-0.111363 0.02784,-0.04872 0.06264,-0.0696 0.04176,-0.02088 0.09048,-0.02088 h 0.93963 v -1.54517 q 0,-0.04176 0.01392,-0.07656 0.02088,-0.0348 0.0696,-0.05568 0.04872,-0.02784 0.125284,-0.0348 0.08352,-0.01392 0.201847,-0.01392 0.125284,0 0.201846,0.01392 0.08352,0.007 0.125284,0.0348 0.04872,0.02088 0.0696,0.05568 0.02088,0.0348 0.02088,0.07656 v 1.54517 z m 0.396733,-1.976703 q 0,0.33409 -0.118324,0.452414 -0.118324,0.118324 -0.431533,0.118324 -0.30625,0 -0.424574,-0.111364 -0.111364,-0.118323 -0.111364,-0.452414 0,-0.334091 0.118324,-0.452414 0.118324,-0.118324 0.431534,-0.118324 0.30625,0 0.417613,0.118324 0.118324,0.111363 0.118324,0.445454 z m -2.115907,1.976703 z"
           style="font-style:normal;font-variant:normal;font-weight:300;font-stretch:normal;font-size:14.25453377px;line-height:1.25;font-family:Calibri;-inkscape-font-specification:'Calibri Light';font-variant-ligatures:normal;font-variant-position:normal;font-variant-caps:normal;font-variant-numeric:normal;font-variant-alternates:normal;font-feature-settings:normal;text-indent:0;text-align:start;text-decoration-line:none;text-decoration-style:solid;text-decoration-color:#000000;letter-spacing:0px;word-spacing:0px;text-transform:none;writing-mode:lr-tb;direction:ltr;text-orientation:mixed;dominant-baseline:auto;text-anchor:start;white-space:normal;shape-padding:0;vector-effect:none;fill:#3fc6ee;fill-opacity:1;stroke:none;stroke-width:0.35636333;stroke-linecap:butt;stroke-linejoin:miter;stroke-miterlimit:4;stroke-dasharray:none;stroke-dashoffset:0;stroke-opacity:1"
           id="path887" />
        <path
           d="m -84.636921,60.45871 q 0,0.02088 -0.007,0.04872 0,0.02088 -0.007,0.04176 0,0.02088 -0.007,0.04872 -0.007,0.02088 -0.01392,0.04176 l -2.282952,6.131955 q -0.02088,0.05568 -0.06264,0.09048 -0.04176,0.0348 -0.104404,0.05568 -0.06264,0.02088 -0.153125,0.02784 -0.08352,0.007 -0.201846,0.007 -0.118324,0 -0.208807,-0.01392 -0.09048,-0.007 -0.153125,-0.02784 -0.06264,-0.02088 -0.104403,-0.05568 -0.04176,-0.0348 -0.06264,-0.08352 l -2.282953,-6.131955 q -0.02088,-0.05568 -0.0348,-0.09048 -0.007,-0.0348 -0.01392,-0.05568 0,-0.02088 0,-0.0348 0,-0.04872 0.02088,-0.08352 0.02088,-0.0348 0.06264,-0.04872 0.04872,-0.02088 0.125284,-0.02784 0.07656,-0.007 0.187926,-0.007 0.153124,0 0.243607,0.01392 0.09048,0.007 0.139205,0.02784 0.05568,0.02088 0.07656,0.05568 0.02784,0.0348 0.04872,0.08352 l 1.969742,5.498575 0.01392,0.0348 0.01392,-0.0348 1.934942,-5.498575 q 0.01392,-0.04872 0.04176,-0.08352 0.02784,-0.0348 0.07656,-0.05568 0.05568,-0.02088 0.139204,-0.02784 0.09048,-0.01392 0.229687,-0.01392 0.111364,0 0.180966,0.007 0.07656,0.007 0.118324,0.02784 0.04176,0.02088 0.05568,0.05568 0.02088,0.02784 0.02088,0.07656 z"
           style="font-style:normal;font-variant:normal;font-weight:300;font-stretch:normal;font-size:14.25453377px;line-height:1.25;font-family:Calibri;-inkscape-font-specification:'Calibri Light';font-variant-ligatures:normal;font-variant-position:normal;font-variant-caps:normal;font-variant-numeric:normal;font-variant-alternates:normal;font-feature-settings:normal;text-indent:0;text-align:start;text-decoration-line:none;text-decoration-style:solid;text-decoration-color:#000000;letter-spacing:0px;word-spacing:0px;text-transform:none;writing-mode:lr-tb;direction:ltr;text-orientation:mixed;dominant-baseline:auto;text-anchor:start;white-space:normal;shape-padding:0;vector-effect:none;fill:#3fc6ee;fill-opacity:1;stroke:none;stroke-width:0.35636333;stroke-linecap:butt;stroke-linejoin:miter;stroke-miterlimit:4;stroke-dasharray:none;stroke-dashoffset:0;stroke-opacity:1"
           id="path889" />
        <path
           d="m -78.198714,63.29848 q 0,0.250568 -0.132245,0.348011 -0.132244,0.09048 -0.257528,0.09048 h -4.294457 q 0,0.584659 0.111364,1.057954 0.118324,0.473295 0.382812,0.814346 0.264489,0.33409 0.689062,0.515056 0.424574,0.180966 1.044033,0.180966 0.438494,0 0.786505,-0.07656 0.348011,-0.07656 0.598579,-0.167046 0.257529,-0.09744 0.417614,-0.174005 0.167045,-0.07656 0.236647,-0.07656 0.04176,0 0.07656,0.02088 0.0348,0.02088 0.05568,0.0696 0.02088,0.04176 0.02784,0.111364 0.01392,0.0696 0.01392,0.174005 0,0.04872 -0.007,0.09744 -0.007,0.04176 -0.02088,0.08352 -0.007,0.0348 -0.02784,0.0696 -0.02088,0.0348 -0.05568,0.0696 -0.0348,0.0348 -0.215767,0.125284 -0.180965,0.08352 -0.473295,0.174006 -0.292329,0.08352 -0.682101,0.153125 -0.382813,0.0696 -0.828267,0.0696 -0.730823,0 -1.294601,-0.215767 -0.563778,-0.222727 -0.94659,-0.6473 -0.382812,-0.431534 -0.584659,-1.064914 -0.194886,-0.633381 -0.194886,-1.468607 0,-0.800426 0.201846,-1.433806 0.208807,-0.63338 0.591619,-1.071874 0.382812,-0.445454 0.91875,-0.675141 0.542897,-0.236648 1.204118,-0.236648 0.709942,0 1.211078,0.236648 0.501136,0.236647 0.821307,0.64034 0.32713,0.396733 0.473295,0.92571 0.153125,0.528976 0.153125,1.113635 z m -0.856108,-0.243607 q 0.02088,-1.002272 -0.459374,-1.56605 -0.480256,-0.563778 -1.399005,-0.563778 -0.473295,0 -0.835226,0.180965 -0.354972,0.174006 -0.60554,0.466335 -0.243608,0.29233 -0.375852,0.682102 -0.132244,0.382812 -0.153125,0.800426 z"
           style="font-style:normal;font-variant:normal;font-weight:300;font-stretch:normal;font-size:14.25453377px;line-height:1.25;font-family:Calibri;-inkscape-font-specification:'Calibri Light';font-variant-ligatures:normal;font-variant-position:normal;font-variant-caps:normal;font-variant-numeric:normal;font-variant-alternates:normal;font-feature-settings:normal;text-indent:0;text-align:start;text-decoration-line:none;text-decoration-style:solid;text-decoration-color:#000000;letter-spacing:0px;word-spacing:0px;text-transform:none;writing-mode:lr-tb;direction:ltr;text-orientation:mixed;dominant-baseline:auto;text-anchor:start;white-space:normal;shape-padding:0;vector-effect:none;fill:#3fc6ee;fill-opacity:1;stroke:none;stroke-width:0.35636333;stroke-linecap:butt;stroke-linejoin:miter;stroke-miterlimit:4;stroke-dasharray:none;stroke-dashoffset:0;stroke-opacity:1"
           id="path891" />
      </g>
    </g>
  </g>
</svg>
