<?xml version="1.0" encoding="UTF-8" standalone="no"?>
<!-- Created with Inkscape (http://www.inkscape.org/) -->

<svg
   xmlns:dc="http://purl.org/dc/elements/1.1/"
   xmlns:cc="http://creativecommons.org/ns#"
   xmlns:rdf="http://www.w3.org/1999/02/22-rdf-syntax-ns#"
   xmlns:svg="http://www.w3.org/2000/svg"
   xmlns="http://www.w3.org/2000/svg"
   xmlns:sodipodi="http://sodipodi.sourceforge.net/DTD/sodipodi-0.dtd"
   xmlns:inkscape="http://www.inkscape.org/namespaces/inkscape"
   width="345.87289"
   height="95.964455"
   viewBox="0 0 91.512199 25.390595"
   version="1.1"
   id="svg8"
   sodipodi:docname="SciSharpCube.svg"
   inkscape:export-filename="tf.net.logo512.png"
   inkscape:export-xdpi="138.45558"
   inkscape:export-ydpi="138.45558"
   inkscape:version="0.92.3 (2405546, 2018-03-11)">
  <defs
     id="defs2" />
  <sodipodi:namedview
     id="base"
     pagecolor="#ffffff"
     bordercolor="#666666"
     borderopacity="1.0"
     inkscape:pageopacity="0.0"
     inkscape:pageshadow="2"
     inkscape:zoom="2.8"
     inkscape:cx="200.83261"
     inkscape:cy="3.8434614"
     inkscape:document-units="mm"
     inkscape:current-layer="layer1"
     showgrid="false"
     inkscape:snap-global="false"
     showguides="true"
     units="px"
     inkscape:guide-bbox="true"
     inkscape:window-width="1920"
     inkscape:window-height="1017"
     inkscape:window-x="1912"
     inkscape:window-y="-8"
     inkscape:window-maximized="1"
     fit-margin-top="0"
     fit-margin-left="0"
     fit-margin-right="0"
     fit-margin-bottom="0" />
  <metadata
     id="metadata5">
    <rdf:RDF>
      <cc:Work
         rdf:about="">
        <dc:format>image/svg+xml</dc:format>
        <dc:type
           rdf:resource="http://purl.org/dc/dcmitype/StillImage" />
        <dc:title></dc:title>
      </cc:Work>
    </rdf:RDF>
  </metadata>
  <g
     inkscape:label="Layer 1"
     inkscape:groupmode="layer"
     id="layer1"
     transform="translate(-14.85972,-284.39917)">
    <g
       id="g895">
      <rect
         inkscape:export-ydpi="368"
         inkscape:export-xdpi="368"
         inkscape:export-filename=".\g6243-6.png"
         y="284.39917"
         x="14.85972"
         height="25.390594"
         width="91.512199"
         id="rect1330-0-7"
         style="opacity:1;vector-effect:none;fill:none;fill-opacity:1;fill-rule:nonzero;stroke:none;stroke-width:0.17401719;stroke-linecap:butt;stroke-linejoin:miter;stroke-miterlimit:4;stroke-dasharray:none;stroke-dashoffset:0;stroke-opacity:1" />
      <g
         transform="translate(0,-1.2399727)"
         id="g882">
        <path
           sodipodi:nodetypes="ccccccc"
           style="fill:#661f76;fill-opacity:1;stroke:#ffffff;stroke-width:0.2110367;stroke-linecap:butt;stroke-linejoin:miter;stroke-miterlimit:4;stroke-dasharray:none;stroke-opacity:1"
           d="m 19.533019,293.3108 0.016,10.04674 8.775797,5.21831 9.15557,-5.26477 -0.0197,-10.10039 -8.800575,-5.11809 z"
           id="path1689-5"
           inkscape:connector-curvature="0" />
        <g
           id="g845"
           transform="matrix(1.0277443,0,0,1.0277443,31.051505,189.00357)">
          <path
             sodipodi:nodetypes="ccccc"
             inkscape:connector-curvature="0"
             id="rect1512-9-8-8"
             d="m -2.3294599,97.000255 8.031993,4.677455 -8.273187,4.68055 -8.0319941,-4.67746 z"
             style="opacity:1;vector-effect:none;fill:#3fc6ee;fill-opacity:1;fill-rule:nonzero;stroke:none;stroke-width:0.10341848;stroke-linecap:butt;stroke-linejoin:miter;stroke-miterlimit:4;stroke-dasharray:none;stroke-dashoffset:0;stroke-opacity:1" />
          <path
             sodipodi:nodetypes="ccccc"
             inkscape:connector-curvature="0"
             id="rect1512-3-6-1"
             d="m 5.7025331,101.67771 -8.273187,4.68055 v 9.30767 l 8.273187,-4.68056 z"
             style="opacity:1;vector-effect:none;fill:#865fc5;fill-opacity:1;fill-rule:nonzero;stroke:none;stroke-width:0.10341848;stroke-linecap:butt;stroke-linejoin:miter;stroke-miterlimit:4;stroke-dasharray:none;stroke-dashoffset:0;stroke-opacity:1" />
        </g>
      </g>
      <g
         aria-label="SciSharp Cube"
         style="font-style:normal;font-variant:normal;font-weight:normal;font-stretch:normal;font-size:10.58333302px;line-height:1.25;font-family:'Roboto Light';-inkscape-font-specification:'Roboto Light, ';letter-spacing:0px;word-spacing:0px;fill:#ffffff;fill-opacity:1;stroke:none;stroke-width:0.26458332"
         id="text874">
        <path
           d="m 46.480362,299.01006 q 0,-0.62528 -0.43925,-0.98702 -0.43925,-0.3669 -1.607137,-0.69246 -1.167887,-0.33073 -1.705322,-0.71831 -0.764811,-0.54777 -0.764811,-1.4366 0,-0.863 0.707967,-1.40043 0.713135,-0.5426 1.81901,-0.5426 0.749308,0 1.33842,0.28938 0.594279,0.28939 0.91984,0.80616 0.325562,0.51676 0.325562,1.15238 h -0.640788 q 0,-0.76998 -0.5271,-1.23507 -0.527099,-0.47025 -1.415934,-0.47025 -0.862996,0 -1.374593,0.38757 -0.511597,0.38241 -0.511597,1.00252 0,0.57361 0.459921,0.93535 0.45992,0.36173 1.472778,0.64079 1.012858,0.27388 1.53479,0.5736 0.521932,0.29456 0.785482,0.70797 0.26355,0.41341 0.26355,0.97669 0,0.88883 -0.713135,1.42626 -0.707967,0.53744 -1.870687,0.53744 -0.795817,0 -1.462443,-0.28422 -0.661458,-0.28422 -1.00769,-0.79582 -0.341065,-0.51159 -0.341065,-1.17305 h 0.63562 q 0,0.79581 0.594279,1.25573 0.594279,0.45992 1.581299,0.45992 0.878499,0 1.410767,-0.38757 0.532267,-0.38757 0.532267,-1.02836 z"
           style="letter-spacing:-0.5291667px;fill:#ffffff;stroke-width:0.26458332"
           id="path897" />
        <path
           d="m 49.878604,300.4415 q 0.645955,0 1.080037,-0.36174 0.43925,-0.3669 0.475424,-0.94568 h 0.594279 q -0.02584,0.5116 -0.320394,0.93535 -0.294556,0.41858 -0.785482,0.65629 -0.485759,0.23771 -1.043864,0.23771 -1.100708,0 -1.746663,-0.76481 -0.640788,-0.76481 -0.640788,-2.05672 v -0.18604 q 0,-0.82682 0.289388,-1.46244 0.289388,-0.63562 0.826823,-0.98185 0.542602,-0.34624 1.266072,-0.34624 0.919841,0 1.51412,0.54777 0.599446,0.54777 0.640788,1.44178 h -0.594279 q -0.04134,-0.65629 -0.475424,-1.05937 -0.428914,-0.40308 -1.085205,-0.40308 -0.837158,0 -1.302246,0.60462 -0.45992,0.60461 -0.45992,1.69498 v 0.18087 q 0,1.0697 0.45992,1.66915 0.465088,0.59945 1.307414,0.59945 z"
           style="letter-spacing:-0.5291667px;fill:#ffffff;stroke-width:0.26458332"
           id="path899" />
        <path
           d="m 53.431876,300.86008 h -0.620118 v -5.59139 h 0.620118 z m -0.728638,-7.20887 q 0,-0.1757 0.113688,-0.29455 0.113688,-0.12402 0.310059,-0.12402 0.19637,0 0.310058,0.12402 0.118856,0.11885 0.118856,0.29455 0,0.1757 -0.118856,0.29456 -0.113688,0.11886 -0.310058,0.11886 -0.196371,0 -0.310059,-0.11886 -0.113688,-0.11886 -0.113688,-0.29456 z"
           style="letter-spacing:-0.5291667px;fill:#ffffff;stroke-width:0.26458332"
           id="path901" />
        <path
           d="m 58.990192,299.01006 q 0,-0.62528 -0.439249,-0.98702 -0.43925,-0.3669 -1.607137,-0.69246 -1.167888,-0.33073 -1.705323,-0.71831 -0.764811,-0.54777 -0.764811,-1.4366 0,-0.863 0.707967,-1.40043 0.713135,-0.5426 1.819011,-0.5426 0.749308,0 1.338419,0.28938 0.594279,0.28939 0.919841,0.80616 0.325561,0.51676 0.325561,1.15238 h -0.640788 q 0,-0.76998 -0.527099,-1.23507 -0.5271,-0.47025 -1.415934,-0.47025 -0.862997,0 -1.374593,0.38757 -0.511597,0.38241 -0.511597,1.00252 0,0.57361 0.45992,0.93535 0.45992,0.36173 1.472778,0.64079 1.012859,0.27388 1.53479,0.5736 0.521932,0.29456 0.785482,0.70797 0.26355,0.41341 0.26355,0.97669 0,0.88883 -0.713135,1.42626 -0.707967,0.53744 -1.870687,0.53744 -0.795817,0 -1.462443,-0.28422 -0.661458,-0.28422 -1.00769,-0.79582 -0.341064,-0.51159 -0.341064,-1.17305 h 0.63562 q 0,0.79581 0.594279,1.25573 0.594279,0.45992 1.581298,0.45992 0.8785,0 1.410767,-0.38757 0.532267,-0.38757 0.532267,-1.02836 z"
           style="letter-spacing:-0.5291667px;fill:#ffffff;stroke-width:0.26458332"
           id="path903" />
        <path
           d="m 60.936326,296.21437 q 0.304891,-0.50127 0.780314,-0.77515 0.475424,-0.27389 1.038697,-0.27389 0.89917,0 1.338419,0.50643 0.43925,0.50643 0.444418,1.51929 v 3.66903 h -0.61495 v -3.6742 q -0.0052,-0.74931 -0.320394,-1.11621 -0.310058,-0.3669 -0.997355,-0.3669 -0.573608,0 -1.018026,0.36173 -0.439249,0.35657 -0.651123,0.96635 v 3.82923 h -0.614949 v -7.9375 h 0.614949 z"
           style="letter-spacing:-0.5291667px;fill:#ffffff;stroke-width:0.26458332"
           id="path905" />
        <path
           d="m 69.130141,300.86008 q -0.09302,-0.26355 -0.118855,-0.78032 -0.325562,0.42375 -0.831991,0.65629 -0.501261,0.22738 -1.064534,0.22738 -0.806153,0 -1.307414,-0.44959 -0.496094,-0.44958 -0.496094,-1.13688 0,-0.81648 0.676961,-1.29191 0.682129,-0.47542 1.896525,-0.47542 h 1.121379 v -0.63562 q 0,-0.59945 -0.37207,-0.94051 -0.366903,-0.34623 -1.07487,-0.34623 -0.645955,0 -1.069702,0.33073 -0.423747,0.33072 -0.423747,0.79581 l -0.620117,-0.005 q 0,-0.66662 0.620117,-1.15238 0.620117,-0.49093 1.524455,-0.49093 0.935343,0 1.472778,0.47026 0.542603,0.46509 0.558106,1.30225 v 2.64583 q 0,0.81132 0.170532,1.2144 v 0.062 z m -1.943033,-0.44442 q 0.620117,0 1.105875,-0.29972 0.490926,-0.29973 0.713135,-0.80099 v -1.2299 h -1.105876 q -0.925008,0.0103 -1.44694,0.34107 -0.521932,0.32556 -0.521932,0.89917 0,0.47025 0.346232,0.78031 0.3514,0.31006 0.909506,0.31006 z"
           style="letter-spacing:-0.5291667px;fill:#ffffff;stroke-width:0.26458332"
           id="path907" />
        <path
           d="m 73.319032,295.79579 q -0.196371,-0.0362 -0.418579,-0.0362 -0.578776,0 -0.981852,0.32556 -0.397909,0.3204 -0.568441,0.93535 v 3.83956 h -0.61495 v -5.59139 h 0.604615 l 0.01033,0.88883 q 0.490926,-0.99219 1.576131,-0.99219 0.258382,0 0.408244,0.0672 z"
           style="letter-spacing:-0.5291667px;fill:#ffffff;stroke-width:0.26458332"
           id="path909" />
        <path
           d="m 78.257233,298.12123 q 0,1.30741 -0.578777,2.07739 -0.578776,0.76481 -1.550292,0.76481 -1.147217,0 -1.756999,-0.80615 v 2.85254 h -0.61495 v -7.74113 h 0.573609 l 0.03101,0.79065 q 0.604614,-0.89401 1.751831,-0.89401 1.002522,0 1.570963,0.75965 0.573609,0.75964 0.573609,2.1084 z m -0.620118,-0.10852 q 0,-1.06971 -0.439249,-1.68982 -0.43925,-0.62012 -1.224732,-0.62012 -0.56844,0 -0.976684,0.27388 -0.408244,0.27389 -0.625285,0.79582 v 2.68201 q 0.222209,0.48059 0.63562,0.7338 0.413411,0.25322 0.976685,0.25322 0.780314,0 1.214396,-0.62012 0.439249,-0.62528 0.439249,-1.80867 z"
           style="letter-spacing:-0.5291667px;fill:#ffffff;stroke-width:0.26458332"
           id="path911" />
        <path
           d="m 86.500657,298.55531 q -0.10852,1.16272 -0.800984,1.788 -0.692465,0.62012 -1.881023,0.62012 -0.800984,0 -1.421101,-0.40308 -0.61495,-0.40824 -0.956014,-1.15238 -0.341065,-0.74931 -0.346232,-1.71049 v -1.16272 q 0,-0.96118 0.335896,-1.71566 0.335897,-0.75964 0.956014,-1.17305 0.625285,-0.41341 1.431437,-0.41341 1.178223,0 1.875855,0.62011 0.697632,0.62012 0.806152,1.77767 h -0.279053 q -0.118855,-1.03869 -0.72347,-1.57613 -0.604614,-0.5426 -1.679484,-0.5426 -1.09554,0 -1.772501,0.82682 -0.671794,0.82682 -0.671794,2.21692 v 1.10588 q 0,0.88883 0.299724,1.57613 0.299723,0.68213 0.857828,1.06453 0.563273,0.38241 1.286743,0.38241 1.080038,0 1.684652,-0.53227 0.609782,-0.53227 0.718302,-1.5968 z"
           style="font-style:normal;font-variant:normal;font-weight:normal;font-stretch:normal;font-family:'Roboto Thin';-inkscape-font-specification:'Roboto Thin, ';letter-spacing:-0.5291667px;fill:#ffffff"
           id="path913" />
        <path
           d="m 91.32,300.86008 v -0.90434 q -0.248047,0.46509 -0.72347,0.73897 -0.475424,0.26872 -1.204061,0.26872 -0.914673,0 -1.374593,-0.53227 -0.454753,-0.53743 -0.465088,-1.56063 v -3.60184 h 0.279052 v 3.61218 q 0.01034,0.88883 0.403077,1.34875 0.392741,0.45476 1.147216,0.45476 0.800985,0 1.302246,-0.37724 0.501262,-0.37724 0.635621,-1.10588 v -3.93257 h 0.28422 v 5.59139 z"
           style="font-style:normal;font-variant:normal;font-weight:normal;font-stretch:normal;font-family:'Roboto Thin';-inkscape-font-specification:'Roboto Thin, ';letter-spacing:-0.5291667px;fill:#ffffff"
           id="path915" />
        <path
           d="m 97.105694,298.11606 q 0,1.30741 -0.563273,2.07739 -0.563274,0.76998 -1.53479,0.76998 -0.630453,0 -1.126547,-0.25838 -0.496093,-0.26355 -0.780314,-0.72864 v 0.88367 h -0.279052 v -7.9375 h 0.279052 v 3.36413 q 0.294556,-0.55294 0.775147,-0.83716 0.485758,-0.28422 1.121378,-0.28422 0.981852,0 1.545126,0.75448 0.563273,0.74931 0.563273,2.1084 z m -0.289388,-0.10852 q 0,-1.20406 -0.480591,-1.88102 -0.475423,-0.68213 -1.333252,-0.68213 -0.7028,0 -1.193726,0.36173 -0.485758,0.36174 -0.707967,1.07487 v 2.56315 q 0.222209,0.59428 0.707967,0.91984 0.490926,0.3204 1.204061,0.3204 0.862997,0 1.333252,-0.6873 0.470256,-0.6873 0.470256,-1.98954 z"
           style="font-style:normal;font-variant:normal;font-weight:normal;font-stretch:normal;font-family:'Roboto Thin';-inkscape-font-specification:'Roboto Thin, ';letter-spacing:-0.5291667px;fill:#ffffff"
           id="path917" />
        <path
           d="m 100.10086,300.96343 q -0.676961,0 -1.245401,-0.36174 -0.563274,-0.3669 -0.883667,-1.00252 -0.320394,-0.63562 -0.320394,-1.41076 v -0.23255 q 0,-0.77514 0.310058,-1.4211 0.310059,-0.64596 0.852661,-1.00769 0.542603,-0.36174 1.183391,-0.36174 0.935342,0 1.529622,0.66663 0.59428,0.66663 0.59428,1.75183 v 0.29456 h -4.19096 v 0.30489 q 0,0.68213 0.284221,1.26607 0.289388,0.57878 0.790649,0.90951 0.506429,0.33072 1.09554,0.33072 0.56327,0 0.95601,-0.18603 0.39791,-0.1912 0.7028,-0.58394 l 0.19637,0.13952 q -0.62528,0.90434 -1.85518,0.90434 z m -0.103352,-5.51904 q -0.816488,0 -1.384929,0.60978 -0.56844,0.60461 -0.666626,1.54512 h 3.896407 v -0.0672 q 0,-0.56844 -0.24288,-1.05419 -0.23771,-0.49093 -0.66146,-0.75965 -0.41858,-0.27388 -0.940512,-0.27388 z"
           style="font-style:normal;font-variant:normal;font-weight:normal;font-stretch:normal;font-family:'Roboto Thin';-inkscape-font-specification:'Roboto Thin, ';letter-spacing:-0.5291667px;fill:#ffffff"
           id="path919" />
      </g>
    </g>
  </g>
</svg>
