<?xml version="1.0" encoding="UTF-8" standalone="no"?>
<svg
   xmlns:dc="http://purl.org/dc/elements/1.1/"
   xmlns:cc="http://creativecommons.org/ns#"
   xmlns:rdf="http://www.w3.org/1999/02/22-rdf-syntax-ns#"
   xmlns:svg="http://www.w3.org/2000/svg"
   xmlns="http://www.w3.org/2000/svg"
   xmlns:sodipodi="http://sodipodi.sourceforge.net/DTD/sodipodi-0.dtd"
   xmlns:inkscape="http://www.inkscape.org/namespaces/inkscape"
   version="1.0"
   width="1280.000000pt"
   height="640.000000pt"
   viewBox="0 0 1280.000000 640.000000"
   preserveAspectRatio="xMidYMid meet"
   id="svg32"
   sodipodi:docname="3rd_party_curiosity.ai.svg"
   inkscape:version="0.92.3 (2405546, 2018-03-11)">
  <defs
     id="defs36">
    <clipPath
       id="clipPath22"
       clipPathUnits="userSpaceOnUse">
      <path
         inkscape:connector-curvature="0"
         style="clip-rule:evenodd"
         id="path20-1"
         d="M 0,2955.9 H 6043.2 V 5153.1 H 0 Z" />
    </clipPath>
  </defs>
  <sodipodi:namedview
     pagecolor="#ffffff"
     bordercolor="#666666"
     borderopacity="1"
     objecttolerance="10"
     gridtolerance="10"
     guidetolerance="10"
     inkscape:pageopacity="0"
     inkscape:pageshadow="2"
     inkscape:window-width="1920"
     inkscape:window-height="1017"
     id="namedview34"
     showgrid="false"
     inkscape:zoom="0.16640625"
     inkscape:cx="1301.8151"
     inkscape:cy="263.05928"
     inkscape:window-x="1912"
     inkscape:window-y="-8"
     inkscape:window-maximized="1"
     inkscape:current-layer="svg32"
     borderlayer="true" />
  <metadata
     id="metadata2">
Created by potrace 1.15, written by Peter Selinger 2001-2017
<rdf:RDF>
  <cc:Work
     rdf:about="">
    <dc:format>image/svg+xml</dc:format>
    <dc:type
       rdf:resource="http://purl.org/dc/dcmitype/StillImage" />
    <dc:title></dc:title>
  </cc:Work>
</rdf:RDF>
</metadata>
  <g
     transform="matrix(1.2082073,0,0,1.2082073,-2.2471366,-1.6703928)"
     id="g823"
     style="stroke-width:0.62075442">
    <g
       transform="matrix(0.13333333,0,0,-0.13333333,0,793)"
       id="g16"
       style="stroke-width:0.62075442">
      <g
         id="g18"
         clip-path="url(#clipPath22)"
         style="stroke-width:0.62075442">
        <path
           inkscape:connector-curvature="0"
           d="m 490.875,3463.95 c -25.199,-20.63 -54,-36.52 -86.25,-47.7 -32.25,-11.25 -65.25,-16.8 -98.926,-16.8 -55.199,0 -105,12.3 -149.398,37.12 -44.403,24.75 -79.1994,58.88 -104.4768,102.38 -25.1992,43.5 -37.875,92.4 -37.875,146.7 0,54.15 12.9024,102.98 38.5508,146.48 25.7266,43.5 60.523,77.62 104.477,102.44 43.949,24.75 91.648,37.13 143.097,37.2 75.75,-0.07 139.875,-21.59 192.227,-64.5 l -35.102,-44.92 c -46.722,36.45 -97.722,54.67 -152.926,54.75 -41.097,-0.08 -78.75,-10.35 -112.875,-30.9 -34.125,-20.63 -61.273,-48.68 -81.375,-84.22 -20.0972,-35.55 -30.148,-74.33 -30.148,-116.33 0,-42.15 10.0508,-80.77 30.148,-115.8 20.102,-35.1 47.704,-62.92 82.801,-83.47 35.102,-20.63 74.102,-30.9 117.074,-30.83 52.352,-0.07 100.579,16.27 144.528,49.13 z m 647.855,495.23 V 3410.7 h -58.88 l -4.2,116.4 c -17.77,-38.4 -48.15,-69.97 -91.201,-94.72 -43.051,-24.75 -88.875,-37.13 -137.472,-37.13 -50.477,0 -91.352,15.15 -122.704,45.52 -31.347,30.38 -47.921,69.91 -49.875,118.58 v 399.83 h 65.926 V 3579 c 1.949,-37.5 13.653,-67.43 35.102,-89.85 21.523,-22.5 52.875,-34.58 93.972,-36.38 35.551,-0.07 69,9.23 100.352,27.98 31.35,18.68 56.32,44.4 75,77.18 18.75,32.7 28.05,69.14 28.05,109.42 v 291.83 z m 312.82,-130.5 c 19.65,43.95 51.97,78.97 96.83,105.22 44.85,26.1 89.77,39.67 134.62,40.73 l -2.77,-64.58 c -41.1,-0.07 -78.98,-9.23 -113.63,-27.37 -34.58,-18.3 -61.95,-43.5 -82.05,-75.75 -20.1,-32.33 -30.23,-67.66 -30.23,-105.91 V 3410.7 h -65.92 v 548.48 h 57.53 z m 482.77,130.5 V 3410.7 h -65.92 v 548.48 z m -79.94,202.2 c 0,13.05 4.94,24 14.69,32.92 9.83,8.85 21.31,13.27 34.36,13.35 13.12,-0.08 24.37,-4.5 33.67,-13.35 9.38,-8.92 14.03,-19.87 14.03,-32.92 0,-14.11 -4.65,-25.58 -14.03,-34.43 -9.3,-8.93 -20.55,-13.35 -33.67,-13.27 -13.05,-0.08 -24.53,4.57 -34.36,13.95 -9.75,9.3 -14.69,20.55 -14.69,33.75 z m 276.37,-472.95 c 0,52.27 12.9,100.64 38.55,145.12 25.72,44.4 61.05,79.43 105.9,105.22 44.93,25.66 94.5,38.55 148.73,38.63 54.22,-0.08 103.8,-12.97 148.64,-38.63 44.93,-25.79 80.03,-60.82 105.23,-105.22 25.27,-44.48 37.88,-92.85 37.88,-145.12 0,-53.41 -12.83,-102 -38.55,-145.95 -25.73,-43.96 -60.83,-78.83 -105.23,-104.48 -44.4,-25.8 -94.2,-38.55 -149.4,-38.55 -55.2,0 -105,12.3 -149.4,37.12 -44.4,24.75 -79.2,59.11 -104.47,103.06 -25.2,43.94 -37.88,93.52 -37.88,148.8 z m 65.93,-1.43 c 0,-42.15 10.05,-80.93 30.14,-116.48 20.11,-35.54 47.48,-63.59 82.06,-84.14 34.64,-20.63 72.52,-30.9 113.62,-30.83 41.18,-0.07 79.05,10.2 113.63,30.83 34.64,20.55 61.94,48.6 82.05,84.14 20.09,35.55 30.14,74.33 30.14,116.48 0,42 -10.05,81.07 -30.14,117.07 -20.11,36 -47.41,64.28 -82.05,84.91 -34.58,20.54 -72.45,30.82 -113.63,30.9 -42.07,-0.08 -80.4,-11.11 -115.05,-33 -34.57,-22.06 -61.65,-50.78 -81.3,-86.25 -19.65,-35.56 -29.47,-73.43 -29.47,-113.63 z m 844.8,-287.55 c -35.55,0 -69.91,6 -103.13,18.15 -33.15,12.15 -60.08,30.83 -80.62,56.17 l 30.82,43.5 c 18.75,-19.72 41.18,-35.39 67.35,-47.02 26.25,-11.7 53.33,-17.55 81.37,-17.48 35.55,-0.07 65.48,8.11 89.78,24.46 24.3,16.34 36.45,41.84 36.45,76.5 0,24.29 -6.52,43.65 -19.57,58.2 -13.05,14.47 -28.05,25.2 -44.93,32.25 -16.8,6.97 -43.95,16.57 -81.37,28.8 -43.95,14.92 -77.86,33.82 -101.7,56.77 -23.86,22.88 -35.78,53.55 -35.78,91.95 0,44.85 15.67,81.07 47.03,108.68 31.34,27.52 71.32,41.32 119.92,41.39 67.35,-0.07 122.1,-20.62 164.1,-61.72 l -29.47,-46.28 c -13.96,18.61 -32.41,32.18 -55.35,40.66 -22.95,8.39 -46.06,13.05 -69.45,14.02 -28.05,-0.07 -53.48,-7.8 -76.43,-23.18 -22.95,-15.45 -34.43,-37.2 -34.43,-65.17 0,-29.1 10.36,-50.85 30.91,-65.33 20.54,-14.54 51.9,-29.25 93.97,-44.09 51.45,-16.88 90.75,-35.86 117.82,-56.86 27.16,-21.07 40.66,-53.09 40.66,-96.07 0,-50.55 -16.13,-91.27 -48.38,-122.1 -32.25,-30.9 -78.75,-46.2 -139.57,-46.2 z m 452.84,559.73 V 3410.7 h -65.92 v 548.48 z m -79.94,202.2 c 0,13.05 4.94,24 14.69,32.92 9.83,8.85 21.31,13.27 34.36,13.35 13.12,-0.08 24.37,-4.5 33.67,-13.35 9.38,-8.92 14.03,-19.87 14.03,-32.92 0,-14.11 -4.65,-25.58 -14.03,-34.43 -9.3,-8.93 -20.55,-13.35 -33.67,-13.27 -13.05,-0.08 -24.53,4.57 -34.36,13.95 -9.75,9.3 -14.69,20.55 -14.69,33.75 z m 451.72,39.07 v -248.32 h 169.72 v -53.25 H 3866.1 V 3410.7 h -67.35 v 488.18 h -116.48 v 53.25 h 116.48 v 248.32 z m 806.7,-241.27 -353.55,-812.25 h -68.7 l 117.83,269.32 -253.95,542.93 h 74.39 l 213.23,-467.18 206.18,467.18 z m 113.93,-500.78 c 0,12.98 4.72,24.15 14.02,33.53 9.38,9.3 20.1,14.02 32.25,14.09 12.15,-0.07 23.18,-4.79 33,-14.09 9.82,-9.38 14.7,-20.55 14.7,-33.53 0,-13.2 -4.88,-24.45 -14.7,-33.75 -9.82,-9.38 -20.85,-13.95 -33,-13.95 -12.15,0 -22.87,4.35 -32.25,13.28 -9.3,8.84 -14.02,20.32 -14.02,34.42 z m 816.59,500.78 V 3410.7 h -66 v 116.4 c -21.44,-35.62 -54.22,-65.78 -98.17,-90.53 -43.95,-24.82 -91.65,-37.12 -143.1,-37.12 -52.35,0 -99.75,11.85 -142.35,35.7 -42.52,23.85 -76.2,57.53 -100.95,101.03 -24.75,43.42 -37.2,93.22 -37.2,149.47 0,59.78 12.9,111.45 38.55,154.95 25.72,43.42 61.28,76.88 106.65,100.28 45.38,23.32 96.52,35.02 153.52,35.1 44.93,-0.08 87.98,-12.75 129.08,-37.96 41.18,-25.27 72.53,-57.97 93.97,-98.09 l 7.06,119.25 z m -293.25,-503.63 c 61.81,-0.07 114.16,19.05 157.2,57.45 43.05,38.32 66.38,87.45 70.05,147.38 v 78.52 c -11.17,51.37 -38.25,94.35 -81.3,129 -43.04,34.58 -92.09,51.9 -147.29,51.98 -42.08,-0.08 -80.41,-9.68 -115.05,-28.81 -34.58,-19.19 -61.95,-46.34 -82.05,-81.37 -20.11,-35.1 -30.15,-75.52 -30.15,-121.27 0,-42.16 10.34,-81 30.9,-116.48 20.55,-35.55 48.37,-63.9 83.4,-84.9 35.1,-21.07 73.2,-31.57 114.29,-31.5 z m 608.25,503.63 V 3410.7 h -65.92 v 548.48 z m -79.94,202.2 c 0,13.05 4.94,24 14.69,32.92 9.83,8.85 21.31,13.27 34.36,13.35 13.12,-0.08 24.37,-4.5 33.67,-13.35 9.38,-8.92 14.03,-19.87 14.03,-32.92 0,-14.11 -4.65,-25.58 -14.03,-34.43 -9.3,-8.93 -20.55,-13.35 -33.67,-13.27 -13.05,-0.08 -24.53,4.57 -34.36,13.95 -9.75,9.3 -14.69,20.55 -14.69,33.75 v 0"
           style="fill:#ffffff;fill-opacity:1;fill-rule:nonzero;stroke:none;stroke-width:0.62075442"
           id="path24-1" />
      </g>
    </g>
    <path
       inkscape:connector-curvature="0"
       id="path26-1"
       d="m 938.88086,82.080078 0.002,0.320313 h -0.002 l 0.004,0.4375 0.15429,36.042969 3.8418,44 0.0391,-0.041 0.59961,1.80078 -2.87891,4.47852 0.0566,-0.004 -1.49805,2.24415 0.0606,0.0586 -0.0352,0.0762 -0.0254,0.0254 0.01,0.01 -1.58398,3.45312 -0.98438,-0.42187 -0.96093,-0.48047 -6.71875,-3.19922 -0.0215,0.004 -22.82812,-10.31836 -0.0312,-0.0859 -0.0508,0.0508 -0.10938,-0.0508 0.043,0.11719 -0.043,0.043 5.21289,14.21876 -0.0937,0.0215 8.75,22.11133 -15.14844,9.56836 0.0391,0.0742 -8.19922,5.04492 -4.64063,5.43945 0.002,0.0371 -14.93555,18.39453 -0.10547,-0.0312 -13.4414,21.59961 -0.3086,4.32813 -0.0117,-0.008 -0.1582,6.24024 -20.16797,24.26367 -0.15234,0.0566 0.041,0.0801 -0.20117,0.24023 0.20313,-0.0762 3.95703,7.75586 7.83984,15.67969 6.87891,7.67969 0.31054,0.19921 17.92969,19.32227 11.66016,-0.31055 0.0195,0.15039 0.11523,-0.15429 0.20508,-0.006 -0.0156,-0.01 21.13671,-0.63086 20.47266,6.03125 0.006,0.0488 0.0371,-0.0371 0.12305,0.0371 4.07617,4.85938 -3.42969,2.38476 -0.006,-0.0449 -3.51953,2.56055 -0.0254,0.0351 -15.17578,10.68555 -20.1582,18.25586 -0.002,-0.0156 -26.39844,23.83985 0.17969,-0.0332 -13.93945,12.67188 0.1582,0.16016 h 0.002 l 23.19921,23.20117 0.0488,-0.10743 5.55078,6.02735 h 47.19922 l -0.002,-0.002 15.73828,-0.15625 16.58594,0.31445 -0.002,0.004 29.75976,-0.16015 40.16015,-0.16016 26.248,0.47266 0.3125,0.008 v -0.002 l 0.1602,0.002 0.791,-24.4707 0.01,-0.01 -0.01,-0.01 v -0.14649 l 0.01,-0.004 v -0.10743 -0.0527 0.002 l -0.1582,-10.19336 0.1582,-22.93164 v 0.004 -0.0508 -0.26953 l -0.014,-0.0234 -0.9473,-25.57617 v -32.64063 l -1.4394,-20 -0.012,0.0254 -0.3086,-7.70508 -0.012,-0.004 -1.9082,-25.75586 -8.6407,-42.56055 -0.035,0.0332 -0.7305,-2.63282 0.127,0.0391 -0.6407,-3.35938 -19.6797,-42.24023 -16.6562,-23.31836 0.016,-0.041 -2.5957,-3.35937 0.035,-0.002 -29.68947,-37.34961 0.0898,-0.0898 z"
       style="fill:#ffffff;fill-opacity:1;fill-rule:evenodd;stroke:none;stroke-width:0.08276726" />
  </g>
</svg>
