<?xml version="1.0" encoding="UTF-8" standalone="no"?>
<!-- Created with Inkscape (http://www.inkscape.org/) -->

<svg
   xmlns:dc="http://purl.org/dc/elements/1.1/"
   xmlns:cc="http://creativecommons.org/ns#"
   xmlns:rdf="http://www.w3.org/1999/02/22-rdf-syntax-ns#"
   xmlns:svg="http://www.w3.org/2000/svg"
   xmlns="http://www.w3.org/2000/svg"
   xmlns:sodipodi="http://sodipodi.sourceforge.net/DTD/sodipodi-0.dtd"
   xmlns:inkscape="http://www.inkscape.org/namespaces/inkscape"
   width="46.808327mm"
   height="11.957789mm"
   viewBox="0 0 46.808326 11.957789"
   version="1.1"
   id="svg2755"
   inkscape:version="0.92.3 (2405546, 2018-03-11)"
   sodipodi:docname="scisharp-stack.svg"
   inkscape:export-filename="scisharp-stack.png"
   inkscape:export-xdpi="531.2431"
   inkscape:export-ydpi="531.2431">
  <defs
     id="defs2749" />
  <sodipodi:namedview
     id="base"
     pagecolor="#ffffff"
     bordercolor="#666666"
     borderopacity="1.0"
     inkscape:pageopacity="0.0"
     inkscape:pageshadow="2"
     inkscape:zoom="4.0000001"
     inkscape:cx="54.370638"
     inkscape:cy="-7.8542254"
     inkscape:document-units="mm"
     inkscape:current-layer="layer1"
     showgrid="false"
     fit-margin-top="0"
     fit-margin-left="0"
     fit-margin-right="0"
     fit-margin-bottom="0"
     inkscape:window-width="1920"
     inkscape:window-height="1017"
     inkscape:window-x="-8"
     inkscape:window-y="-8"
     inkscape:window-maximized="1"
     showguides="true"
     inkscape:guide-bbox="true"
     inkscape:snap-global="false" />
  <metadata
     id="metadata2752">
    <rdf:RDF>
      <cc:Work
         rdf:about="">
        <dc:format>image/svg+xml</dc:format>
        <dc:type
           rdf:resource="http://purl.org/dc/dcmitype/StillImage" />
        <dc:title />
      </cc:Work>
    </rdf:RDF>
  </metadata>
  <g
     inkscape:label="Layer 1"
     inkscape:groupmode="layer"
     id="layer1"
     transform="translate(8.972682,-25.142704)">
    <rect
       style="opacity:1;vector-effect:none;fill:#661f76;fill-opacity:1;fill-rule:nonzero;stroke:none;stroke-width:0.65703809;stroke-linecap:butt;stroke-linejoin:miter;stroke-miterlimit:4;stroke-dasharray:none;stroke-dashoffset:0;stroke-opacity:1"
       id="rect1107-9-4-2-0-9-8-1-0"
       width="40.061451"
       height="23.17827"
       x="60.908108"
       y="-13.137053"
       ry="0" />
    <g
       transform="matrix(0.44504698,0,0,0.44504698,71.70751,-151.44418)"
       id="g2390-1-1"
       style="stroke-width:0.5945065">
      <g
         transform="translate(2.1606054,49.500006)"
         id="g2136-6-7-8"
         style="stroke-width:0.5945065">
        <path
           inkscape:connector-curvature="0"
           id="path926-1-2-6-4-6-5-2-9-6-3-0-3"
           d="m 18.75,268.86914 c -1.956618,0.004 -3.900722,0.1631 -5.773438,0.47461 l -0.271484,0.0449 -0.177734,0.21094 c -1.215569,1.4488 -2.337314,3.03487 -3.3320315,4.70898 -1.0350463,1.74492 -1.9191059,3.56564 -2.6230469,5.40039 l -0.1035156,0.26563 0.1015625,0.26562 c 0.7025799,1.8405 1.5886291,3.66656 2.625,5.41797 v 0.002 c 0.9925975,1.67114 2.1114145,3.25425 3.3242185,4.70117 l 0.177735,0.20898 0.269531,0.0469 c 1.874445,0.31443 3.823407,0.47659 5.783203,0.48242 h 0.002 c 1.95537,-0.004 3.899965,-0.16525 5.771485,-0.47656 l 0.271484,-0.0449 0.175781,-0.20898 c 1.216757,-1.44849 2.339947,-3.03454 3.335938,-4.70898 v -0.002 c 1.033905,-1.74521 1.918454,-3.56395 2.621093,-5.39843 l 0.101563,-0.26563 -0.101563,-0.26562 c -0.701277,-1.84023 -1.583909,-3.66626 -2.61914,-5.41797 l -0.002,-0.002 c -0.993874,-1.67146 -2.114134,-3.25457 -3.328125,-4.70117 l -0.175782,-0.21094 -0.271484,-0.0449 c -1.873252,-0.31422 -3.818799,-0.4764 -5.777344,-0.48242 h -0.002 z m -0.002,1.48828 h 0.0039 c 1.781829,0.006 3.545667,0.16684 5.25,0.4375 1.091995,1.32441 2.120887,2.75228 3.025391,4.27344 0.942083,1.59428 1.728378,3.25733 2.380859,4.92383 -0.653584,1.66112 -1.440121,3.31811 -2.380859,4.90625 -0.906518,1.52402 -1.936673,2.95499 -3.03125,4.28125 -1.702668,0.26804 -3.463391,0.42778 -5.242188,0.43164 -1.784371,-0.005 -3.551068,-0.1684 -5.257812,-0.43945 -1.090582,-1.32428 -2.11837,-2.75116 -3.021485,-4.27149 v -0.002 c -0.9428329,-1.59352 -1.7311936,-3.25563 -2.3847652,-4.92188 0.654994,-1.66195 1.4425871,-3.31984 2.3847652,-4.9082 0.905335,-1.52368 1.935808,-2.95278 3.029297,-4.2793 1.703789,-0.26821 3.464173,-0.42796 5.244141,-0.43164 z"
           style="color:#000000;font-style:normal;font-variant:normal;font-weight:normal;font-stretch:normal;font-size:medium;line-height:normal;font-family:sans-serif;font-variant-ligatures:normal;font-variant-position:normal;font-variant-caps:normal;font-variant-numeric:normal;font-variant-alternates:normal;font-feature-settings:normal;text-indent:0;text-align:start;text-decoration:none;text-decoration-line:none;text-decoration-style:solid;text-decoration-color:#000000;letter-spacing:normal;word-spacing:normal;text-transform:none;writing-mode:lr-tb;direction:ltr;text-orientation:mixed;dominant-baseline:auto;baseline-shift:baseline;text-anchor:start;white-space:normal;shape-padding:0;clip-rule:nonzero;display:inline;overflow:visible;visibility:visible;opacity:1;isolation:auto;mix-blend-mode:normal;color-interpolation:sRGB;color-interpolation-filters:linearRGB;solid-color:#000000;solid-opacity:1;vector-effect:none;fill:#865fc5;fill-opacity:1;fill-rule:nonzero;stroke:none;stroke-width:0.88473952;stroke-linecap:butt;stroke-linejoin:miter;stroke-miterlimit:4;stroke-dasharray:none;stroke-dashoffset:0;stroke-opacity:1;color-rendering:auto;image-rendering:auto;shape-rendering:auto;text-rendering:auto;enable-background:accumulate" />
        <g
           id="text1024-3-5-6-6-6-5-7-9-9-8-8-4"
           style="font-style:normal;font-weight:normal;font-size:19.89817238px;line-height:1.25;font-family:sans-serif;letter-spacing:0px;word-spacing:0px;opacity:1;vector-effect:none;fill:#ffffff;fill-opacity:1;stroke:none;stroke-width:1.17505014;stroke-linecap:butt;stroke-linejoin:miter;stroke-miterlimit:4;stroke-dasharray:none;stroke-dashoffset:0;stroke-opacity:1"
           aria-label="#">
          <path
             inkscape:connector-curvature="0"
             id="path824"
             style="vector-effect:none;fill:#ffffff;fill-opacity:1;stroke:none;stroke-width:1.17505014;stroke-linecap:butt;stroke-linejoin:miter;stroke-miterlimit:4;stroke-dasharray:none;stroke-dashoffset:0;stroke-opacity:1"
             d="m 24.996652,278.16206 h -3.235397 l -0.893863,3.65318 h 2.992499 v 1.31165 h -3.332555 l -1.010455,4.0904 H 18.26353 l 1.010454,-4.0904 H 16.65069 l -1.010454,4.0904 h -1.253352 l 1.010454,-4.0904 h -2.89534 v -1.31165 h 3.235397 l 0.893863,-3.65318 h -2.992499 v -1.31164 h 3.332556 l 1.020169,-4.10012 h 1.253352 l -1.02017,4.10012 h 2.623294 l 1.02017,-4.10012 h 1.253352 l -1.02017,4.10012 h 2.89534 z m -4.459601,-0.0194 h -2.662157 l -0.913295,3.69204 h 2.662157 z" />
        </g>
        <path
           sodipodi:nodetypes="cccccccccccccccccccccc"
           style="color:#000000;font-style:normal;font-variant:normal;font-weight:normal;font-stretch:normal;font-size:medium;line-height:normal;font-family:sans-serif;font-variant-ligatures:normal;font-variant-position:normal;font-variant-caps:normal;font-variant-numeric:normal;font-variant-alternates:normal;font-feature-settings:normal;text-indent:0;text-align:start;text-decoration:none;text-decoration-line:none;text-decoration-style:solid;text-decoration-color:#000000;letter-spacing:normal;word-spacing:normal;text-transform:none;writing-mode:lr-tb;direction:ltr;text-orientation:mixed;dominant-baseline:auto;baseline-shift:baseline;text-anchor:start;white-space:normal;shape-padding:0;clip-rule:nonzero;display:inline;overflow:visible;visibility:visible;opacity:1;isolation:auto;mix-blend-mode:normal;color-interpolation:sRGB;color-interpolation-filters:linearRGB;solid-color:#000000;solid-opacity:1;vector-effect:none;fill:#3fc6ee;fill-opacity:1;fill-rule:nonzero;stroke:none;stroke-width:0.88473952;stroke-linecap:butt;stroke-linejoin:miter;stroke-miterlimit:4;stroke-dasharray:none;stroke-dashoffset:0;stroke-opacity:1;color-rendering:auto;image-rendering:auto;shape-rendering:auto;text-rendering:auto;enable-background:accumulate"
           d="m 18.750997,268.87325 c -1.956618,0.004 -3.900723,0.1631 -5.773438,0.47461 l -0.271484,0.0449 0.797778,1.39625 c 1.702053,-0.26768 3.469124,-0.42382 5.247144,-0.4275 h 0.0039 c 1.782454,0.006 3.545117,0.16665 5.25,0.4375 1.091427,1.32372 2.11929,2.7512 3.023438,4.27149 0.94292,1.59551 1.729961,3.2599 2.382812,4.92773 -0.0013,0.003 -0.0026,0.007 -0.0039,0.01 l 1.615235,0.008 0.0078,-0.0176 -0.101563,-0.26562 c -0.701268,-1.84026 -1.583909,-3.66626 -2.619141,-5.41797 v -0.002 h -0.002 c -0.993823,-1.67146 -2.114083,-3.25458 -3.328075,-4.70118 l -0.175781,-0.21093 -0.271484,-0.0449 c -1.873252,-0.31422 -3.818799,-0.4764 -5.777344,-0.48242 h -0.002 z"
           id="path926-1-2-6-4-6-5-2-9-5-2-1-1-0"
           inkscape:connector-curvature="0" />
      </g>
    </g>
    <g
       id="g861"
       transform="translate(-12.858884,-22.781173)">
      <g
         transform="matrix(0.26458333,0,0,0.26458333,36.534475,-94.656832)"
         aria-label="SciSharp"
         style="font-style:normal;font-variant:normal;font-weight:300;font-stretch:normal;font-size:19.58213997px;line-height:1.25;font-family:Calibri;-inkscape-font-specification:'Calibri Light';font-variant-ligatures:normal;font-variant-position:normal;font-variant-caps:normal;font-variant-numeric:normal;font-variant-alternates:normal;font-feature-settings:normal;text-indent:0;text-align:start;text-decoration:none;text-decoration-line:none;text-decoration-style:solid;text-decoration-color:#000000;letter-spacing:0px;word-spacing:0px;text-transform:none;writing-mode:lr-tb;direction:ltr;text-orientation:mixed;dominant-baseline:auto;baseline-shift:baseline;text-anchor:start;white-space:normal;shape-padding:0;opacity:1;vector-effect:none;fill:#ffffff;fill-opacity:1;stroke:none;stroke-width:4.54705524;stroke-linecap:butt;stroke-linejoin:miter;stroke-miterlimit:4;stroke-dasharray:none;stroke-dashoffset:0;stroke-opacity:1"
         id="text1082-7-6-0-5-1-6-3-8">
        <path
           d="m -120.09727,437.56955 q 0,0.8223 -0.29641,1.47249 -0.29641,0.65018 -0.83186,1.10914 -0.53545,0.44939 -1.27169,0.68843 -0.73624,0.23904 -1.60635,0.23904 -0.59281,0 -1.1187,-0.11473 -0.52589,-0.10518 -0.93704,-0.25817 -0.41115,-0.15298 -0.69799,-0.30597 -0.27729,-0.16255 -0.38247,-0.26772 -0.10517,-0.11474 -0.15298,-0.25817 -0.0478,-0.15298 -0.0478,-0.3729 0,-0.16255 0.0191,-0.26772 0.0191,-0.10518 0.0478,-0.17211 0.0382,-0.0669 0.0861,-0.0861 0.0574,-0.0287 0.11474,-0.0287 0.13387,0 0.37291,0.17211 0.2486,0.16254 0.63106,0.36334 0.39203,0.19123 0.92748,0.36334 0.54501,0.16255 1.26213,0.16255 0.58325,0 1.07089,-0.15299 0.48765,-0.16255 0.84142,-0.45896 0.35378,-0.29641 0.54501,-0.72668 0.2008,-0.43983 0.2008,-0.9944 0,-0.5737 -0.2486,-0.98485 -0.2486,-0.41114 -0.65975,-0.71712 -0.40159,-0.31553 -0.91792,-0.56413 -0.51632,-0.25816 -1.06133,-0.50676 -0.53545,-0.25817 -1.05178,-0.55458 -0.51632,-0.29641 -0.92747,-0.68843 -0.40159,-0.40159 -0.65019,-0.93704 -0.2486,-0.53545 -0.2486,-1.27169 0,-0.71712 0.25816,-1.28125 0.25816,-0.5737 0.72668,-0.96572 0.46852,-0.40159 1.11871,-0.61194 0.65975,-0.21036 1.4438,-0.21036 0.39202,0 0.79361,0.0765 0.40159,0.0765 0.75537,0.2008 0.36334,0.11474 0.64062,0.26772 0.28685,0.14342 0.37291,0.23904 0.0956,0.0861 0.11473,0.13386 0.0287,0.0383 0.0478,0.10518 0.0191,0.0669 0.0287,0.16255 0.01,0.0861 0.01,0.21991 0,0.12431 -0.0191,0.22948 -0.01,0.0956 -0.0383,0.17211 -0.0287,0.0669 -0.0765,0.10518 -0.0383,0.0383 -0.0956,0.0383 -0.10518,0 -0.32509,-0.13387 -0.21036,-0.14342 -0.53545,-0.31553 -0.3251,-0.17211 -0.77449,-0.30597 -0.4494,-0.14342 -1.02309,-0.14342 -0.56414,0 -0.98485,0.15298 -0.42071,0.15299 -0.69799,0.42071 -0.27729,0.25816 -0.42071,0.61194 -0.13386,0.35378 -0.13386,0.74581 0,0.57369 0.2486,0.98484 0.2486,0.41115 0.65975,0.72668 0.41115,0.31553 0.92747,0.5737 0.52589,0.2486 1.06134,0.50676 0.54501,0.2486 1.06133,0.54501 0.52589,0.28685 0.93704,0.68844 0.41115,0.39202 0.65975,0.92747 0.2486,0.52589 0.2486,1.25257 z"
           style="font-style:normal;font-variant:normal;font-weight:300;font-stretch:normal;font-size:19.58213997px;line-height:1.25;font-family:Calibri;-inkscape-font-specification:'Calibri Light';font-variant-ligatures:normal;font-variant-position:normal;font-variant-caps:normal;font-variant-numeric:normal;font-variant-alternates:normal;font-feature-settings:normal;text-indent:0;text-align:start;text-decoration:none;text-decoration-line:none;text-decoration-style:solid;text-decoration-color:#000000;letter-spacing:0px;word-spacing:0px;text-transform:none;writing-mode:lr-tb;direction:ltr;text-orientation:mixed;dominant-baseline:auto;text-anchor:start;white-space:normal;shape-padding:0;vector-effect:none;fill:#ffffff;fill-opacity:1;stroke:none;stroke-width:4.54705524;stroke-linecap:butt;stroke-linejoin:miter;stroke-miterlimit:4;stroke-dasharray:none;stroke-dashoffset:0;stroke-opacity:1"
           id="path827"
           inkscape:connector-curvature="0" />
        <path
           d="m -111.65438,439.44362 q 0,0.11474 -0.01,0.21036 -0.01,0.0861 -0.0287,0.15298 -0.0191,0.0669 -0.0574,0.1243 -0.0287,0.0478 -0.15298,0.17211 -0.1243,0.1243 -0.42071,0.31553 -0.28685,0.19124 -0.65019,0.33466 -0.36334,0.14342 -0.78405,0.22948 -0.42071,0.0956 -0.87011,0.0956 -0.89879,0 -1.59678,-0.29641 -0.68844,-0.30597 -1.15696,-0.88922 -0.46851,-0.59282 -0.71712,-1.4438 -0.23903,-0.86055 -0.23903,-1.97925 0,-1.26213 0.2964,-2.16092 0.30598,-0.89879 0.83186,-1.47249 0.52589,-0.57369 1.22389,-0.84142 0.70755,-0.27728 1.51073,-0.27728 0.43027,0 0.8223,0.0861 0.39202,0.0765 0.71711,0.21036 0.33466,0.13386 0.59282,0.30597 0.25817,0.1721 0.37291,0.29641 0.1243,0.11473 0.16254,0.18167 0.0478,0.0574 0.0669,0.13386 0.0287,0.0765 0.0383,0.17211 0.01,0.0861 0.01,0.21035 0,0.27729 -0.0861,0.39203 -0.0765,0.10517 -0.17211,0.10517 -0.13386,0 -0.33466,-0.1721 -0.19123,-0.17211 -0.4972,-0.37291 -0.30597,-0.21035 -0.7458,-0.38246 -0.43028,-0.17211 -1.03266,-0.17211 -1.243,0 -1.92188,0.95616 -0.66931,0.95616 -0.66931,2.7633 0,0.90835 0.18167,1.59679 0.18167,0.67887 0.51633,1.13783 0.34422,0.44939 0.83186,0.67887 0.48764,0.21992 1.09958,0.21992 0.5737,0 1.01353,-0.18167 0.43983,-0.18167 0.76493,-0.40159 0.32509,-0.21992 0.53545,-0.40159 0.21991,-0.18167 0.32509,-0.18167 0.0574,0 0.0956,0.0383 0.0478,0.0287 0.0765,0.10518 0.0287,0.0669 0.0382,0.1721 0.0191,0.0956 0.0191,0.22948 z"
           style="font-style:normal;font-variant:normal;font-weight:300;font-stretch:normal;font-size:19.58213997px;line-height:1.25;font-family:Calibri;-inkscape-font-specification:'Calibri Light';font-variant-ligatures:normal;font-variant-position:normal;font-variant-caps:normal;font-variant-numeric:normal;font-variant-alternates:normal;font-feature-settings:normal;text-indent:0;text-align:start;text-decoration:none;text-decoration-line:none;text-decoration-style:solid;text-decoration-color:#000000;letter-spacing:0px;word-spacing:0px;text-transform:none;writing-mode:lr-tb;direction:ltr;text-orientation:mixed;dominant-baseline:auto;text-anchor:start;white-space:normal;shape-padding:0;vector-effect:none;fill:#ffffff;fill-opacity:1;stroke:none;stroke-width:4.54705524;stroke-linecap:butt;stroke-linejoin:miter;stroke-miterlimit:4;stroke-dasharray:none;stroke-dashoffset:0;stroke-opacity:1"
           id="path829"
           inkscape:connector-curvature="0" />
        <path
           d="m -108.22177,440.72488 q 0,0.0574 -0.0287,0.10517 -0.0287,0.0478 -0.0956,0.0765 -0.0574,0.0287 -0.17211,0.0478 -0.10518,0.0191 -0.27729,0.0191 -0.16254,0 -0.27728,-0.0191 -0.10518,-0.0191 -0.17211,-0.0478 -0.0669,-0.0287 -0.0956,-0.0765 -0.0191,-0.0478 -0.0191,-0.10517 v -8.65325 q 0,-0.0574 0.0191,-0.10517 0.0287,-0.0478 0.0956,-0.0765 0.0669,-0.0382 0.17211,-0.0478 0.11474,-0.0191 0.27728,-0.0191 0.17211,0 0.27729,0.0191 0.11474,0.01 0.17211,0.0478 0.0669,0.0287 0.0956,0.0765 0.0287,0.0478 0.0287,0.10517 z m 0.17211,-11.56953 q 0,0.45896 -0.16255,0.6215 -0.16255,0.16255 -0.59282,0.16255 -0.42071,0 -0.58326,-0.15299 -0.15298,-0.16254 -0.15298,-0.6215 0,-0.45896 0.16255,-0.6215 0.16254,-0.16255 0.59281,-0.16255 0.42071,0 0.5737,0.16255 0.16255,0.15298 0.16255,0.61194 z"
           style="font-style:normal;font-variant:normal;font-weight:300;font-stretch:normal;font-size:19.58213997px;line-height:1.25;font-family:Calibri;-inkscape-font-specification:'Calibri Light';font-variant-ligatures:normal;font-variant-position:normal;font-variant-caps:normal;font-variant-numeric:normal;font-variant-alternates:normal;font-feature-settings:normal;text-indent:0;text-align:start;text-decoration:none;text-decoration-line:none;text-decoration-style:solid;text-decoration-color:#000000;letter-spacing:0px;word-spacing:0px;text-transform:none;writing-mode:lr-tb;direction:ltr;text-orientation:mixed;dominant-baseline:auto;text-anchor:start;white-space:normal;shape-padding:0;vector-effect:none;fill:#ffffff;fill-opacity:1;stroke:none;stroke-width:4.54705524;stroke-linecap:butt;stroke-linejoin:miter;stroke-miterlimit:4;stroke-dasharray:none;stroke-dashoffset:0;stroke-opacity:1"
           id="path831"
           inkscape:connector-curvature="0" />
        <path
           d="m -98.564563,437.56955 q 0,0.8223 -0.296409,1.47249 -0.29641,0.65018 -0.831859,1.10914 -0.535449,0.44939 -1.271689,0.68843 -0.73624,0.23904 -1.60635,0.23904 -0.59282,0 -1.11871,-0.11473 -0.52588,-0.10518 -0.93703,-0.25817 -0.41115,-0.15298 -0.698,-0.30597 -0.27728,-0.16255 -0.38246,-0.26772 -0.10518,-0.11474 -0.15299,-0.25817 -0.0478,-0.15298 -0.0478,-0.3729 0,-0.16255 0.0191,-0.26772 0.0191,-0.10518 0.0478,-0.17211 0.0382,-0.0669 0.0861,-0.0861 0.0574,-0.0287 0.11474,-0.0287 0.13386,0 0.3729,0.17211 0.2486,0.16254 0.63107,0.36334 0.39202,0.19123 0.92747,0.36334 0.54501,0.16255 1.26213,0.16255 0.58326,0 1.0709,-0.15299 0.48764,-0.16255 0.84142,-0.45896 0.35378,-0.29641 0.54501,-0.72668 0.200793,-0.43983 0.200793,-0.9944 0,-0.5737 -0.248603,-0.98485 -0.2486,-0.41114 -0.65975,-0.71712 -0.40158,-0.31553 -0.91791,-0.56413 -0.51633,-0.25816 -1.06134,-0.50676 -0.53545,-0.25817 -1.05177,-0.55458 -0.51633,-0.29641 -0.92748,-0.68843 -0.40158,-0.40159 -0.65019,-0.93704 -0.2486,-0.53545 -0.2486,-1.27169 0,-0.71712 0.25817,-1.28125 0.25816,-0.5737 0.72668,-0.96572 0.46852,-0.40159 1.1187,-0.61194 0.65975,-0.21036 1.4438,-0.21036 0.39203,0 0.79362,0.0765 0.40158,0.0765 0.75536,0.2008 0.36334,0.11474 0.640629,0.26772 0.286847,0.14342 0.372902,0.23904 0.09562,0.0861 0.114739,0.13386 0.02869,0.0383 0.04781,0.10518 0.01912,0.0669 0.02869,0.16255 0.0096,0.0861 0.0096,0.21991 0,0.12431 -0.01912,0.22948 -0.0096,0.0956 -0.03825,0.17211 -0.02869,0.0669 -0.07649,0.10518 -0.03825,0.0383 -0.09562,0.0383 -0.105178,0 -0.325094,-0.13387 -0.210356,-0.14342 -0.535456,-0.31553 -0.32509,-0.17211 -0.77449,-0.30597 -0.44939,-0.14342 -1.02309,-0.14342 -0.56413,0 -0.98484,0.15298 -0.42071,0.15299 -0.698,0.42071 -0.27728,0.25816 -0.42071,0.61194 -0.13386,0.35378 -0.13386,0.74581 0,0.57369 0.2486,0.98484 0.2486,0.41115 0.65975,0.72668 0.41115,0.31553 0.92748,0.5737 0.52588,0.2486 1.06133,0.50676 0.54501,0.2486 1.06134,0.54501 0.525892,0.28685 0.93704,0.68844 0.411148,0.39202 0.65975,0.92747 0.248601,0.52589 0.248601,1.25257 z"
           style="font-style:normal;font-variant:normal;font-weight:300;font-stretch:normal;font-size:19.58213997px;line-height:1.25;font-family:Calibri;-inkscape-font-specification:'Calibri Light';font-variant-ligatures:normal;font-variant-position:normal;font-variant-caps:normal;font-variant-numeric:normal;font-variant-alternates:normal;font-feature-settings:normal;text-indent:0;text-align:start;text-decoration:none;text-decoration-line:none;text-decoration-style:solid;text-decoration-color:#000000;letter-spacing:0px;word-spacing:0px;text-transform:none;writing-mode:lr-tb;direction:ltr;text-orientation:mixed;dominant-baseline:auto;text-anchor:start;white-space:normal;shape-padding:0;vector-effect:none;fill:#ffffff;fill-opacity:1;stroke:none;stroke-width:4.54705524;stroke-linecap:butt;stroke-linejoin:miter;stroke-miterlimit:4;stroke-dasharray:none;stroke-dashoffset:0;stroke-opacity:1"
           id="path833"
           inkscape:connector-curvature="0" />
        <path
           d="m -89.146395,440.72488 q 0,0.0574 -0.02868,0.10517 -0.02869,0.0478 -0.09562,0.0765 -0.05737,0.0287 -0.172109,0.0478 -0.105177,0.0191 -0.267724,0.0191 -0.172109,0 -0.286848,-0.0191 -0.105178,-0.0191 -0.172109,-0.0478 -0.05737,-0.0287 -0.08605,-0.0765 -0.02868,-0.0478 -0.02868,-0.10517 v -5.13458 q 0,-0.80317 -0.124301,-1.30038 -0.1243,-0.50676 -0.372902,-0.86054 -0.248601,-0.36334 -0.640626,-0.55457 -0.382464,-0.20079 -0.89879,-0.20079 -0.65975,0 -1.3195,0.46851 -0.65975,0.46852 -1.386431,1.37687 v 6.20548 q 0,0.0574 -0.02868,0.10517 -0.02868,0.0478 -0.09562,0.0765 -0.05737,0.0287 -0.172109,0.0478 -0.105177,0.0191 -0.277286,0.0191 -0.162547,0 -0.277286,-0.0191 -0.105178,-0.0191 -0.172109,-0.0478 -0.06693,-0.0287 -0.09562,-0.0765 -0.01912,-0.0478 -0.01912,-0.10517 v -12.88903 q 0,-0.0574 0.01912,-0.10518 0.02869,-0.0478 0.09562,-0.0765 0.06693,-0.0383 0.172109,-0.0478 0.114739,-0.0191 0.277286,-0.0191 0.172109,0 0.277286,0.0191 0.114739,0.01 0.172109,0.0478 0.06693,0.0287 0.09562,0.0765 0.02868,0.0478 0.02868,0.10518 v 5.4023 q 0.707558,-0.78405 1.415116,-1.14739 0.707558,-0.3729 1.415116,-0.3729 0.850981,0 1.434238,0.28684 0.583258,0.28685 0.937036,0.77449 0.363341,0.48764 0.516326,1.13783 0.162547,0.65019 0.162547,1.5681 z"
           style="font-style:normal;font-variant:normal;font-weight:300;font-stretch:normal;font-size:19.58213997px;line-height:1.25;font-family:Calibri;-inkscape-font-specification:'Calibri Light';font-variant-ligatures:normal;font-variant-position:normal;font-variant-caps:normal;font-variant-numeric:normal;font-variant-alternates:normal;font-feature-settings:normal;text-indent:0;text-align:start;text-decoration:none;text-decoration-line:none;text-decoration-style:solid;text-decoration-color:#000000;letter-spacing:0px;word-spacing:0px;text-transform:none;writing-mode:lr-tb;direction:ltr;text-orientation:mixed;dominant-baseline:auto;text-anchor:start;white-space:normal;shape-padding:0;vector-effect:none;fill:#ffffff;fill-opacity:1;stroke:none;stroke-width:4.54705524;stroke-linecap:butt;stroke-linejoin:miter;stroke-miterlimit:4;stroke-dasharray:none;stroke-dashoffset:0;stroke-opacity:1"
           id="path835"
           inkscape:connector-curvature="0" />
        <path
           d="m -79.929021,440.72488 q 0,0.0956 -0.06693,0.15298 -0.05737,0.0478 -0.162547,0.0669 -0.09562,0.0287 -0.267725,0.0287 -0.162547,0 -0.277286,-0.0287 -0.114739,-0.0191 -0.18167,-0.0669 -0.05737,-0.0574 -0.05737,-0.15298 v -0.96573 q -0.583257,0.63107 -1.290815,0.97529 -0.697996,0.34421 -1.453362,0.34421 -0.678873,0 -1.223884,-0.1721 -0.535449,-0.18167 -0.908351,-0.50677 -0.372902,-0.33465 -0.573695,-0.80317 -0.200794,-0.46852 -0.200794,-1.05178 0,-0.71712 0.29641,-1.243 0.296409,-0.53545 0.84142,-0.88923 0.54501,-0.35378 1.309938,-0.52589 0.764927,-0.18167 1.701963,-0.18167 h 1.376869 v -0.7458 q 0,-0.55458 -0.114739,-0.97529 -0.114739,-0.43027 -0.372902,-0.71712 -0.258163,-0.28684 -0.669311,-0.43027 -0.411149,-0.14342 -1.003967,-0.14342 -0.573696,0 -1.032652,0.14342 -0.458957,0.13386 -0.803174,0.30597 -0.344217,0.17211 -0.573696,0.31554 -0.219916,0.13386 -0.315532,0.13386 -0.05737,0 -0.105178,-0.0191 -0.04781,-0.0191 -0.08605,-0.0669 -0.02868,-0.0574 -0.04781,-0.13386 -0.0096,-0.0861 -0.0096,-0.20079 0,-0.2008 0.02868,-0.31553 0.02868,-0.12431 0.143424,-0.23904 0.124301,-0.12431 0.430272,-0.28685 0.305971,-0.16255 0.697996,-0.29641 0.401587,-0.14343 0.860543,-0.22948 0.458957,-0.0861 0.917913,-0.0861 0.889228,0 1.50117,0.21991 0.611942,0.21036 0.984844,0.61194 0.382464,0.40159 0.545011,0.99441 0.162547,0.58326 0.162547,1.32906 z m -1.13783,-4.0828 h -1.577662 q -0.688435,0 -1.204761,0.1243 -0.516326,0.1243 -0.860543,0.36334 -0.344217,0.23904 -0.516326,0.57369 -0.162547,0.33466 -0.162547,0.76493 0,0.7458 0.468518,1.1952 0.478079,0.43983 1.338623,0.43983 0.678873,0 1.26213,-0.34422 0.592818,-0.35377 1.252568,-1.08046 z"
           style="font-style:normal;font-variant:normal;font-weight:300;font-stretch:normal;font-size:19.58213997px;line-height:1.25;font-family:Calibri;-inkscape-font-specification:'Calibri Light';font-variant-ligatures:normal;font-variant-position:normal;font-variant-caps:normal;font-variant-numeric:normal;font-variant-alternates:normal;font-feature-settings:normal;text-indent:0;text-align:start;text-decoration:none;text-decoration-line:none;text-decoration-style:solid;text-decoration-color:#000000;letter-spacing:0px;word-spacing:0px;text-transform:none;writing-mode:lr-tb;direction:ltr;text-orientation:mixed;dominant-baseline:auto;text-anchor:start;white-space:normal;shape-padding:0;vector-effect:none;fill:#ffffff;fill-opacity:1;stroke:none;stroke-width:4.54705524;stroke-linecap:butt;stroke-linejoin:miter;stroke-miterlimit:4;stroke-dasharray:none;stroke-dashoffset:0;stroke-opacity:1"
           id="path837"
           inkscape:connector-curvature="0" />
        <path
           d="m -71.973775,432.51147 q 0,0.14342 -0.0096,0.2486 -0.0096,0.0956 -0.03825,0.16255 -0.01912,0.0574 -0.05737,0.0956 -0.02868,0.0287 -0.08606,0.0287 -0.08605,0 -0.200793,-0.0383 -0.114739,-0.0478 -0.267725,-0.0956 -0.152985,-0.0478 -0.334655,-0.0861 -0.18167,-0.0478 -0.401587,-0.0478 -0.258163,0 -0.506764,0.11474 -0.248602,0.10518 -0.525888,0.35378 -0.267725,0.23904 -0.573696,0.64063 -0.296409,0.40158 -0.659749,0.98484 v 5.8517 q 0,0.0574 -0.02868,0.10517 -0.02869,0.0478 -0.09562,0.0765 -0.05737,0.0287 -0.172109,0.0478 -0.105177,0.0191 -0.277286,0.0191 -0.162547,0 -0.277286,-0.0191 -0.105178,-0.0191 -0.172109,-0.0478 -0.06693,-0.0287 -0.09562,-0.0765 -0.01912,-0.0478 -0.01912,-0.10517 v -8.65325 q 0,-0.0574 0.01912,-0.10517 0.02868,-0.0478 0.09562,-0.0765 0.06693,-0.0382 0.162547,-0.0478 0.105178,-0.0191 0.267725,-0.0191 0.162547,0 0.267725,0.0191 0.105177,0.01 0.162547,0.0478 0.05737,0.0287 0.07649,0.0765 0.02868,0.0478 0.02868,0.10517 v 1.36731 q 0.372902,-0.54501 0.688435,-0.87966 0.315532,-0.33466 0.60238,-0.51633 0.286848,-0.19123 0.554572,-0.25816 0.277286,-0.0669 0.564134,-0.0669 0.124301,0 0.286848,0.0191 0.162547,0.01 0.344217,0.0478 0.191232,0.0382 0.334656,0.0956 0.152985,0.0478 0.210355,0.0956 0.05737,0.0383 0.07649,0.0765 0.01912,0.0287 0.02868,0.0861 0.01912,0.0478 0.01912,0.14342 0.0096,0.0861 0.0096,0.22948 z"
           style="font-style:normal;font-variant:normal;font-weight:300;font-stretch:normal;font-size:19.58213997px;line-height:1.25;font-family:Calibri;-inkscape-font-specification:'Calibri Light';font-variant-ligatures:normal;font-variant-position:normal;font-variant-caps:normal;font-variant-numeric:normal;font-variant-alternates:normal;font-feature-settings:normal;text-indent:0;text-align:start;text-decoration:none;text-decoration-line:none;text-decoration-style:solid;text-decoration-color:#000000;letter-spacing:0px;word-spacing:0px;text-transform:none;writing-mode:lr-tb;direction:ltr;text-orientation:mixed;dominant-baseline:auto;text-anchor:start;white-space:normal;shape-padding:0;vector-effect:none;fill:#ffffff;fill-opacity:1;stroke:none;stroke-width:4.54705524;stroke-linecap:butt;stroke-linejoin:miter;stroke-miterlimit:4;stroke-dasharray:none;stroke-dashoffset:0;stroke-opacity:1"
           id="path839"
           inkscape:connector-curvature="0" />
        <path
           d="m -62.450429,436.26917 q 0,1.10915 -0.248601,1.99838 -0.23904,0.88922 -0.717119,1.51073 -0.468518,0.6215 -1.166515,0.96572 -0.697996,0.33465 -1.596785,0.33465 -0.382464,0 -0.71712,-0.0861 -0.334656,-0.0765 -0.65975,-0.2486 -0.315532,-0.17211 -0.640626,-0.43027 -0.315533,-0.25817 -0.669312,-0.62151 v 4.46527 q 0,0.0574 -0.02868,0.10517 -0.02868,0.0478 -0.09561,0.0765 -0.05737,0.0382 -0.172109,0.0478 -0.105178,0.0191 -0.277286,0.0191 -0.162547,0 -0.277286,-0.0191 -0.105178,-0.01 -0.172109,-0.0478 -0.06693,-0.0287 -0.09562,-0.0765 -0.01912,-0.0478 -0.01912,-0.10517 v -12.08586 q 0,-0.0669 0.01912,-0.11473 0.02868,-0.0478 0.08605,-0.0765 0.06693,-0.0287 0.162547,-0.0382 0.105178,-0.0191 0.248602,-0.0191 0.143424,0 0.23904,0.0191 0.09562,0.01 0.162547,0.0382 0.06693,0.0287 0.09562,0.0765 0.02868,0.0478 0.02868,0.11473 v 1.25257 q 0.401587,-0.41115 0.764928,-0.70755 0.36334,-0.30598 0.726681,-0.50677 0.36334,-0.20079 0.745804,-0.29641 0.382463,-0.0956 0.812735,-0.0956 0.937036,0 1.596786,0.36334 0.65975,0.35378 1.070898,0.97528 0.42071,0.6215 0.60238,1.45336 0.191232,0.8223 0.191232,1.75933 z m -1.195199,0.18167 q 0,-0.72668 -0.114739,-1.39599 -0.114739,-0.67887 -0.392025,-1.20476 -0.267725,-0.52589 -0.726681,-0.84142 -0.449395,-0.31553 -1.137829,-0.31553 -0.344218,0 -0.678873,0.0956 -0.325095,0.0956 -0.669312,0.31554 -0.344217,0.21991 -0.717119,0.57369 -0.372902,0.34422 -0.784051,0.86055 v 3.76726 q 0.71712,0.87011 1.367308,1.33863 0.65975,0.45895 1.376869,0.45895 0.65975,0 1.128268,-0.31553 0.478079,-0.32509 0.774489,-0.84142 0.296409,-0.52589 0.430271,-1.17608 0.143424,-0.65975 0.143424,-1.3195 z"
           style="font-style:normal;font-variant:normal;font-weight:300;font-stretch:normal;font-size:19.58213997px;line-height:1.25;font-family:Calibri;-inkscape-font-specification:'Calibri Light';font-variant-ligatures:normal;font-variant-position:normal;font-variant-caps:normal;font-variant-numeric:normal;font-variant-alternates:normal;font-feature-settings:normal;text-indent:0;text-align:start;text-decoration:none;text-decoration-line:none;text-decoration-style:solid;text-decoration-color:#000000;letter-spacing:0px;word-spacing:0px;text-transform:none;writing-mode:lr-tb;direction:ltr;text-orientation:mixed;dominant-baseline:auto;text-anchor:start;white-space:normal;shape-padding:0;vector-effect:none;fill:#ffffff;fill-opacity:1;stroke:none;stroke-width:4.54705524;stroke-linecap:butt;stroke-linejoin:miter;stroke-miterlimit:4;stroke-dasharray:none;stroke-dashoffset:0;stroke-opacity:1"
           id="path841"
           inkscape:connector-curvature="0" />
      </g>
      <circle
         r="0.24263024"
         cy="18.888876"
         cx="7.7491441"
         id="path1878-4-0"
         style="opacity:1;vector-effect:none;fill:#3fc6ee;fill-opacity:1;fill-rule:nonzero;stroke:#3fc6ee;stroke-width:0.15756997;stroke-linecap:butt;stroke-linejoin:miter;stroke-miterlimit:4;stroke-dasharray:none;stroke-dashoffset:0;stroke-opacity:1" />
    </g>
    <text
       xml:space="preserve"
       style="font-style:normal;font-variant:normal;font-weight:normal;font-stretch:normal;font-size:5.02418423px;line-height:1.25;font-family:'Roboto Light';-inkscape-font-specification:'Roboto Light, ';letter-spacing:0px;word-spacing:0px;fill:#ffffff;fill-opacity:1;stroke:none;stroke-width:0.26458332"
       x="64.245804"
       y="6.1670675"
       id="text854"><tspan
         sodipodi:role="line"
         id="tspan852"
         x="64.245804"
         y="6.1670675"
         style="font-style:normal;font-variant:normal;font-weight:normal;font-stretch:normal;line-height:1.25;font-family:'Roboto Light';-inkscape-font-specification:'Roboto Light, ';letter-spacing:-0.13229167px;word-spacing:-0.5291667px;fill:#ffffff;stroke-width:0.26458332"
         dx="0">SciSharp<tspan
   style="font-style:normal;font-variant:normal;font-weight:normal;font-stretch:normal;line-height:1.25;font-family:'Roboto Medium';-inkscape-font-specification:'Roboto Medium, ';letter-spacing:-0.13229167px;word-spacing:-0.5291667px;fill:#ffffff;stroke-width:0.26458332"
   id="tspan833"> </tspan><tspan
   style="font-style:normal;font-variant:normal;font-weight:normal;font-stretch:normal;line-height:1.25;font-family:'Roboto Thin';-inkscape-font-specification:'Roboto Thin, ';letter-spacing:-0.13229167px;word-spacing:-0.5291667px"
   id="tspan839">STACK</tspan></tspan></text>
    <g
       id="g971">
      <rect
         ry="0"
         y="25.142704"
         x="-8.972682"
         height="11.957789"
         width="46.808327"
         id="rect1107-9-4-2-0-9-8-1-0-4"
         style="opacity:1;vector-effect:none;fill:#661f76;fill-opacity:1;fill-rule:nonzero;stroke:none;stroke-width:0.65703815;stroke-linecap:butt;stroke-linejoin:miter;stroke-miterlimit:4;stroke-dasharray:none;stroke-dashoffset:0;stroke-opacity:1" />
      <g
         style="stroke-width:0.9514755"
         id="g2390-1-1-4"
         transform="matrix(0.27807687,0,0,0.27807687,-8.8371194,-60.500392)">
        <g
           style="stroke-width:0.9514755"
           id="g2136-6-7-8-6"
           transform="translate(2.1606054,49.500006)">
          <path
             style="color:#000000;font-style:normal;font-variant:normal;font-weight:normal;font-stretch:normal;font-size:medium;line-height:normal;font-family:sans-serif;font-variant-ligatures:normal;font-variant-position:normal;font-variant-caps:normal;font-variant-numeric:normal;font-variant-alternates:normal;font-feature-settings:normal;text-indent:0;text-align:start;text-decoration:none;text-decoration-line:none;text-decoration-style:solid;text-decoration-color:#000000;letter-spacing:normal;word-spacing:normal;text-transform:none;writing-mode:lr-tb;direction:ltr;text-orientation:mixed;dominant-baseline:auto;baseline-shift:baseline;text-anchor:start;white-space:normal;shape-padding:0;clip-rule:nonzero;display:inline;overflow:visible;visibility:visible;opacity:1;isolation:auto;mix-blend-mode:normal;color-interpolation:sRGB;color-interpolation-filters:linearRGB;solid-color:#000000;solid-opacity:1;vector-effect:none;fill:#865fc5;fill-opacity:1;fill-rule:nonzero;stroke:none;stroke-width:1.41597772;stroke-linecap:butt;stroke-linejoin:miter;stroke-miterlimit:4;stroke-dasharray:none;stroke-dashoffset:0;stroke-opacity:1;color-rendering:auto;image-rendering:auto;shape-rendering:auto;text-rendering:auto;enable-background:accumulate"
             d="m 18.75,268.86914 c -1.956618,0.004 -3.900722,0.1631 -5.773438,0.47461 l -0.271484,0.0449 -0.177734,0.21094 c -1.215569,1.4488 -2.337314,3.03487 -3.3320315,4.70898 -1.0350463,1.74492 -1.9191059,3.56564 -2.6230469,5.40039 l -0.1035156,0.26563 0.1015625,0.26562 c 0.7025799,1.8405 1.5886291,3.66656 2.625,5.41797 v 0.002 c 0.9925975,1.67114 2.1114145,3.25425 3.3242185,4.70117 l 0.177735,0.20898 0.269531,0.0469 c 1.874445,0.31443 3.823407,0.47659 5.783203,0.48242 h 0.002 c 1.95537,-0.004 3.899965,-0.16525 5.771485,-0.47656 l 0.271484,-0.0449 0.175781,-0.20898 c 1.216757,-1.44849 2.339947,-3.03454 3.335938,-4.70898 v -0.002 c 1.033905,-1.74521 1.918454,-3.56395 2.621093,-5.39843 l 0.101563,-0.26563 -0.101563,-0.26562 c -0.701277,-1.84023 -1.583909,-3.66626 -2.61914,-5.41797 l -0.002,-0.002 c -0.993874,-1.67146 -2.114134,-3.25457 -3.328125,-4.70117 l -0.175782,-0.21094 -0.271484,-0.0449 c -1.873252,-0.31422 -3.818799,-0.4764 -5.777344,-0.48242 h -0.002 z m -0.002,1.48828 h 0.0039 c 1.781829,0.006 3.545667,0.16684 5.25,0.4375 1.091995,1.32441 2.120887,2.75228 3.025391,4.27344 0.942083,1.59428 1.728378,3.25733 2.380859,4.92383 -0.653584,1.66112 -1.440121,3.31811 -2.380859,4.90625 -0.906518,1.52402 -1.936673,2.95499 -3.03125,4.28125 -1.702668,0.26804 -3.463391,0.42778 -5.242188,0.43164 -1.784371,-0.005 -3.551068,-0.1684 -5.257812,-0.43945 -1.090582,-1.32428 -2.11837,-2.75116 -3.021485,-4.27149 v -0.002 c -0.9428329,-1.59352 -1.7311936,-3.25563 -2.3847652,-4.92188 0.654994,-1.66195 1.4425871,-3.31984 2.3847652,-4.9082 0.905335,-1.52368 1.935808,-2.95278 3.029297,-4.2793 1.703789,-0.26821 3.464173,-0.42796 5.244141,-0.43164 z"
             id="path926-1-2-6-4-6-5-2-9-6-3-0-3-2"
             inkscape:connector-curvature="0" />
          <g
             aria-label="#"
             style="font-style:normal;font-weight:normal;font-size:19.89817238px;line-height:1.25;font-family:sans-serif;letter-spacing:0px;word-spacing:0px;opacity:1;vector-effect:none;fill:#ffffff;fill-opacity:1;stroke:none;stroke-width:1.88060415;stroke-linecap:butt;stroke-linejoin:miter;stroke-miterlimit:4;stroke-dasharray:none;stroke-dashoffset:0;stroke-opacity:1"
             id="text1024-3-5-6-6-6-5-7-9-9-8-8-4-1">
            <path
               d="m 24.996652,278.16206 h -3.235397 l -0.893863,3.65318 h 2.992499 v 1.31165 h -3.332555 l -1.010455,4.0904 H 18.26353 l 1.010454,-4.0904 H 16.65069 l -1.010454,4.0904 h -1.253352 l 1.010454,-4.0904 h -2.89534 v -1.31165 h 3.235397 l 0.893863,-3.65318 h -2.992499 v -1.31164 h 3.332556 l 1.020169,-4.10012 h 1.253352 l -1.02017,4.10012 h 2.623294 l 1.02017,-4.10012 h 1.253352 l -1.02017,4.10012 h 2.89534 z m -4.459601,-0.0194 h -2.662157 l -0.913295,3.69204 h 2.662157 z"
               style="vector-effect:none;fill:#ffffff;fill-opacity:1;stroke:none;stroke-width:1.88060415;stroke-linecap:butt;stroke-linejoin:miter;stroke-miterlimit:4;stroke-dasharray:none;stroke-dashoffset:0;stroke-opacity:1"
               id="path824-8"
               inkscape:connector-curvature="0" />
          </g>
          <path
             inkscape:connector-curvature="0"
             id="path926-1-2-6-4-6-5-2-9-5-2-1-1-0-2"
             d="m 18.750997,268.87325 c -1.956618,0.004 -3.900723,0.1631 -5.773438,0.47461 l -0.271484,0.0449 0.797778,1.39625 c 1.702053,-0.26768 3.469124,-0.42382 5.247144,-0.4275 h 0.0039 c 1.782454,0.006 3.545117,0.16665 5.25,0.4375 1.091427,1.32372 2.11929,2.7512 3.023438,4.27149 0.94292,1.59551 1.729961,3.2599 2.382812,4.92773 -0.0013,0.003 -0.0026,0.007 -0.0039,0.01 l 1.615235,0.008 0.0078,-0.0176 -0.101563,-0.26562 c -0.701268,-1.84026 -1.583909,-3.66626 -2.619141,-5.41797 v -0.002 h -0.002 c -0.993823,-1.67146 -2.114083,-3.25458 -3.328075,-4.70118 l -0.175781,-0.21093 -0.271484,-0.0449 c -1.873252,-0.31422 -3.818799,-0.4764 -5.777344,-0.48242 h -0.002 z"
             style="color:#000000;font-style:normal;font-variant:normal;font-weight:normal;font-stretch:normal;font-size:medium;line-height:normal;font-family:sans-serif;font-variant-ligatures:normal;font-variant-position:normal;font-variant-caps:normal;font-variant-numeric:normal;font-variant-alternates:normal;font-feature-settings:normal;text-indent:0;text-align:start;text-decoration:none;text-decoration-line:none;text-decoration-style:solid;text-decoration-color:#000000;letter-spacing:normal;word-spacing:normal;text-transform:none;writing-mode:lr-tb;direction:ltr;text-orientation:mixed;dominant-baseline:auto;baseline-shift:baseline;text-anchor:start;white-space:normal;shape-padding:0;clip-rule:nonzero;display:inline;overflow:visible;visibility:visible;opacity:1;isolation:auto;mix-blend-mode:normal;color-interpolation:sRGB;color-interpolation-filters:linearRGB;solid-color:#000000;solid-opacity:1;vector-effect:none;fill:#3fc6ee;fill-opacity:1;fill-rule:nonzero;stroke:none;stroke-width:1.41597772;stroke-linecap:butt;stroke-linejoin:miter;stroke-miterlimit:4;stroke-dasharray:none;stroke-dashoffset:0;stroke-opacity:1;color-rendering:auto;image-rendering:auto;shape-rendering:auto;text-rendering:auto;enable-background:accumulate"
             sodipodi:nodetypes="cccccccccccccccccccccc" />
        </g>
      </g>
      <g
         transform="translate(0,0.32740516)"
         id="g916">
        <g
           id="text854-2"
           style="font-style:normal;font-variant:normal;font-weight:normal;font-stretch:normal;font-size:5.02418423px;line-height:1.25;font-family:'Roboto Thin';-inkscape-font-specification:'Roboto Thin, ';letter-spacing:0px;word-spacing:0px;fill:#ffffff;fill-opacity:1;stroke:none;stroke-width:0.26458332"
           aria-label="SciSharp">
          <path
             id="path920"
             style="font-style:normal;font-variant:normal;font-weight:normal;font-stretch:normal;line-height:1.25;font-family:'Roboto Light';-inkscape-font-specification:'Roboto Light, ';letter-spacing:-0.13229169px;word-spacing:-0.52916676px;fill:#ffffff;stroke-width:0.26458332"
             d="m 4.3123384,31.728469 q 0,-0.296839 -0.2085233,-0.468564 Q 3.8952918,31.085727 3.3408652,30.931174 2.7864387,30.774168 2.5313043,30.590177 2.1682285,30.330136 2.1682285,29.908184 q 0,-0.409687 0.3360904,-0.664822 0.3385437,-0.257587 0.8635317,-0.257587 0.3557162,0 0.6353827,0.13738 0.2821197,0.13738 0.4366722,0.382701 0.1545526,0.245322 0.1545526,0.547067 H 4.2902594 q 0,-0.365529 -0.2502279,-0.586318 -0.2502279,-0.223243 -0.6721809,-0.223243 -0.4096869,0 -0.6525552,0.183991 -0.2428683,0.181538 -0.2428683,0.475924 0,0.272307 0.2183362,0.444032 0.2183361,0.171725 0.6991662,0.304199 0.4808302,0.13002 0.7286049,0.272307 0.2477747,0.139833 0.3728887,0.33609 0.1251139,0.196257 0.1251139,0.463658 0,0.421953 -0.3385436,0.677087 -0.3360905,0.255134 -0.8880639,0.255134 -0.3777951,0 -0.6942598,-0.134927 Q 2.3816582,32.385931 2.2172928,32.143062 2.0553806,31.900194 2.0553806,31.586183 H 2.357126 q 0,0.377795 0.2821198,0.596131 0.2821197,0.218336 0.7506837,0.218336 0.4170466,0 0.6697277,-0.183991 0.2526812,-0.183991 0.2526812,-0.48819 z"
             inkscape:connector-curvature="0" />
          <path
             id="path922"
             style="font-style:normal;font-variant:normal;font-weight:normal;font-stretch:normal;line-height:1.25;font-family:'Roboto Light';-inkscape-font-specification:'Roboto Light, ';letter-spacing:-0.13229169px;word-spacing:-0.52916676px;fill:#ffffff;stroke-width:0.26458332"
             d="m 6.04449,32.40801 q 0.3066519,0 0.512722,-0.171725 0.2085232,-0.174179 0.2256957,-0.448939 h 0.2821198 q -0.012266,0.242868 -0.1520994,0.444032 -0.1398332,0.19871 -0.3728886,0.311558 -0.2306022,0.112848 -0.4955495,0.112848 -0.5225347,0 -0.8291866,-0.363076 -0.3041987,-0.363075 -0.3041987,-0.976379 v -0.08832 q 0,-0.392514 0.1373801,-0.69426 0.13738,-0.301745 0.3925144,-0.466111 0.2575875,-0.164365 0.6010376,-0.164365 0.4366723,0 0.718792,0.260041 0.284573,0.260041 0.3041987,0.684447 H 6.7829077 Q 6.763282,30.536207 6.557212,30.344856 6.3535951,30.153505 6.0420368,30.153505 q -0.3974208,0 -0.6182101,0.287026 -0.2183362,0.287026 -0.2183362,0.804655 v 0.08586 q 0,0.507816 0.2183362,0.792389 Q 5.644616,32.40801 6.04449,32.40801 Z"
             inkscape:connector-curvature="0" />
          <path
             id="path924"
             style="font-style:normal;font-variant:normal;font-weight:normal;font-stretch:normal;line-height:1.25;font-family:'Roboto Light';-inkscape-font-specification:'Roboto Light, ';letter-spacing:-0.13229169px;word-spacing:-0.52916676px;fill:#ffffff;stroke-width:0.26458332"
             d="M 7.8502383,32.60672 H 7.5558525 V 29.952341 H 7.8502383 Z M 7.504335,29.184485 q 0,-0.08341 0.053971,-0.139833 0.053971,-0.05888 0.1471929,-0.05888 0.093222,0 0.1471929,0.05888 0.056424,0.05642 0.056424,0.139833 0,0.08341 -0.056424,0.139833 -0.053971,0.05642 -0.1471929,0.05642 -0.093222,0 -0.1471929,-0.05642 -0.053971,-0.05642 -0.053971,-0.139833 z"
             inkscape:connector-curvature="0" />
          <path
             id="path926"
             style="font-style:normal;font-variant:normal;font-weight:normal;font-stretch:normal;line-height:1.25;font-family:'Roboto Light';-inkscape-font-specification:'Roboto Light, ';letter-spacing:-0.13229169px;word-spacing:-0.52916676px;fill:#ffffff;stroke-width:0.26458332"
             d="m 10.607834,31.728469 q 0,-0.296839 -0.208523,-0.468564 Q 10.190787,31.085727 9.6363607,30.931174 9.0819342,30.774168 8.8267998,30.590177 8.463724,30.330136 8.463724,29.908184 q 0,-0.409687 0.3360904,-0.664822 0.3385437,-0.257587 0.8635317,-0.257587 0.3557159,0 0.6353829,0.13738 0.28212,0.13738 0.436672,0.382701 0.154553,0.245322 0.154553,0.547067 h -0.304199 q 0,-0.365529 -0.250228,-0.586318 -0.250228,-0.223243 -0.6721809,-0.223243 -0.4096869,0 -0.6525552,0.183991 -0.2428682,0.181538 -0.2428682,0.475924 0,0.272307 0.2183361,0.444032 0.2183361,0.171725 0.6991662,0.304199 0.48083,0.13002 0.728605,0.272307 0.247775,0.139833 0.372889,0.33609 0.125114,0.196257 0.125114,0.463658 0,0.421953 -0.338544,0.677087 -0.336091,0.255134 -0.888064,0.255134 -0.3777951,0 -0.6942598,-0.134927 Q 8.6771537,32.385931 8.5127883,32.143062 8.3508761,31.900194 8.3508761,31.586183 h 0.3017455 q 0,0.377795 0.2821197,0.596131 0.2821197,0.218336 0.7506837,0.218336 0.417047,0 0.669728,-0.183991 0.252681,-0.183991 0.252681,-0.48819 z"
             inkscape:connector-curvature="0" />
          <path
             id="path928"
             style="font-style:normal;font-variant:normal;font-weight:normal;font-stretch:normal;line-height:1.25;font-family:'Roboto Light';-inkscape-font-specification:'Roboto Light, ';letter-spacing:-0.13229169px;word-spacing:-0.52916676px;fill:#ffffff;stroke-width:0.26458332"
             d="m 11.650632,30.40128 q 0.14474,-0.237962 0.370436,-0.367983 0.225695,-0.13002 0.493096,-0.13002 0.426859,0 0.635382,0.240415 0.208524,0.240415 0.210977,0.721245 V 32.60672 H 13.06859 v -1.744236 q -0.0025,-0.355716 -0.152099,-0.529894 -0.147193,-0.174179 -0.47347,-0.174179 -0.272307,0 -0.483284,0.171725 -0.208523,0.169272 -0.309105,0.458752 V 32.60672 H 11.3587 v -3.768138 h 0.291932 z"
             inkscape:connector-curvature="0" />
          <path
             id="path930"
             style="font-style:normal;font-variant:normal;font-weight:normal;font-stretch:normal;line-height:1.25;font-family:'Roboto Light';-inkscape-font-specification:'Roboto Light, ';letter-spacing:-0.13229169px;word-spacing:-0.52916676px;fill:#ffffff;stroke-width:0.26458332"
             d="m 15.659367,32.60672 q -0.04416,-0.125114 -0.05642,-0.370435 -0.154553,0.201163 -0.394968,0.311558 -0.237962,0.107941 -0.505362,0.107941 -0.382702,0 -0.620664,-0.213429 -0.235508,-0.21343 -0.235508,-0.539708 0,-0.387608 0.321371,-0.613303 0.323824,-0.225696 0.90033,-0.225696 h 0.532347 v -0.301746 q 0,-0.284573 -0.176631,-0.446485 -0.174178,-0.164365 -0.510269,-0.164365 -0.306652,0 -0.507815,0.157006 -0.201164,0.157005 -0.201164,0.377795 l -0.294386,-0.0025 q 0,-0.316464 0.294386,-0.547066 0.294386,-0.233056 0.723698,-0.233056 0.444032,0 0.699167,0.223243 0.257587,0.220789 0.264947,0.61821 v 1.256046 q 0,0.385155 0.08096,0.576505 v 0.02944 z m -0.922408,-0.210977 q 0.294385,0 0.524988,-0.142286 0.233055,-0.142286 0.338543,-0.380248 v -0.583865 h -0.524988 q -0.439125,0.0049 -0.6869,0.161912 -0.247775,0.154552 -0.247775,0.426859 0,0.223243 0.164366,0.370436 0.166818,0.147192 0.431766,0.147192 z"
             inkscape:connector-curvature="0" />
          <path
             id="path932"
             style="font-style:normal;font-variant:normal;font-weight:normal;font-stretch:normal;line-height:1.25;font-family:'Roboto Light';-inkscape-font-specification:'Roboto Light, ';letter-spacing:-0.13229169px;word-spacing:-0.52916676px;fill:#ffffff;stroke-width:0.26458332"
             d="m 17.766861,30.202569 q -0.09322,-0.01717 -0.198711,-0.01717 -0.27476,0 -0.46611,0.154552 -0.188898,0.1521 -0.269854,0.444032 v 1.822739 h -0.291933 v -2.654379 h 0.287027 l 0.0049,0.421953 q 0.233055,-0.471017 0.748231,-0.471017 0.12266,0 0.193804,0.03189 z"
             inkscape:connector-curvature="0" />
          <path
             id="path934"
             style="font-style:normal;font-variant:normal;font-weight:normal;font-stretch:normal;line-height:1.25;font-family:'Roboto Light';-inkscape-font-specification:'Roboto Light, ';letter-spacing:-0.13229169px;word-spacing:-0.52916676px;fill:#ffffff;stroke-width:0.26458332"
             d="m 20.23007,31.306516 q 0,0.620663 -0.27476,0.986192 -0.27476,0.363076 -0.735964,0.363076 -0.544614,0 -0.834093,-0.382701 v 1.354174 H 18.09332 v -3.674916 h 0.272307 l 0.01472,0.375342 q 0.287027,-0.424406 0.83164,-0.424406 0.475924,0 0.745778,0.360623 0.272306,0.360622 0.272306,1.000911 z m -0.294385,-0.05152 q 0,-0.507816 -0.208524,-0.802202 -0.208523,-0.294386 -0.581412,-0.294386 -0.269853,0 -0.463657,0.130021 -0.193804,0.13002 -0.296839,0.377795 v 1.273219 q 0.105488,0.228148 0.301745,0.348356 0.196257,0.120208 0.463658,0.120208 0.370435,0 0.576505,-0.294386 0.208524,-0.296839 0.208524,-0.858625 z"
             inkscape:connector-curvature="0" />
        </g>
        <g
           id="text854-2-7"
           style="font-style:normal;font-variant:normal;font-weight:normal;font-stretch:normal;font-size:5.02418423px;line-height:1.25;font-family:'Roboto Light';-inkscape-font-specification:'Roboto Light, ';letter-spacing:-0.26458332px;word-spacing:0px;fill:#ffffff;fill-opacity:1;stroke:none;stroke-width:0.26458332"
           aria-label="STACK">
          <path
             id="path937"
             style="font-style:normal;font-variant:normal;font-weight:normal;font-stretch:normal;line-height:1.25;font-family:'Roboto Thin';-inkscape-font-specification:'Roboto Thin, ';letter-spacing:-0.26458332px;word-spacing:-0.52916682px;fill:#ffffff;stroke-width:0.26458332"
             d="m 23.769405,31.74058 q 0,-0.228149 -0.107941,-0.385155 -0.105488,-0.159459 -0.336091,-0.279666 -0.228149,-0.122661 -0.691806,-0.250228 -0.463658,-0.127567 -0.696713,-0.257588 -0.230603,-0.13002 -0.338544,-0.301745 -0.107941,-0.171725 -0.107941,-0.417047 0,-0.390061 0.32873,-0.630476 0.328731,-0.242868 0.856172,-0.242868 0.34345,0 0.615757,0.134927 0.27476,0.132473 0.424406,0.375342 0.149647,0.240415 0.149647,0.544613 h -0.132474 q 0,-0.399874 -0.294386,-0.659914 -0.294386,-0.262494 -0.76295,-0.262494 -0.471017,0 -0.762949,0.210976 -0.28948,0.208523 -0.28948,0.524988 0,0.321371 0.252681,0.517628 0.252681,0.196258 0.834093,0.348357 0.581412,0.149646 0.851266,0.348356 0.34345,0.252682 0.34345,0.677088 0,0.269853 -0.152099,0.478377 -0.1521,0.20607 -0.431766,0.318918 -0.279667,0.112847 -0.628023,0.112847 -0.387608,0 -0.696713,-0.127567 -0.309105,-0.13002 -0.466111,-0.367982 -0.154553,-0.237962 -0.154553,-0.561786 h 0.132474 q 0,0.439125 0.328731,0.681994 0.328731,0.242868 0.856172,0.242868 0.468564,0 0.772763,-0.21343 0.304198,-0.215883 0.304198,-0.559333 z"
             inkscape:connector-curvature="0" />
          <path
             id="path939"
             style="font-style:normal;font-variant:normal;font-weight:normal;font-stretch:normal;line-height:1.25;font-family:'Roboto Thin';-inkscape-font-specification:'Roboto Thin, ';letter-spacing:-0.26458332px;word-spacing:-0.52916682px;fill:#ffffff;stroke-width:0.26458332"
             d="m 26.71608,29.157345 h -1.300204 v 3.439407 h -0.132473 v -3.439407 h -1.300204 v -0.132474 h 2.732881 z"
             inkscape:connector-curvature="0" />
          <path
             id="path941"
             style="font-style:normal;font-variant:normal;font-weight:normal;font-stretch:normal;line-height:1.25;font-family:'Roboto Thin';-inkscape-font-specification:'Roboto Thin, ';letter-spacing:-0.26458332px;word-spacing:-0.52916682px;fill:#ffffff;stroke-width:0.26458332"
             d="m 28.762426,31.529604 h -1.749143 l -0.39742,1.067148 h -0.14474 l 1.337002,-3.571881 h 0.161912 l 1.337002,3.571881 H 29.1623 Z M 27.062348,31.39713 h 1.651013 l -0.82428,-2.2128 z"
             inkscape:connector-curvature="0" />
          <path
             id="path943"
             style="font-style:normal;font-variant:normal;font-weight:normal;font-stretch:normal;line-height:1.25;font-family:'Roboto Thin';-inkscape-font-specification:'Roboto Thin, ';letter-spacing:-0.26458332px;word-spacing:-0.52916682px;fill:#ffffff;stroke-width:0.26458332"
             d="m 32.018206,31.502618 q -0.05152,0.551974 -0.380248,0.848813 -0.328731,0.294385 -0.89297,0.294385 -0.380249,0 -0.674635,-0.19135 -0.291932,-0.193804 -0.453844,-0.547067 -0.161913,-0.355716 -0.164366,-0.812014 v -0.551974 q 0,-0.456298 0.159459,-0.814467 0.159459,-0.360623 0.453845,-0.55688 0.296839,-0.196257 0.679541,-0.196257 0.559333,0 0.890517,0.294386 0.331184,0.294385 0.382701,0.843906 h -0.132474 q -0.05642,-0.493097 -0.34345,-0.748231 -0.287026,-0.257587 -0.797294,-0.257587 -0.520082,0 -0.841453,0.392514 -0.318918,0.392514 -0.318918,1.052429 v 0.524988 q 0,0.421953 0.142286,0.748231 0.142287,0.323824 0.407234,0.505362 0.2674,0.181538 0.610851,0.181538 0.512721,0 0.799748,-0.252681 0.289479,-0.252681 0.340996,-0.758044 z"
             inkscape:connector-curvature="0" />
          <path
             id="path945"
             style="font-style:normal;font-variant:normal;font-weight:normal;font-stretch:normal;line-height:1.25;font-family:'Roboto Thin';-inkscape-font-specification:'Roboto Thin, ';letter-spacing:-0.26458332px;word-spacing:-0.52916682px;fill:#ffffff;stroke-width:0.26458332"
             d="m 33.286882,30.71759 -0.571599,0.527441 v 1.351721 h -0.132474 v -3.571881 h 0.132474 v 2.065607 l 0.588771,-0.576505 1.481742,-1.489102 h 0.191351 l -1.592137,1.60195 1.714797,1.969931 h -0.171725 z"
             inkscape:connector-curvature="0" />
        </g>
      </g>
    </g>
  </g>
</svg>
