<?xml version="1.0" encoding="UTF-8" standalone="no"?>
<!-- Created with Inkscape (http://www.inkscape.org/) -->

<svg
   xmlns:dc="http://purl.org/dc/elements/1.1/"
   xmlns:cc="http://creativecommons.org/ns#"
   xmlns:rdf="http://www.w3.org/1999/02/22-rdf-syntax-ns#"
   xmlns:svg="http://www.w3.org/2000/svg"
   xmlns="http://www.w3.org/2000/svg"
   xmlns:sodipodi="http://sodipodi.sourceforge.net/DTD/sodipodi-0.dtd"
   xmlns:inkscape="http://www.inkscape.org/namespaces/inkscape"
   width="31.152046mm"
   height="10.042008mm"
   viewBox="0 0 31.152046 10.042008"
   version="1.1"
   id="svg2755"
   inkscape:version="0.92.3 (2405546, 2018-03-11)"
   sodipodi:docname="scisharp.svg"
   inkscape:export-filename="SciSharp1024.png"
   inkscape:export-xdpi="834.69354"
   inkscape:export-ydpi="834.69354">
  <defs
     id="defs2749" />
  <sodipodi:namedview
     id="base"
     pagecolor="#ffffff"
     bordercolor="#666666"
     borderopacity="1.0"
     inkscape:pageopacity="0.0"
     inkscape:pageshadow="2"
     inkscape:zoom="5.6568543"
     inkscape:cx="66.591695"
     inkscape:cy="29.918982"
     inkscape:document-units="mm"
     inkscape:current-layer="layer1"
     showgrid="false"
     fit-margin-top="0"
     fit-margin-left="0"
     fit-margin-right="0"
     fit-margin-bottom="0"
     inkscape:window-width="1920"
     inkscape:window-height="1017"
     inkscape:window-x="-8"
     inkscape:window-y="-8"
     inkscape:window-maximized="1" />
  <metadata
     id="metadata2752">
    <rdf:RDF>
      <cc:Work
         rdf:about="">
        <dc:format>image/svg+xml</dc:format>
        <dc:type
           rdf:resource="http://purl.org/dc/dcmitype/StillImage" />
        <dc:title />
      </cc:Work>
    </rdf:RDF>
  </metadata>
  <g
     inkscape:label="Layer 1"
     inkscape:groupmode="layer"
     id="layer1"
     transform="translate(0.45697624,-15.300425)">
    <g
       transform="matrix(0.26458333,0,0,0.26458333,36.534475,-94.656832)"
       id="g2527"
       inkscape:export-filename=".\scisharp_logo.png"
       inkscape:export-xdpi="300"
       inkscape:export-ydpi="300">
      <rect
         ry="0"
         y="415.58649"
         x="-139.81021"
         height="37.954048"
         width="117.74002"
         id="rect1107-9-4-2-0-9-8-1-0"
         style="opacity:1;vector-effect:none;fill:#661f76;fill-opacity:1;fill-rule:nonzero;stroke:none;stroke-width:2.48329353;stroke-linecap:butt;stroke-linejoin:miter;stroke-miterlimit:4;stroke-dasharray:none;stroke-dashoffset:0;stroke-opacity:1" />
      <g
         aria-label="SciSharp"
         style="font-style:normal;font-variant:normal;font-weight:300;font-stretch:normal;font-size:19.58213997px;line-height:1.25;font-family:Calibri;-inkscape-font-specification:'Calibri Light';font-variant-ligatures:normal;font-variant-position:normal;font-variant-caps:normal;font-variant-numeric:normal;font-variant-alternates:normal;font-feature-settings:normal;text-indent:0;text-align:start;text-decoration:none;text-decoration-line:none;text-decoration-style:solid;text-decoration-color:#000000;letter-spacing:0px;word-spacing:0px;text-transform:none;writing-mode:lr-tb;direction:ltr;text-orientation:mixed;dominant-baseline:auto;baseline-shift:baseline;text-anchor:start;white-space:normal;shape-padding:0;opacity:1;vector-effect:none;fill:#ffffff;fill-opacity:1;stroke:none;stroke-width:4.54705524;stroke-linecap:butt;stroke-linejoin:miter;stroke-miterlimit:4;stroke-dasharray:none;stroke-dashoffset:0;stroke-opacity:1"
         id="text1082-7-6-0-5-1-6-3-8">
        <path
           d="m -120.09727,437.56955 q 0,0.8223 -0.29641,1.47249 -0.29641,0.65018 -0.83186,1.10914 -0.53545,0.44939 -1.27169,0.68843 -0.73624,0.23904 -1.60635,0.23904 -0.59281,0 -1.1187,-0.11473 -0.52589,-0.10518 -0.93704,-0.25817 -0.41115,-0.15298 -0.69799,-0.30597 -0.27729,-0.16255 -0.38247,-0.26772 -0.10517,-0.11474 -0.15298,-0.25817 -0.0478,-0.15298 -0.0478,-0.3729 0,-0.16255 0.0191,-0.26772 0.0191,-0.10518 0.0478,-0.17211 0.0382,-0.0669 0.0861,-0.0861 0.0574,-0.0287 0.11474,-0.0287 0.13387,0 0.37291,0.17211 0.2486,0.16254 0.63106,0.36334 0.39203,0.19123 0.92748,0.36334 0.54501,0.16255 1.26213,0.16255 0.58325,0 1.07089,-0.15299 0.48765,-0.16255 0.84142,-0.45896 0.35378,-0.29641 0.54501,-0.72668 0.2008,-0.43983 0.2008,-0.9944 0,-0.5737 -0.2486,-0.98485 -0.2486,-0.41114 -0.65975,-0.71712 -0.40159,-0.31553 -0.91792,-0.56413 -0.51632,-0.25816 -1.06133,-0.50676 -0.53545,-0.25817 -1.05178,-0.55458 -0.51632,-0.29641 -0.92747,-0.68843 -0.40159,-0.40159 -0.65019,-0.93704 -0.2486,-0.53545 -0.2486,-1.27169 0,-0.71712 0.25816,-1.28125 0.25816,-0.5737 0.72668,-0.96572 0.46852,-0.40159 1.11871,-0.61194 0.65975,-0.21036 1.4438,-0.21036 0.39202,0 0.79361,0.0765 0.40159,0.0765 0.75537,0.2008 0.36334,0.11474 0.64062,0.26772 0.28685,0.14342 0.37291,0.23904 0.0956,0.0861 0.11473,0.13386 0.0287,0.0383 0.0478,0.10518 0.0191,0.0669 0.0287,0.16255 0.01,0.0861 0.01,0.21991 0,0.12431 -0.0191,0.22948 -0.01,0.0956 -0.0383,0.17211 -0.0287,0.0669 -0.0765,0.10518 -0.0383,0.0383 -0.0956,0.0383 -0.10518,0 -0.32509,-0.13387 -0.21036,-0.14342 -0.53545,-0.31553 -0.3251,-0.17211 -0.77449,-0.30597 -0.4494,-0.14342 -1.02309,-0.14342 -0.56414,0 -0.98485,0.15298 -0.42071,0.15299 -0.69799,0.42071 -0.27729,0.25816 -0.42071,0.61194 -0.13386,0.35378 -0.13386,0.74581 0,0.57369 0.2486,0.98484 0.2486,0.41115 0.65975,0.72668 0.41115,0.31553 0.92747,0.5737 0.52589,0.2486 1.06134,0.50676 0.54501,0.2486 1.06133,0.54501 0.52589,0.28685 0.93704,0.68844 0.41115,0.39202 0.65975,0.92747 0.2486,0.52589 0.2486,1.25257 z"
           style="font-style:normal;font-variant:normal;font-weight:300;font-stretch:normal;font-size:19.58213997px;line-height:1.25;font-family:Calibri;-inkscape-font-specification:'Calibri Light';font-variant-ligatures:normal;font-variant-position:normal;font-variant-caps:normal;font-variant-numeric:normal;font-variant-alternates:normal;font-feature-settings:normal;text-indent:0;text-align:start;text-decoration-line:none;text-decoration-style:solid;text-decoration-color:#000000;letter-spacing:0px;word-spacing:0px;text-transform:none;writing-mode:lr-tb;direction:ltr;text-orientation:mixed;dominant-baseline:auto;text-anchor:start;white-space:normal;shape-padding:0;vector-effect:none;fill:#ffffff;fill-opacity:1;stroke:none;stroke-width:4.54705524;stroke-linecap:butt;stroke-linejoin:miter;stroke-miterlimit:4;stroke-dasharray:none;stroke-dashoffset:0;stroke-opacity:1"
           id="path827" />
        <path
           d="m -111.65438,439.44362 q 0,0.11474 -0.01,0.21036 -0.01,0.0861 -0.0287,0.15298 -0.0191,0.0669 -0.0574,0.1243 -0.0287,0.0478 -0.15298,0.17211 -0.1243,0.1243 -0.42071,0.31553 -0.28685,0.19124 -0.65019,0.33466 -0.36334,0.14342 -0.78405,0.22948 -0.42071,0.0956 -0.87011,0.0956 -0.89879,0 -1.59678,-0.29641 -0.68844,-0.30597 -1.15696,-0.88922 -0.46851,-0.59282 -0.71712,-1.4438 -0.23903,-0.86055 -0.23903,-1.97925 0,-1.26213 0.2964,-2.16092 0.30598,-0.89879 0.83186,-1.47249 0.52589,-0.57369 1.22389,-0.84142 0.70755,-0.27728 1.51073,-0.27728 0.43027,0 0.8223,0.0861 0.39202,0.0765 0.71711,0.21036 0.33466,0.13386 0.59282,0.30597 0.25817,0.1721 0.37291,0.29641 0.1243,0.11473 0.16254,0.18167 0.0478,0.0574 0.0669,0.13386 0.0287,0.0765 0.0383,0.17211 0.01,0.0861 0.01,0.21035 0,0.27729 -0.0861,0.39203 -0.0765,0.10517 -0.17211,0.10517 -0.13386,0 -0.33466,-0.1721 -0.19123,-0.17211 -0.4972,-0.37291 -0.30597,-0.21035 -0.7458,-0.38246 -0.43028,-0.17211 -1.03266,-0.17211 -1.243,0 -1.92188,0.95616 -0.66931,0.95616 -0.66931,2.7633 0,0.90835 0.18167,1.59679 0.18167,0.67887 0.51633,1.13783 0.34422,0.44939 0.83186,0.67887 0.48764,0.21992 1.09958,0.21992 0.5737,0 1.01353,-0.18167 0.43983,-0.18167 0.76493,-0.40159 0.32509,-0.21992 0.53545,-0.40159 0.21991,-0.18167 0.32509,-0.18167 0.0574,0 0.0956,0.0383 0.0478,0.0287 0.0765,0.10518 0.0287,0.0669 0.0382,0.1721 0.0191,0.0956 0.0191,0.22948 z"
           style="font-style:normal;font-variant:normal;font-weight:300;font-stretch:normal;font-size:19.58213997px;line-height:1.25;font-family:Calibri;-inkscape-font-specification:'Calibri Light';font-variant-ligatures:normal;font-variant-position:normal;font-variant-caps:normal;font-variant-numeric:normal;font-variant-alternates:normal;font-feature-settings:normal;text-indent:0;text-align:start;text-decoration-line:none;text-decoration-style:solid;text-decoration-color:#000000;letter-spacing:0px;word-spacing:0px;text-transform:none;writing-mode:lr-tb;direction:ltr;text-orientation:mixed;dominant-baseline:auto;text-anchor:start;white-space:normal;shape-padding:0;vector-effect:none;fill:#ffffff;fill-opacity:1;stroke:none;stroke-width:4.54705524;stroke-linecap:butt;stroke-linejoin:miter;stroke-miterlimit:4;stroke-dasharray:none;stroke-dashoffset:0;stroke-opacity:1"
           id="path829" />
        <path
           d="m -108.22177,440.72488 q 0,0.0574 -0.0287,0.10517 -0.0287,0.0478 -0.0956,0.0765 -0.0574,0.0287 -0.17211,0.0478 -0.10518,0.0191 -0.27729,0.0191 -0.16254,0 -0.27728,-0.0191 -0.10518,-0.0191 -0.17211,-0.0478 -0.0669,-0.0287 -0.0956,-0.0765 -0.0191,-0.0478 -0.0191,-0.10517 v -8.65325 q 0,-0.0574 0.0191,-0.10517 0.0287,-0.0478 0.0956,-0.0765 0.0669,-0.0382 0.17211,-0.0478 0.11474,-0.0191 0.27728,-0.0191 0.17211,0 0.27729,0.0191 0.11474,0.01 0.17211,0.0478 0.0669,0.0287 0.0956,0.0765 0.0287,0.0478 0.0287,0.10517 z m 0.17211,-11.56953 q 0,0.45896 -0.16255,0.6215 -0.16255,0.16255 -0.59282,0.16255 -0.42071,0 -0.58326,-0.15299 -0.15298,-0.16254 -0.15298,-0.6215 0,-0.45896 0.16255,-0.6215 0.16254,-0.16255 0.59281,-0.16255 0.42071,0 0.5737,0.16255 0.16255,0.15298 0.16255,0.61194 z"
           style="font-style:normal;font-variant:normal;font-weight:300;font-stretch:normal;font-size:19.58213997px;line-height:1.25;font-family:Calibri;-inkscape-font-specification:'Calibri Light';font-variant-ligatures:normal;font-variant-position:normal;font-variant-caps:normal;font-variant-numeric:normal;font-variant-alternates:normal;font-feature-settings:normal;text-indent:0;text-align:start;text-decoration-line:none;text-decoration-style:solid;text-decoration-color:#000000;letter-spacing:0px;word-spacing:0px;text-transform:none;writing-mode:lr-tb;direction:ltr;text-orientation:mixed;dominant-baseline:auto;text-anchor:start;white-space:normal;shape-padding:0;vector-effect:none;fill:#ffffff;fill-opacity:1;stroke:none;stroke-width:4.54705524;stroke-linecap:butt;stroke-linejoin:miter;stroke-miterlimit:4;stroke-dasharray:none;stroke-dashoffset:0;stroke-opacity:1"
           id="path831" />
        <path
           d="m -98.564563,437.56955 q 0,0.8223 -0.296409,1.47249 -0.29641,0.65018 -0.831859,1.10914 -0.535449,0.44939 -1.271689,0.68843 -0.73624,0.23904 -1.60635,0.23904 -0.59282,0 -1.11871,-0.11473 -0.52588,-0.10518 -0.93703,-0.25817 -0.41115,-0.15298 -0.698,-0.30597 -0.27728,-0.16255 -0.38246,-0.26772 -0.10518,-0.11474 -0.15299,-0.25817 -0.0478,-0.15298 -0.0478,-0.3729 0,-0.16255 0.0191,-0.26772 0.0191,-0.10518 0.0478,-0.17211 0.0382,-0.0669 0.0861,-0.0861 0.0574,-0.0287 0.11474,-0.0287 0.13386,0 0.3729,0.17211 0.2486,0.16254 0.63107,0.36334 0.39202,0.19123 0.92747,0.36334 0.54501,0.16255 1.26213,0.16255 0.58326,0 1.0709,-0.15299 0.48764,-0.16255 0.84142,-0.45896 0.35378,-0.29641 0.54501,-0.72668 0.200793,-0.43983 0.200793,-0.9944 0,-0.5737 -0.248603,-0.98485 -0.2486,-0.41114 -0.65975,-0.71712 -0.40158,-0.31553 -0.91791,-0.56413 -0.51633,-0.25816 -1.06134,-0.50676 -0.53545,-0.25817 -1.05177,-0.55458 -0.51633,-0.29641 -0.92748,-0.68843 -0.40158,-0.40159 -0.65019,-0.93704 -0.2486,-0.53545 -0.2486,-1.27169 0,-0.71712 0.25817,-1.28125 0.25816,-0.5737 0.72668,-0.96572 0.46852,-0.40159 1.1187,-0.61194 0.65975,-0.21036 1.4438,-0.21036 0.39203,0 0.79362,0.0765 0.40158,0.0765 0.75536,0.2008 0.36334,0.11474 0.640629,0.26772 0.286847,0.14342 0.372902,0.23904 0.09562,0.0861 0.114739,0.13386 0.02869,0.0383 0.04781,0.10518 0.01912,0.0669 0.02869,0.16255 0.0096,0.0861 0.0096,0.21991 0,0.12431 -0.01912,0.22948 -0.0096,0.0956 -0.03825,0.17211 -0.02869,0.0669 -0.07649,0.10518 -0.03825,0.0383 -0.09562,0.0383 -0.105178,0 -0.325094,-0.13387 -0.210352,-0.14342 -0.535452,-0.31553 -0.32509,-0.17211 -0.77449,-0.30597 -0.44939,-0.14342 -1.02309,-0.14342 -0.56413,0 -0.98484,0.15298 -0.42071,0.15299 -0.698,0.42071 -0.27728,0.25816 -0.42071,0.61194 -0.13386,0.35378 -0.13386,0.74581 0,0.57369 0.2486,0.98484 0.2486,0.41115 0.65975,0.72668 0.41115,0.31553 0.92748,0.5737 0.52588,0.2486 1.06133,0.50676 0.54501,0.2486 1.06134,0.54501 0.525888,0.28685 0.937036,0.68844 0.411148,0.39202 0.65975,0.92747 0.248601,0.52589 0.248601,1.25257 z"
           style="font-style:normal;font-variant:normal;font-weight:300;font-stretch:normal;font-size:19.58213997px;line-height:1.25;font-family:Calibri;-inkscape-font-specification:'Calibri Light';font-variant-ligatures:normal;font-variant-position:normal;font-variant-caps:normal;font-variant-numeric:normal;font-variant-alternates:normal;font-feature-settings:normal;text-indent:0;text-align:start;text-decoration-line:none;text-decoration-style:solid;text-decoration-color:#000000;letter-spacing:0px;word-spacing:0px;text-transform:none;writing-mode:lr-tb;direction:ltr;text-orientation:mixed;dominant-baseline:auto;text-anchor:start;white-space:normal;shape-padding:0;vector-effect:none;fill:#ffffff;fill-opacity:1;stroke:none;stroke-width:4.54705524;stroke-linecap:butt;stroke-linejoin:miter;stroke-miterlimit:4;stroke-dasharray:none;stroke-dashoffset:0;stroke-opacity:1"
           id="path833" />
        <path
           d="m -89.146395,440.72488 q 0,0.0574 -0.02868,0.10517 -0.02869,0.0478 -0.09562,0.0765 -0.05737,0.0287 -0.172109,0.0478 -0.105177,0.0191 -0.267724,0.0191 -0.172109,0 -0.286848,-0.0191 -0.105178,-0.0191 -0.172109,-0.0478 -0.05737,-0.0287 -0.08605,-0.0765 -0.02868,-0.0478 -0.02868,-0.10517 v -5.13458 q 0,-0.80317 -0.124301,-1.30038 -0.1243,-0.50676 -0.372902,-0.86054 -0.248601,-0.36334 -0.640626,-0.55457 -0.382464,-0.20079 -0.89879,-0.20079 -0.65975,0 -1.3195,0.46851 -0.65975,0.46852 -1.386431,1.37687 v 6.20548 q 0,0.0574 -0.02868,0.10517 -0.02868,0.0478 -0.09562,0.0765 -0.05737,0.0287 -0.172109,0.0478 -0.105177,0.0191 -0.277286,0.0191 -0.162547,0 -0.277286,-0.0191 -0.105178,-0.0191 -0.172109,-0.0478 -0.06693,-0.0287 -0.09562,-0.0765 -0.01912,-0.0478 -0.01912,-0.10517 v -12.88903 q 0,-0.0574 0.01912,-0.10518 0.02869,-0.0478 0.09562,-0.0765 0.06693,-0.0383 0.172109,-0.0478 0.114739,-0.0191 0.277286,-0.0191 0.172109,0 0.277286,0.0191 0.114739,0.01 0.172109,0.0478 0.06693,0.0287 0.09562,0.0765 0.02868,0.0478 0.02868,0.10518 v 5.4023 q 0.707558,-0.78405 1.415116,-1.14739 0.707558,-0.3729 1.415116,-0.3729 0.850981,0 1.434238,0.28684 0.583258,0.28685 0.937036,0.77449 0.363341,0.48764 0.516326,1.13783 0.162547,0.65019 0.162547,1.5681 z"
           style="font-style:normal;font-variant:normal;font-weight:300;font-stretch:normal;font-size:19.58213997px;line-height:1.25;font-family:Calibri;-inkscape-font-specification:'Calibri Light';font-variant-ligatures:normal;font-variant-position:normal;font-variant-caps:normal;font-variant-numeric:normal;font-variant-alternates:normal;font-feature-settings:normal;text-indent:0;text-align:start;text-decoration-line:none;text-decoration-style:solid;text-decoration-color:#000000;letter-spacing:0px;word-spacing:0px;text-transform:none;writing-mode:lr-tb;direction:ltr;text-orientation:mixed;dominant-baseline:auto;text-anchor:start;white-space:normal;shape-padding:0;vector-effect:none;fill:#ffffff;fill-opacity:1;stroke:none;stroke-width:4.54705524;stroke-linecap:butt;stroke-linejoin:miter;stroke-miterlimit:4;stroke-dasharray:none;stroke-dashoffset:0;stroke-opacity:1"
           id="path835" />
        <path
           d="m -79.929021,440.72488 q 0,0.0956 -0.06693,0.15298 -0.05737,0.0478 -0.162547,0.0669 -0.09562,0.0287 -0.267725,0.0287 -0.162547,0 -0.277286,-0.0287 -0.114739,-0.0191 -0.18167,-0.0669 -0.05737,-0.0574 -0.05737,-0.15298 v -0.96573 q -0.583257,0.63107 -1.290815,0.97529 -0.697996,0.34421 -1.453362,0.34421 -0.678873,0 -1.223884,-0.1721 -0.535449,-0.18167 -0.908351,-0.50677 -0.372902,-0.33465 -0.573695,-0.80317 -0.200794,-0.46852 -0.200794,-1.05178 0,-0.71712 0.29641,-1.243 0.296409,-0.53545 0.84142,-0.88923 0.54501,-0.35378 1.309938,-0.52589 0.764927,-0.18167 1.701963,-0.18167 h 1.376869 v -0.7458 q 0,-0.55458 -0.114739,-0.97529 -0.114739,-0.43027 -0.372902,-0.71712 -0.258163,-0.28684 -0.669311,-0.43027 -0.411149,-0.14342 -1.003967,-0.14342 -0.573696,0 -1.032652,0.14342 -0.458957,0.13386 -0.803174,0.30597 -0.344217,0.17211 -0.573696,0.31554 -0.219916,0.13386 -0.315532,0.13386 -0.05737,0 -0.105178,-0.0191 -0.04781,-0.0191 -0.08605,-0.0669 -0.02868,-0.0574 -0.04781,-0.13386 -0.0096,-0.0861 -0.0096,-0.20079 0,-0.2008 0.02868,-0.31553 0.02868,-0.12431 0.143424,-0.23904 0.124301,-0.12431 0.430272,-0.28685 0.305971,-0.16255 0.697996,-0.29641 0.401587,-0.14343 0.860543,-0.22948 0.458957,-0.0861 0.917913,-0.0861 0.889228,0 1.50117,0.21991 0.611942,0.21036 0.984844,0.61194 0.382464,0.40159 0.545011,0.99441 0.162547,0.58326 0.162547,1.32906 z m -1.13783,-4.0828 h -1.577662 q -0.688435,0 -1.204761,0.1243 -0.516326,0.1243 -0.860543,0.36334 -0.344217,0.23904 -0.516326,0.57369 -0.162547,0.33466 -0.162547,0.76493 0,0.7458 0.468518,1.1952 0.478079,0.43983 1.338623,0.43983 0.678873,0 1.26213,-0.34422 0.592818,-0.35377 1.252568,-1.08046 z"
           style="font-style:normal;font-variant:normal;font-weight:300;font-stretch:normal;font-size:19.58213997px;line-height:1.25;font-family:Calibri;-inkscape-font-specification:'Calibri Light';font-variant-ligatures:normal;font-variant-position:normal;font-variant-caps:normal;font-variant-numeric:normal;font-variant-alternates:normal;font-feature-settings:normal;text-indent:0;text-align:start;text-decoration-line:none;text-decoration-style:solid;text-decoration-color:#000000;letter-spacing:0px;word-spacing:0px;text-transform:none;writing-mode:lr-tb;direction:ltr;text-orientation:mixed;dominant-baseline:auto;text-anchor:start;white-space:normal;shape-padding:0;vector-effect:none;fill:#ffffff;fill-opacity:1;stroke:none;stroke-width:4.54705524;stroke-linecap:butt;stroke-linejoin:miter;stroke-miterlimit:4;stroke-dasharray:none;stroke-dashoffset:0;stroke-opacity:1"
           id="path837" />
        <path
           d="m -71.973775,432.51147 q 0,0.14342 -0.0096,0.2486 -0.0096,0.0956 -0.03825,0.16255 -0.01912,0.0574 -0.05737,0.0956 -0.02868,0.0287 -0.08606,0.0287 -0.08605,0 -0.200793,-0.0383 -0.114739,-0.0478 -0.267725,-0.0956 -0.152985,-0.0478 -0.334655,-0.0861 -0.18167,-0.0478 -0.401587,-0.0478 -0.258163,0 -0.506764,0.11474 -0.248602,0.10518 -0.525888,0.35378 -0.267725,0.23904 -0.573696,0.64063 -0.296409,0.40158 -0.659749,0.98484 v 5.8517 q 0,0.0574 -0.02868,0.10517 -0.02869,0.0478 -0.09562,0.0765 -0.05737,0.0287 -0.172109,0.0478 -0.105177,0.0191 -0.277286,0.0191 -0.162547,0 -0.277286,-0.0191 -0.105178,-0.0191 -0.172109,-0.0478 -0.06693,-0.0287 -0.09562,-0.0765 -0.01912,-0.0478 -0.01912,-0.10517 v -8.65325 q 0,-0.0574 0.01912,-0.10517 0.02868,-0.0478 0.09562,-0.0765 0.06693,-0.0382 0.162547,-0.0478 0.105178,-0.0191 0.267725,-0.0191 0.162547,0 0.267725,0.0191 0.105177,0.01 0.162547,0.0478 0.05737,0.0287 0.07649,0.0765 0.02868,0.0478 0.02868,0.10517 v 1.36731 q 0.372902,-0.54501 0.688435,-0.87966 0.315532,-0.33466 0.60238,-0.51633 0.286848,-0.19123 0.554572,-0.25816 0.277286,-0.0669 0.564134,-0.0669 0.124301,0 0.286848,0.0191 0.162547,0.01 0.344217,0.0478 0.191232,0.0382 0.334656,0.0956 0.152985,0.0478 0.210355,0.0956 0.05737,0.0383 0.07649,0.0765 0.01912,0.0287 0.02868,0.0861 0.01912,0.0478 0.01912,0.14342 0.0096,0.0861 0.0096,0.22948 z"
           style="font-style:normal;font-variant:normal;font-weight:300;font-stretch:normal;font-size:19.58213997px;line-height:1.25;font-family:Calibri;-inkscape-font-specification:'Calibri Light';font-variant-ligatures:normal;font-variant-position:normal;font-variant-caps:normal;font-variant-numeric:normal;font-variant-alternates:normal;font-feature-settings:normal;text-indent:0;text-align:start;text-decoration-line:none;text-decoration-style:solid;text-decoration-color:#000000;letter-spacing:0px;word-spacing:0px;text-transform:none;writing-mode:lr-tb;direction:ltr;text-orientation:mixed;dominant-baseline:auto;text-anchor:start;white-space:normal;shape-padding:0;vector-effect:none;fill:#ffffff;fill-opacity:1;stroke:none;stroke-width:4.54705524;stroke-linecap:butt;stroke-linejoin:miter;stroke-miterlimit:4;stroke-dasharray:none;stroke-dashoffset:0;stroke-opacity:1"
           id="path839" />
        <path
           d="m -62.450429,436.26917 q 0,1.10915 -0.248601,1.99838 -0.23904,0.88922 -0.717119,1.51073 -0.468518,0.6215 -1.166515,0.96572 -0.697996,0.33465 -1.596785,0.33465 -0.382464,0 -0.71712,-0.0861 -0.334656,-0.0765 -0.65975,-0.2486 -0.315532,-0.17211 -0.640626,-0.43027 -0.315533,-0.25817 -0.669312,-0.62151 v 4.46527 q 0,0.0574 -0.02868,0.10517 -0.02868,0.0478 -0.09561,0.0765 -0.05737,0.0382 -0.172109,0.0478 -0.105178,0.0191 -0.277286,0.0191 -0.162547,0 -0.277286,-0.0191 -0.105178,-0.01 -0.172109,-0.0478 -0.06693,-0.0287 -0.09562,-0.0765 -0.01912,-0.0478 -0.01912,-0.10517 v -12.08586 q 0,-0.0669 0.01912,-0.11473 0.02868,-0.0478 0.08605,-0.0765 0.06693,-0.0287 0.162547,-0.0382 0.105178,-0.0191 0.248602,-0.0191 0.143424,0 0.23904,0.0191 0.09562,0.01 0.162547,0.0382 0.06693,0.0287 0.09562,0.0765 0.02868,0.0478 0.02868,0.11473 v 1.25257 q 0.401587,-0.41115 0.764928,-0.70755 0.36334,-0.30598 0.726681,-0.50677 0.36334,-0.20079 0.745804,-0.29641 0.382463,-0.0956 0.812735,-0.0956 0.937036,0 1.596786,0.36334 0.65975,0.35378 1.070898,0.97528 0.42071,0.6215 0.60238,1.45336 0.191232,0.8223 0.191232,1.75933 z m -1.195199,0.18167 q 0,-0.72668 -0.114739,-1.39599 -0.114739,-0.67887 -0.392025,-1.20476 -0.267725,-0.52589 -0.726681,-0.84142 -0.449395,-0.31553 -1.137829,-0.31553 -0.344218,0 -0.678873,0.0956 -0.325095,0.0956 -0.669312,0.31554 -0.344217,0.21991 -0.717119,0.57369 -0.372902,0.34422 -0.784051,0.86055 v 3.76726 q 0.71712,0.87011 1.367308,1.33863 0.65975,0.45895 1.376869,0.45895 0.65975,0 1.128268,-0.31553 0.478079,-0.32509 0.774489,-0.84142 0.296409,-0.52589 0.430271,-1.17608 0.143424,-0.65975 0.143424,-1.3195 z"
           style="font-style:normal;font-variant:normal;font-weight:300;font-stretch:normal;font-size:19.58213997px;line-height:1.25;font-family:Calibri;-inkscape-font-specification:'Calibri Light';font-variant-ligatures:normal;font-variant-position:normal;font-variant-caps:normal;font-variant-numeric:normal;font-variant-alternates:normal;font-feature-settings:normal;text-indent:0;text-align:start;text-decoration-line:none;text-decoration-style:solid;text-decoration-color:#000000;letter-spacing:0px;word-spacing:0px;text-transform:none;writing-mode:lr-tb;direction:ltr;text-orientation:mixed;dominant-baseline:auto;text-anchor:start;white-space:normal;shape-padding:0;vector-effect:none;fill:#ffffff;fill-opacity:1;stroke:none;stroke-width:4.54705524;stroke-linecap:butt;stroke-linejoin:miter;stroke-miterlimit:4;stroke-dasharray:none;stroke-dashoffset:0;stroke-opacity:1"
           id="path841" />
      </g>
      <g
         id="g2390-1-1"
         transform="translate(-63.703501,104.76043)">
        <g
           id="g2136-6-7-8"
           transform="translate(2.1606054,49.500006)">
          <path
             style="color:#000000;font-style:normal;font-variant:normal;font-weight:normal;font-stretch:normal;font-size:medium;line-height:normal;font-family:sans-serif;font-variant-ligatures:normal;font-variant-position:normal;font-variant-caps:normal;font-variant-numeric:normal;font-variant-alternates:normal;font-feature-settings:normal;text-indent:0;text-align:start;text-decoration:none;text-decoration-line:none;text-decoration-style:solid;text-decoration-color:#000000;letter-spacing:normal;word-spacing:normal;text-transform:none;writing-mode:lr-tb;direction:ltr;text-orientation:mixed;dominant-baseline:auto;baseline-shift:baseline;text-anchor:start;white-space:normal;shape-padding:0;clip-rule:nonzero;display:inline;overflow:visible;visibility:visible;opacity:1;isolation:auto;mix-blend-mode:normal;color-interpolation:sRGB;color-interpolation-filters:linearRGB;solid-color:#000000;solid-opacity:1;vector-effect:none;fill:#865fc5;fill-opacity:1;fill-rule:nonzero;stroke:none;stroke-width:1.4881916;stroke-linecap:butt;stroke-linejoin:miter;stroke-miterlimit:4;stroke-dasharray:none;stroke-dashoffset:0;stroke-opacity:1;color-rendering:auto;image-rendering:auto;shape-rendering:auto;text-rendering:auto;enable-background:accumulate"
             d="m 18.75,268.86914 c -1.956618,0.004 -3.900722,0.1631 -5.773438,0.47461 l -0.271484,0.0449 -0.177734,0.21094 c -1.215569,1.4488 -2.337314,3.03487 -3.3320315,4.70898 -1.0350463,1.74492 -1.9191059,3.56564 -2.6230469,5.40039 l -0.1035156,0.26563 0.1015625,0.26562 c 0.7025799,1.8405 1.5886291,3.66656 2.625,5.41797 v 0.002 c 0.9925975,1.67114 2.1114145,3.25425 3.3242185,4.70117 l 0.177735,0.20898 0.269531,0.0469 c 1.874445,0.31443 3.823407,0.47659 5.783203,0.48242 h 0.002 c 1.95537,-0.004 3.899965,-0.16525 5.771485,-0.47656 l 0.271484,-0.0449 0.175781,-0.20898 c 1.216757,-1.44849 2.339947,-3.03454 3.335938,-4.70898 v -0.002 c 1.033905,-1.74521 1.918454,-3.56395 2.621093,-5.39843 l 0.101563,-0.26563 -0.101563,-0.26562 c -0.701277,-1.84023 -1.583909,-3.66626 -2.61914,-5.41797 l -0.002,-0.002 c -0.993874,-1.67146 -2.114134,-3.25457 -3.328125,-4.70117 l -0.175782,-0.21094 -0.271484,-0.0449 c -1.873252,-0.31422 -3.818799,-0.4764 -5.777344,-0.48242 h -0.002 z m -0.002,1.48828 h 0.0039 c 1.781829,0.006 3.545667,0.16684 5.25,0.4375 1.091995,1.32441 2.120887,2.75228 3.025391,4.27344 0.942083,1.59428 1.728378,3.25733 2.380859,4.92383 -0.653584,1.66112 -1.440121,3.31811 -2.380859,4.90625 -0.906518,1.52402 -1.936673,2.95499 -3.03125,4.28125 -1.702668,0.26804 -3.463391,0.42778 -5.242188,0.43164 -1.784371,-0.005 -3.551068,-0.1684 -5.257812,-0.43945 -1.090582,-1.32428 -2.11837,-2.75116 -3.021485,-4.27149 v -0.002 c -0.9428329,-1.59352 -1.7311936,-3.25563 -2.3847652,-4.92188 0.654994,-1.66195 1.4425871,-3.31984 2.3847652,-4.9082 0.905335,-1.52368 1.935808,-2.95278 3.029297,-4.2793 1.703789,-0.26821 3.464173,-0.42796 5.244141,-0.43164 z"
             id="path926-1-2-6-4-6-5-2-9-6-3-0-3"
             inkscape:connector-curvature="0" />
          <g
             aria-label="#"
             style="font-style:normal;font-weight:normal;font-size:19.89817238px;line-height:1.25;font-family:sans-serif;letter-spacing:0px;word-spacing:0px;opacity:1;vector-effect:none;fill:#ffffff;fill-opacity:1;stroke:none;stroke-width:1.97651362;stroke-linecap:butt;stroke-linejoin:miter;stroke-miterlimit:4;stroke-dasharray:none;stroke-dashoffset:0;stroke-opacity:1"
             id="text1024-3-5-6-6-6-5-7-9-9-8-8-4">
            <path
               d="m 24.996652,278.16206 h -3.235397 l -0.893863,3.65318 h 2.992499 v 1.31165 h -3.332555 l -1.010455,4.0904 H 18.26353 l 1.010454,-4.0904 H 16.65069 l -1.010454,4.0904 h -1.253352 l 1.010454,-4.0904 h -2.89534 v -1.31165 h 3.235397 l 0.893863,-3.65318 h -2.992499 v -1.31164 h 3.332556 l 1.020169,-4.10012 h 1.253352 l -1.02017,4.10012 h 2.623294 l 1.02017,-4.10012 h 1.253352 l -1.02017,4.10012 h 2.89534 z m -4.459601,-0.0194 h -2.662157 l -0.913295,3.69204 h 2.662157 z"
               style="vector-effect:none;fill:#ffffff;fill-opacity:1;stroke:none;stroke-width:1.97651362;stroke-linecap:butt;stroke-linejoin:miter;stroke-miterlimit:4;stroke-dasharray:none;stroke-dashoffset:0;stroke-opacity:1"
               id="path824" />
          </g>
          <path
             inkscape:connector-curvature="0"
             id="path926-1-2-6-4-6-5-2-9-5-2-1-1-0"
             d="m 18.750997,268.87325 c -1.956618,0.004 -3.900723,0.1631 -5.773438,0.47461 l -0.271484,0.0449 0.797778,1.39625 c 1.702053,-0.26768 3.469124,-0.42382 5.247144,-0.4275 h 0.0039 c 1.782454,0.006 3.545117,0.16665 5.25,0.4375 1.091427,1.32372 2.11929,2.7512 3.023438,4.27149 0.94292,1.59551 1.729961,3.2599 2.382812,4.92773 -0.0013,0.003 -0.0026,0.007 -0.0039,0.01 l 1.615235,0.008 0.0078,-0.0176 -0.101563,-0.26562 c -0.701268,-1.84026 -1.583909,-3.66626 -2.619141,-5.41797 v -0.002 h -0.002 c -0.993823,-1.67146 -2.114083,-3.25458 -3.328075,-4.70118 l -0.175781,-0.21093 -0.271484,-0.0449 c -1.873252,-0.31422 -3.818799,-0.4764 -5.777344,-0.48242 h -0.002 z"
             style="color:#000000;font-style:normal;font-variant:normal;font-weight:normal;font-stretch:normal;font-size:medium;line-height:normal;font-family:sans-serif;font-variant-ligatures:normal;font-variant-position:normal;font-variant-caps:normal;font-variant-numeric:normal;font-variant-alternates:normal;font-feature-settings:normal;text-indent:0;text-align:start;text-decoration:none;text-decoration-line:none;text-decoration-style:solid;text-decoration-color:#000000;letter-spacing:normal;word-spacing:normal;text-transform:none;writing-mode:lr-tb;direction:ltr;text-orientation:mixed;dominant-baseline:auto;baseline-shift:baseline;text-anchor:start;white-space:normal;shape-padding:0;clip-rule:nonzero;display:inline;overflow:visible;visibility:visible;opacity:1;isolation:auto;mix-blend-mode:normal;color-interpolation:sRGB;color-interpolation-filters:linearRGB;solid-color:#000000;solid-opacity:1;vector-effect:none;fill:#3fc6ee;fill-opacity:1;fill-rule:nonzero;stroke:none;stroke-width:1.4881916;stroke-linecap:butt;stroke-linejoin:miter;stroke-miterlimit:4;stroke-dasharray:none;stroke-dashoffset:0;stroke-opacity:1;color-rendering:auto;image-rendering:auto;shape-rendering:auto;text-rendering:auto;enable-background:accumulate"
             sodipodi:nodetypes="cccccccccccccccccccccc" />
        </g>
      </g>
      <circle
         r="0.91702771"
         cy="429.14914"
         cx="-108.79495"
         id="path1878-4-0"
         style="opacity:1;vector-effect:none;fill:#3fc6ee;fill-opacity:1;fill-rule:nonzero;stroke:#3fc6ee;stroke-width:0.59554005;stroke-linecap:butt;stroke-linejoin:miter;stroke-miterlimit:4;stroke-dasharray:none;stroke-dashoffset:0;stroke-opacity:1" />
    </g>
  </g>
</svg>
