<?xml version="1.0" encoding="UTF-8" standalone="no"?>
<svg
   xmlns:dc="http://purl.org/dc/elements/1.1/"
   xmlns:cc="http://creativecommons.org/ns#"
   xmlns:rdf="http://www.w3.org/1999/02/22-rdf-syntax-ns#"
   xmlns:svg="http://www.w3.org/2000/svg"
   xmlns="http://www.w3.org/2000/svg"
   xmlns:sodipodi="http://sodipodi.sourceforge.net/DTD/sodipodi-0.dtd"
   xmlns:inkscape="http://www.inkscape.org/namespaces/inkscape"
   version="1.0"
   width="1280.000000pt"
   height="640.000000pt"
   viewBox="0 0 1280.000000 640.000000"
   preserveAspectRatio="xMidYMid meet"
   id="svg32"
   sodipodi:docname="3rd_party_everspry.svg"
   inkscape:version="0.92.3 (2405546, 2018-03-11)">
  <defs
     id="defs36">
    <clipPath
       id="clipPath22"
       clipPathUnits="userSpaceOnUse">
      <path
         inkscape:connector-curvature="0"
         style="clip-rule:evenodd"
         id="path20-1"
         d="M 0,2955.9 H 6043.2 V 5153.1 H 0 Z" />
    </clipPath>
    <linearGradient
       gradientUnits="userSpaceOnUse"
       x2="3.5587799"
       id="linear-gradient"
       gradientTransform="scale(0.98979961,1.0103055)"
       x1="-1.1825481e-006"
       y1="0"
       y2="0">
      <stop
         id="stop865"
         stop-color="#fcb617"
         offset="0" />
      <stop
         id="stop867"
         stop-color="#fcb617"
         offset="0.13" />
      <stop
         id="stop869"
         stop-color="#f96"
         offset="0.36" />
      <stop
         id="stop871"
         stop-color="#e60020"
         offset="0.69" />
      <stop
         id="stop873"
         stop-color="#be0020"
         offset="1" />
    </linearGradient>
  </defs>
  <sodipodi:namedview
     pagecolor="#ffffff"
     bordercolor="#666666"
     borderopacity="1"
     objecttolerance="10"
     gridtolerance="10"
     guidetolerance="10"
     inkscape:pageopacity="0"
     inkscape:pageshadow="2"
     inkscape:window-width="1920"
     inkscape:window-height="1017"
     id="namedview34"
     showgrid="false"
     inkscape:zoom="0.23533398"
     inkscape:cx="2332.4558"
     inkscape:cy="-108.33937"
     inkscape:window-x="1912"
     inkscape:window-y="-8"
     inkscape:window-maximized="1"
     inkscape:current-layer="svg32"
     borderlayer="true"
     showguides="true"
     inkscape:guide-bbox="true" />
  <metadata
     id="metadata2">
Created by potrace 1.15, written by Peter Selinger 2001-2017
<rdf:RDF>
  <cc:Work
     rdf:about="">
    <dc:format>image/svg+xml</dc:format>
    <dc:type
       rdf:resource="http://purl.org/dc/dcmitype/StillImage" />
    <dc:title></dc:title>
  </cc:Work>
</rdf:RDF>
</metadata>
  <path
     style="fill:#ffffff;stroke-width:0.99999994"
     d="m 208.82789,566.03112 c -0.19411,-0.78273 -1.93339,-13.91132 -3.8649,-29.17465 -5.68996,-44.96281 -4.74631,-40.86293 -9.63114,-41.8399 -2.35049,-0.47009 -5.72278,-0.8547 -7.49433,-0.8547 -5.18806,0 -26.30215,-6.54786 -37.03748,-11.48601 -45.38305,-20.87562 -79.301367,-66.66407 -85.053371,-114.81889 -0.83113,-6.95833 -1.811398,-6.69259 15.331354,-4.1563 l 11.343482,1.67831 3.175726,12.09054 c 10.525639,40.07279 40.090999,71.71359 79.450689,85.02793 10.27232,3.47485 20.63915,5.32556 20.62625,3.68221 -0.0323,-4.03849 -6.04101,-50.51832 -7.19984,-55.68965 -1.54459,-6.89252 -4.74252,-13.86881 -8.12601,-17.72784 -1.68065,-1.9167 -4.42829,-2.49052 -11.92528,-2.49052 h -9.74139 v -20.66934 -20.66934 l 24.54941,0.3894 24.54939,0.38939 0.2463,19.95235 c 0.13473,10.97379 0.63283,21.54071 1.10475,23.48203 0.47211,1.94134 0.67629,41.95485 0.4537,88.91892 -0.22239,46.96407 -0.56337,84.7488 -0.75731,83.96606 z m 14.02016,-72.22504 c 0.0683,-0.97844 0.87362,-7.17392 1.78956,-13.76778 l 1.66509,-11.98883 11.37461,-2.48991 c 20.35735,-4.45628 31.81242,-9.80406 49.57641,-23.14478 23.3938,-17.5687 39.12743,-44.17274 45.7764,-77.40411 0.86983,-4.34654 0.68293,-4.62524 -3.10115,-4.62497 -2.2148,1.3e-4 -11.71178,1.24255 -21.1046,2.76088 -9.39281,1.51833 -21.24066,3.20477 -26.32835,3.74764 -5.08787,0.54287 -10.91654,1.82942 -12.95297,2.859 -5.19792,2.6282 -8.89395,8.85422 -9.22317,15.53739 l -0.28065,5.6926 -23.63897,0.39022 -23.63877,0.39019 v -21.31963 -21.31963 l 25.97256,-0.55 c 44.98969,-0.9527 176.1648,-1.9957 175.56498,-1.39597 -0.31556,0.31561 -11.68827,2.14733 -25.27275,4.07053 -13.58447,1.92321 -25.49949,3.78495 -26.47787,4.1372 -1.03529,0.37273 -1.77893,3.11424 -1.77893,6.55741 0,8.10612 -5.2465,29.78315 -10.08751,41.67893 -9.24764,22.72411 -28.70709,47.86054 -48.66996,62.86884 -17.0416,12.81209 -41.25532,23.11535 -63.46449,27.00485 -14.51863,2.54268 -15.85753,2.56911 -15.69947,0.30993 z m 664.73914,-80.76975 c -15.35772,-3.25653 -28.11316,-12.27838 -33.14714,-23.44469 l -2.58047,-5.72419 5.28579,-1.56932 c 2.90722,-0.86315 7.52715,-1.98128 10.26682,-2.48474 4.65068,-0.8547 5.16965,-0.56428 7.82734,4.37948 10.39301,19.33381 51.94511,16.05236 51.94511,-4.10227 0,-7.23705 -5.48692,-13.1156 -14.36246,-15.38764 -20.1067,-5.14705 -37.66216,-10.82688 -41.53882,-13.43937 -2.44441,-1.64735 -6.29813,-6.51294 -8.56378,-10.81242 -3.7078,-7.03671 -4.05599,-8.84335 -3.48749,-18.09392 0.49829,-8.10849 1.44269,-11.50243 4.47629,-16.08655 4.6894,-7.08606 14.25431,-13.37112 23.85339,-15.67391 7.90912,-1.89737 25.75111,-1.16298 34.24999,1.4097 7.3763,2.23288 16.85281,9.81099 20.63327,16.5 l 3.18008,5.62643 -7.44139,2.40357 c -10.61843,3.42982 -12.86265,3.18284 -16.56342,-1.82284 -4.1372,-5.59569 -10.87612,-8.40808 -20.1475,-8.40808 -9.62639,0 -16.17175,3.24375 -19.13154,9.48109 -5.30628,11.18204 1.13435,16.89559 26.16345,23.20966 26.7587,6.75042 35.40179,12.28705 39.83065,25.51512 2.02752,6.05584 2.06814,16.26059 0.093,23.37355 -2.26643,8.16199 -13.04388,18.42983 -23.31657,22.21425 -9.6006,3.53678 -27.93044,4.97147 -37.52458,2.93708 z M 451.85131,351.13491 v -60.48403 h 38.42515 38.42516 v 9.2505 9.2505 h -27.7515 -27.75151 v 16.36627 16.36626 h 22.77047 22.77046 v 8.53893 8.53892 h -22.77046 -22.77047 v 15.65469 c 0,8.61008 -0.15938,16.135 -0.35579,16.72205 -0.19581,0.58707 12.4526,1.38759 28.1073,1.77896 l 28.46306,0.71156 0.42373,8.89471 0.42353,8.89472 H 491.05597 451.85131 Z M 573.50875,409.84 c -0.65314,-1.80356 -15.26816,-49.01296 -27.64599,-89.30289 -3.72734,-12.13239 -7.20438,-23.82005 -7.72678,-25.97256 l -0.94972,-3.91367 h 11.19491 11.1949 l 9.57821,32.37675 c 14.08429,47.6084 18.10706,60.39221 18.78924,59.70992 0.33643,-0.33643 4.08084,-12.06757 8.32089,-26.06922 4.24004,-14.00167 10.50439,-34.42344 13.92091,-45.38172 l 6.21159,-19.92415 8.92753,-0.42677 c 8.73533,-0.41758 8.90573,-0.35635 7.92166,2.84631 -4.08369,13.29207 -16.69929,53.61898 -24.17483,77.27707 -4.94649,15.65469 -9.78466,31.18487 -10.75126,34.51147 l -1.75769,6.04841 h -11.20459 c -7.67116,0 -11.40781,-0.56098 -11.84898,-1.77895 z m 74.73777,-58.70509 v -60.48403 h 39.13672 39.13674 v 9.30396 9.30395 l -28.10729,-0.16907 c -15.45906,-0.093 -27.94732,0.20316 -27.7515,0.65813 0.19563,0.45495 0.35579,7.87179 0.35579,16.48188 v 15.65468 h 22.05888 22.05888 v 8.53893 8.53892 h -22.05888 -22.05888 l -9.5e-4,17.43364 -7.6e-4,17.43362 h 28.10804 28.10824 l 0.42372,8.89471 0.42353,8.89472 h -39.91605 -39.91623 z m 98.90918,0.35556 v -60.12801 l 34.86727,0.0368 34.86726,0.0368 7.38333,3.85607 c 7.61406,3.97662 12.91047,9.81919 15.98675,17.63561 2.30533,5.85689 2.36983,18.50829 0.13094,25.52785 -2.0541,6.43894 -9.98599,15.3045 -15.87519,17.74388 -2.2372,0.92664 -4.06757,1.8608 -4.06757,2.07588 0,0.21509 4.74442,12.33031 10.54311,26.92272 l 10.54309,26.53166 -11.57649,-0.41124 -11.5765,-0.41122 -9.25258,-24.54941 -9.25259,-24.54939 h -15.33079 -15.33078 v 24.90518 24.90519 l -11.02943,-2.3e-4 -11.02945,-2.3e-4 v -60.12801 z m 63.19107,-9.53507 c 5.60569,-2.85977 10.10135,-9.85858 10.10135,-15.72567 0,-6.25947 -4.55637,-13.0746 -10.56569,-15.80397 -4.61841,-2.09758 -9.35373,-2.64088 -23.23421,-2.66578 l -17.43364,-0.0313 v 18.501 18.50099 h 17.84616 c 14.88542,0 18.74862,-0.46041 23.28603,-2.77531 z m 159.53248,9.17951 v -60.48403 h 27.55719 c 15.15656,0 31.00696,0.64496 35.22306,1.43323 9.7786,1.82822 17.8317,7.4634 23.2868,16.29488 3.9131,6.33505 4.303,8.07228 4.3011,19.16856 0,12.92873 -1.0833,15.85631 -9.1518,24.78506 -7.7623,8.58969 -12.963,10.11738 -37.0986,10.8976 l -22.05886,0.71309 -0.39033,23.83783 -0.39013,23.83782 h -10.6393 -10.63913 z m 59.39255,-8.26628 c 11.6621,-6.2239 11.9242,-25.61223 0.4264,-31.55791 -3.0539,-1.57925 -8.7786,-2.15884 -21.3232,-2.15884 h -17.14844 v 17.55223 c 0,9.65373 0.48027,18.03966 1.06737,18.63541 2.10948,2.14078 32.09037,0.13757 36.97787,-2.47089 z m 50.1903,8.13699 v -60.61331 l 34.5115,0.53379 c 38.6278,0.59748 41.4097,1.18416 51.2952,10.81704 9.8581,9.60633 12.2298,27.9321 5.358,41.4019 -2.635,5.16529 -11.3951,13.18371 -16.1252,14.76048 -1.0372,0.34571 1.8093,9.26972 7.8588,24.63724 5.2167,13.25233 9.9012,25.2159 10.4097,26.58567 0.8317,2.24022 -0.2091,2.49052 -10.3554,2.49052 h -11.28 l -9.3686,-24.5494 -9.3689,-24.5494 h -15.4382 -15.438 l -0.3894,24.5494 -0.3896,24.5494 h -10.6398 -10.6401 z m 61.7138,-8.23717 c 7.1777,-2.99896 10.8671,-8.61398 10.8671,-16.53872 0,-4.75078 -0.908,-7.88621 -3.0855,-10.65419 -5.0418,-6.40966 -10.5936,-7.84681 -30.313,-7.84681 h -17.8351 v 18.501 18.50099 h 17.8351 c 11.9373,0 19.3881,-0.64889 22.5314,-1.96227 z m 79.1784,43.8855 v -24.965 l -20.6357,-35.01484 c -11.3498,-19.25818 -20.6358,-35.26576 -20.6358,-35.57245 0,-0.30665 5.8341,-0.37345 12.9646,-0.14838 l 12.9647,0.4092 14.2993,24.70798 14.2993,24.70798 2.978,-5.09514 c 1.6379,-2.80232 7.9765,-14.08102 14.0854,-25.06377 l 11.1073,-19.96862 h 9.8843 c 5.4361,0 9.8842,0.29199 9.8842,0.64888 0,0.35688 -8.6458,16.02853 -19.2126,34.82588 l -19.2126,34.17702 v 25.65815 25.65812 h -11.3852 -11.3852 z M 18.500999,344.67885 c 18.684678,-2.64221 35.261379,-5.20151 42.208846,-6.5167 3.479511,-0.65867 3.859012,-1.42486 4.719167,-9.52644 1.343462,-12.65432 7.249933,-32.59962 13.583733,-45.87032 19.961343,-41.82293 61.696755,-72.98916 108.385875,-80.93789 12.44026,-2.11794 12.08523,-2.63783 9.69547,14.19736 l -1.69375,11.93142 -5.19526,0.84962 c -16.62547,2.71895 -40.90656,14.36035 -56.48934,27.08349 -19.00367,15.51617 -36.805418,46.84659 -39.908272,70.23687 l -0.988619,7.45328 6.958842,-0.94541 c 3.827329,-0.51999 12.402309,-1.80817 19.055649,-2.86266 6.65315,-1.05451 15.61902,-2.35787 19.92416,-2.89637 4.30495,-0.53851 9.50212,-1.83642 11.54899,-2.88428 4.58047,-2.34473 8.37516,-9.98669 8.37516,-16.86658 v -5.15534 l 24.54941,0.3894 24.54939,0.38939 0.39489,20.27994 0.39487,20.27994 h -25.70064 c -21.53193,0 -25.83327,0.34624 -26.51961,2.13473 -0.71518,1.86391 -10.68504,2.11684 -78.584659,1.99374 L 0,347.29506 Z M 212.76149,322.62718 c 0,-15.23109 -0.46888,-20.86048 -1.77894,-21.36376 -1.40816,-0.54089 -1.73815,-29.33031 -1.58293,-138.07868 0.10812,-75.567423 0.48065,-137.679978 0.82847,-138.027873 0.34801,-0.347895 1.44991,12.32387 2.44877,28.15949 0.99887,15.83562 2.01406,30.08425 2.25618,31.66358 0.24194,1.57934 0.83131,9.27574 1.30987,17.103083 0.47837,7.82735 2.18976,32.48349 3.80286,54.79142 3.22809,44.63678 3.07951,44.11463 12.55601,44.12135 7.90552,0.006 30.60937,6.60798 43.50713,12.65208 33.55948,15.72643 59.58156,42.95162 74.34422,77.78124 4.5871,10.8223 10.31635,33.16089 10.31635,40.22412 0,4.88067 0.18786,4.86943 -19.00689,1.13412 l -8.33323,-1.62159 -3.33226,-13.1823 c -8.33228,-32.96162 -32.64715,-62.82399 -63.61516,-78.12872 -11.96644,-5.91402 -24.1585,-9.96687 -33.85095,-11.25261 l -7.06111,-0.93669 0.0418,4.80859 c 0.0228,2.64473 0.91973,16.72515 1.99335,31.28983 2.67516,36.29118 3.78408,38.21654 22.43517,38.95909 l 11.82072,0.47059 0.39487,20.05701 0.39507,20.05702 H 237.70658 212.7623 Z"
     id="path941"
     inkscape:connector-curvature="0" />
</svg>
